/* XPM */
static char *a2de5ad936844bdcce35ca42c4ea01f34nmcW0bk8WrxYtpa[] = {
/* columns rows colors chars-per-pixel */
"32 32 28 1 ",
"  c None",
". c #C60000",
"X c #E47000",
"o c #CF3977",
"O c #48D841",
"+ c #70FF69",
"@ c #FFAF00",
"# c #3E46C6",
"$ c #4951D7",
"% c #5C64EE",
"& c #727AFF",
"* c #E72181",
"= c #E45082",
"- c #E7518F",
"; c #F269A2",
": c #CE3CDA",
"> c #E44BF1",
", c #F572FF",
"< c #2D8DD0",
"1 c #3A9EE4",
"2 c #51AFEF",
"3 c #78C8FF",
"4 c #FB88AF",
"5 c #FEBFA8",
"6 c #FF9BC0",
"7 c #FFADD6",
"8 c #F794FF",
"9 c #FFE1E1",
/* pixels */
"                                ",
"                                ",
"                                ",
"                                ",
"                                ",
"                                ",
"                                ",
"                                ",
"                                ",
"                                ",
"                                ",
"                                ",
"                                ",
"      O       X                 ",
"     O+O     X@X                ",
"     O++O   X@5X                ",
"     O+;;;;;@55X                ",
"    ;7777777775;                ",
"    ;77*777*777-                ",
"    -77*997*777-                ",
"    -779.997776o                ",
"     -79999766o4-               ",
"      oooooooo467;;             ",
"        o4444667777;            ",
"         o6667777777;           ",
"         o77777-77777;          ",
"         o-666-777777-          ",
"         o4-6--777776-          ",
"         o4-6-=-67776-:>>>>>>   ",
"         <2-6-#%$$666-,,,8888>  ",
"         <<131#$&&444-:::::::   ",
"           111 $$$---           "
};
