/* XPM */
static char *_b51f153d1d7482db3fd68436eb0d3caco3CYUoyt1JKr445[] = {
/* columns rows colors chars-per-pixel */
"32 32 27 1 ",
"  c None",
". c #C60000",
"X c #E47000",
"o c #CF3977",
"O c #48D841",
"+ c #70FF69",
"@ c #FFAF00",
"# c #3E46C6",
"$ c #4951D7",
"% c #5C64EE",
"& c #727AFF",
"* c #E72181",
"= c #E7518F",
"- c #F269A2",
"; c #CE3CDA",
": c #E44BF1",
"> c #F572FF",
", c #2D8DD0",
"< c #3A9EE4",
"1 c #51AFEF",
"2 c #78C8FF",
"3 c #FB88AF",
"4 c #FEBFA8",
"5 c #FF9BC0",
"6 c #FFADD6",
"7 c #F794FF",
"8 c #FFE1E1",
/* pixels */
"                                ",
"                                ",
"                                ",
"                                ",
"                                ",
"                                ",
"                                ",
"                                ",
"                                ",
"                                ",
"                                ",
"        O       X               ",
"       O+O     X@X              ",
"       O++O   X@4X              ",
"       O+-----@44X              ",
"      -6666666664-              ",
"      -66*666*666=              ",
"      =66*886*666=              ",
"      =668.886665o              ",
"       =68888655o               ",
"        oooooooo3=              ",
"         o3333356-              ",
"          o5556666-             ",
"          o66666666-            ",
"          =566666666-           ",
"         o=5=66=66666-          ",
"        o33=55=666666=          ",
"        o3=55=o666665=          ",
"        ,1=5=o#=56665=;::::::   ",
"         ,<2<#%%$$555=>>>7777:  ",
"          <<<##$&&333=;;;;;;;   ",
"               $$$===           "
};
