/* XPM */
static char *_f3d9272c9de41a5fab69793bf267351tAaYzUWDZ6jTNbuA[] = {
/* columns rows colors chars-per-pixel */
"32 32 29 1 ",
"  c None",
". c #C60000",
"X c #E47000",
"o c #A52A5D",
"O c #CF3977",
"+ c #48D841",
"@ c #70FF69",
"# c #FFAF00",
"$ c #3E46C6",
"% c #4951D7",
"& c #5C64EE",
"* c #727AFF",
"= c #E72181",
"- c #E45082",
"; c #E7518F",
": c #F269A2",
"> c #CE3CDA",
", c #E44BF1",
"< c #F572FF",
"1 c #2D8DD0",
"2 c #3A9EE4",
"3 c #51AFEF",
"4 c #78C8FF",
"5 c #FB88AF",
"6 c #FEBFA8",
"7 c #FF9BC0",
"8 c #FFADD6",
"9 c #F794FF",
"0 c #FFE1E1",
/* pixels */
"                                ",
"                                ",
"                                ",
"                                ",
"                                ",
"                                ",
"                                ",
"                                ",
"                                ",
"         +       X              ",
"        +@+     X#X             ",
"        +@@+   X#6X             ",
"        +@:::::#66X             ",
"       :8888888886:             ",
"       :88=888=888;             ",
"       ;88=008=888;             ",
"       ;880.008887O             ",
"        ;80000877O              ",
"         OOOOOOOO5;             ",
"          O5555557:             ",
"          O7777788:             ",
"          ;88;88888:            ",
"         O;8;87;888:            ",
"         O5;;87;8888:           ",
"         131;7O788888:          ",
"          11242888888:          ",
"            2228888887;         ",
"            o778888887;         ",
"             $$;788877;>,,,,,   ",
"            $&&-%%777;<<<9999,  ",
"            $$$%**555;>>>>>>>   ",
"               %%%;;;           "
};
