/* XPM */
static char *result[] = {
/* columns rows colors chars-per-pixel */
"32 32 30 1 ",
"  c #C60000",
". c #E47000",
"X c #A52A5D",
"o c #CF3977",
"O c #48D841",
"+ c #70FF69",
"@ c #FFAF00",
"# c #3E46C6",
"$ c #4951D7",
"% c #5C64EE",
"& c #727AFF",
"* c #E72181",
"= c #E45082",
"- c #E7518F",
"; c #F16393",
": c #F269A2",
"> c #CE3CDA",
", c #E44BF1",
"< c #F572FF",
"1 c #2D8DD0",
"2 c #3A9EE4",
"3 c #51AFEF",
"4 c #78C8FF",
"5 c #FB88AF",
"6 c #FEBFA8",
"7 c #FF9BC0",
"8 c #FFADD6",
"9 c #F794FF",
"0 c #FFE1E1",
"q c None",
/* pixels */
"qqqqqqqqqqqqqqqqqqqqqqqqqqqqqqqq",
"qqqqqqqqqqqqqqqqqqqqqqqqqqqqqqqq",
"qqqqqqqqqqqqqqqqqqqqqqqqqqqqqqqq",
"qqqqqqqqqqqqqqqqqqqqqqqqqqqqqqqq",
"qqqqqqqqqqqqqqqqqqqqqqqqqqqqqqqq",
"qqqqqqqqqqqqqqqqqqqqqqqqqqqqqqqq",
"qqqqqqqqqqqqqqqqqqqqqqqqqqqqqqqq",
"qqqqqqqqqqOqqqqqqq.qqqqqqqqqqqqq",
"qqqqqqqqqO+Oqqqqq.@.qqqqqqqqqqqq",
"qqqqqqqqqqqqqqqqqqqqqqqqqqqqqqqq",
"qqqqqqqqqO++Oqqq.@6.qqqqqqqqqqqq",
"qqqqqqqqqO+:::::@66.qqqqqqqqqqqq",
"qqqqqqqq:8888888886:qqqqqqqqqqqq",
"qqqqqqqq:88*888*888-qqqqqqqqqqqq",
"qqqqqqqq-88*008*888-qqqqqqqqqqqq",
"qqqqqqqq-880 008887oqqqqqqqqqqqq",
"qqqqqqqqq-80000877oqqqqqqqqqqqqq",
"qqqqqqqqqqoooooooo5-qqqqqqqqqqqq",
"qqqqqqqqqqqqo555578:qqqqqqqqqqqq",
"qqqqqqqqqqqX-77-788:qqqqqqqqqqqq",
"qqqqqqqqqqo7-8-88887:qqqqqqqqqqq",
"qqqqqqqqqqX7o8o87888:qqqqqqqqqqq",
"qqqqqqqqqo7;X-87o8887:qqqqqqqqqq",
"qqqqqqqqq131q24278888:qqqqqqqqqq",
"qqqqqqqqqq11q222:7888:qqqqqqqqqq",
"qqqqqqqqqqqqqX7-888887:qqqqqqqqq",
"qqqqqqqqqqqqqq-8888887-qqqqqqqqq",
"qqqqqqqqqqqqqq-8888887-qqqqqqqqq",
"qqqqqqqqqqqqq##-788877->,,,,,qqq",
"qqqqqqqqqqqq#%%=$$777-<<<9999,qq",
"qqqqqqqqqqqq###$&&555->>>>>>>qqq",
"qqqqqqqqqqqqqqq$$$---qqqqqqqqqqq"
};
