/* XPM */
static char *ac3e3ca1345d4f4c858bdae1ea2a62bbMne0w6Z1dFr8kVlN[] = {
/* columns rows colors chars-per-pixel */
"32 32 29 1 ",
"  c None",
". c #C60000",
"X c #E47000",
"o c #A52A5D",
"O c #CF3977",
"+ c #48D841",
"@ c #70FF69",
"# c #FFAF00",
"$ c #3E46C6",
"% c #4951D7",
"& c #5C64EE",
"* c #727AFF",
"= c #E72181",
"- c #E45082",
"; c #E7518F",
": c #F269A2",
"> c #CE3CDA",
", c #E44BF1",
"< c #F572FF",
"1 c #2D8DD0",
"2 c #3A9EE4",
"3 c #51AFEF",
"4 c #78C8FF",
"5 c #FB88AF",
"6 c #FEBFA8",
"7 c #FF9BC0",
"8 c #FFADD6",
"9 c #F794FF",
"0 c #FFE1E1",
/* pixels */
"                                ",
"                                ",
"                                ",
"                                ",
"                                ",
"                                ",
"                                ",
"                                ",
"          +       X             ",
"         +@+     X#X            ",
"         +@@+   X#6X            ",
"         +@:::::#66X            ",
"        :8888888886:            ",
"        :88=888=888;            ",
"        ;88=008=888;            ",
"        ;880.008887O            ",
"         222000877O             ",
"     111O244;;OOOO5;            ",
"     133--2788;;578:            ",
"      1oo--OO788788:            ",
"         ooo:OO88887:           ",
"            :7778888:           ",
"            O78888887:          ",
"             :8888888:          ",
"             O87;7888:          ",
"             O7;888887:         ",
"              ;8888887;         ",
"              ;8888887;         ",
"             $$;788877;>,,,,,   ",
"            $&&-%%777;<<<9999,  ",
"            $$$%**555;>>>>>>>   ",
"               %%%;;;           "
};
