/* XPM */
static char *result[] = {
/* columns rows colors chars-per-pixel */
"32 32 29 1 ",
"  c #C60000",
". c #E47000",
"X c #A52A5D",
"o c #CF3977",
"O c #48D841",
"+ c #70FF69",
"@ c #FFAF00",
"# c #3E46C6",
"$ c #4951D7",
"% c #5C64EE",
"& c #727AFF",
"* c #E72181",
"= c #E45082",
"- c #E7518F",
"; c #F269A2",
": c #CE3CDA",
"> c #E44BF1",
", c #F572FF",
"< c #2D8DD0",
"1 c #3A9EE4",
"2 c #51AFEF",
"3 c #78C8FF",
"4 c #FB88AF",
"5 c #FEBFA8",
"6 c #FF9BC0",
"7 c #FFADD6",
"8 c #F794FF",
"9 c #FFE1E1",
"0 c None",
/* pixels */
"00000000000000000000000000000000",
"00000000000000000000000000000000",
"00000000000000000000000000000000",
"00000000000000000000000000000000",
"00000000000000000000000000000000",
"00000000000000000000000000000000",
"00000000000000000000000000000000",
"00000000000000000000000000000000",
"0000000000O0000000.0000000000000",
"000000000O+O00000.@.000000000000",
"000000000O++O000.@5.000000000000",
"000000000O+;;;;;@55.000000000000",
"00000000;7777777775;000000000000",
"00000000;77*777*777-000000000000",
"00000000-77*997*777-000000000000",
"00000<<<X111 997776o000000000000",
"00000<226133-99766o0000000000000",
"000000<X==167-oooo4-000000000000",
"00000000XX=o67--467;000000000000",
"0000000000XXo677677;000000000000",
"000000000000Xoo77776;00000000000",
"000000000000o7767777;00000000000",
"000000000000o67777776;0000000000",
"0000000000000-7777777;0000000000",
"0000000000000o76-6777;0000000000",
"0000000000000o6-777776;000000000",
"00000000000000-7777776-000000000",
"00000000000000-7777776-000000000",
"0000000000000##-677766-:>>>>>000",
"000000000000#%%=$$666-,,,8888>00",
"000000000000###$&&444-:::::::000",
"000000000000000$$$---00000000000",
};
