/* XPM */
static char *a3ba693f5c0643e9ba7a8429cac6a96aEgF9zmohOTMUz5MD[] = {
/* columns rows colors chars-per-pixel */
"64 64 141 2 ",
"   c #35332E",
".  c #363533",
"X  c #3A3633",
"o  c #373837",
"O  c #3B3935",
"+  c #373738",
"@  c #3D3C3A",
"#  c #463E34",
"$  c #483E34",
"%  c #413F3F",
"&  c #42403D",
"*  c #484038",
"=  c #554535",
"-  c #5D4935",
";  c #634C37",
":  c #694F36",
">  c #6A5036",
",  c #6B523A",
"<  c #745537",
"1  c #745538",
"2  c #74583D",
"3  c #444341",
"4  c #494745",
"5  c #494845",
"6  c #4C4C4A",
"7  c #565553",
"8  c #585756",
"9  c #5A5A57",
"0  c #5E5D5C",
"q  c #6E5742",
"w  c #6A5845",
"e  c #6E5C4A",
"r  c #755E46",
"t  c #725E48",
"y  c #7E6145",
"u  c #72624D",
"i  c #64625F",
"p  c #7B6652",
"a  c #636361",
"s  c #6A6B69",
"d  c #747473",
"f  c #797776",
"g  c #787877",
"h  c #7E7D79",
"j  c #8B623A",
"k  c #93673C",
"l  c #976A3B",
"z  c #9D6C3C",
"x  c #A16E3D",
"c  c #A4713E",
"v  c #AA733F",
"b  c #B67A3F",
"n  c #9E6F41",
"m  c #937452",
"M  c #A57546",
"N  c #A1774C",
"B  c #B97C43",
"V  c #A57D52",
"C  c #807F7B",
"Z  c #CD843F",
"A  c #AB835B",
"S  c #BD8854",
"D  c #83827E",
"F  c #A68561",
"G  c #AC8C69",
"H  c #B08961",
"J  c #B4906B",
"K  c #C58142",
"L  c #CD8541",
"P  c #CE8846",
"I  c #CE8C4B",
"U  c #D08642",
"Y  c #D08D4D",
"T  c #C68E54",
"R  c #CF8F51",
"E  c #C08F5F",
"W  c #D18F51",
"Q  c #CF955B",
"!  c #D29254",
"~  c #D49659",
"^  c #D5995E",
"/  c #C4996C",
"(  c #D69C63",
")  c #D99F65",
"_  c #D79F68",
"`  c #D7A36B",
"'  c #D9A36B",
"]  c #DBA671",
"[  c #DCA975",
"{  c #DEAD7C",
"}  c #DEB07E",
"|  c #E0AF7E",
" . c #858582",
".. c #898783",
"X. c #8B8A87",
"o. c #8C8B8B",
"O. c #908F8F",
"+. c #95948F",
"@. c #949492",
"#. c #989691",
"$. c #999996",
"%. c #9C9C9C",
"&. c #A6A6A5",
"*. c #A8A9A6",
"=. c #A7A7A8",
"-. c #ACACAA",
";. c #B2B1AE",
":. c #B5B4B1",
">. c #B9B6B3",
",. c #BAB9B4",
"<. c #BCBBBB",
"1. c #DEAF80",
"2. c #DFB080",
"3. c #E0B180",
"4. c #C9C6BE",
"5. c #C2C2C2",
"6. c #C5C5C4",
"7. c #C8C7C7",
"8. c #C7C8C7",
"9. c #C8C8C7",
"0. c #CFCCC5",
"q. c #C8C7C8",
"w. c #C8C8C8",
"e. c #CACAC9",
"r. c #CBCBCA",
"t. c #CCCCCB",
"y. c #CDCCCC",
"u. c #CDCECD",
"i. c #CECECE",
"p. c #D1CFC7",
"a. c #D2CFC7",
"s. c #D2CEC8",
"d. c #D2CFC8",
"f. c #CFD0CF",
"g. c #D2D2CF",
"h. c #D9D6CF",
"j. c #CFCFD0",
"k. c #CFD0D0",
"l. c #D0D0D0",
"z. c gray82",
"x. c #D2D2D2",
/* pixels */
"h...h h h h h h h C h C h h h C C h h h h C h h h h h h  . . . .X.o. .h h D h C h h h h h h h h h h h h C h h h h h h h h h h D ",
"0.i 0 0 0 0 0 0 0 0 0 0 0 0 0 0 0 0 0 0 0 0 0 0 0 0 0 0 a a 3 % @ & 3 8 0 0 0 0 0 0 0 0 0 0 0 0 0 0 0 0 0 0 0 0 0 0 0 0 0 0 0 0 ",
"h.>.8.8.q.q.q.q.q.q.7.q.q.q.7.7.q.q.q.q.7.q.e.q.q.q.q.q.e.-.6 3 @ o 6 :.e.8.8.8.7.q.q.q.e.q.8.q.q.e.6.8.q.q.q.e.q.q.q.q.6.q.6.;.",
"h.,.u.u.y.u.y.y.y.y.y.y.y.y.y.y.y.u.u.r.u.r.s.j.j.j.d.e.j.-.3 3 5 X 4 :.k.u.u.u.y.u.y.j.u.s.j.j.y.u.u.u.y.u.u.e.u.u.u.u.j.y.e.,.",
"g.,.u.y.y.j.y.u.y.u.y.y.y.y.u.y.u.y.u.y.u.j.u.k.u.j.j.s.j.-.% O 3 @ % :.k.u.u.u.r.j.r.r.j.u.u.u.y.u.y.j.e.j.y.u.y.y.y.y.u.u.r.,.",
"d.,.y.j.u.y.u.y.y.y.u.j.y.u.s.y.y.y.y.j.u.u.l.l.j.j.j.j.j.-.@ X @ . 3 ;.k.u.u.u.y.j.j.y.y.s.u.u.u.y.y.y.y.y.u.u.y.j.y.y.u.y.j.;.",
"d.,.u.j.y.y.j.y.j.y.y.y.y.y.j.j.u.y.y.u.u.s.k.l.j.j.j.j.j.-.3 + @ . 3 :.j.j.y.u.u.y.e.y.u.y.u.u.y.y.u.j.j.e.u.u.y.u.j.y.y.j.r.>.",
"a.,.u.s.y.u.y.y.y.j.j.y.j.y.j.y.j.u.u.j.j.j.k.k.d.j.j.j.l.-.@ + + . % :.j.y.s.r.y.j.j.u.j.j.u.u.u.j.s.j.u.j.j.j.u.u.y.y.y.j.s.;.",
"y.,.y.j.u.j.s.r.-.o.d d f f d f d g g d h  .%.5.j.k.d.j.l.-.@ . @ . 3 :.j.y.y.j.u.<.@.h d g g d g d g g g f f X.;.u.u.u.u.y.r.>.",
"d.:.j.y.u.u.e.o.3 . . . . . . . . . . . @ @ 5 s ,.z.j.j.u.-.% . @ . 3 ;.j.y.y.y.-.8 + . .   . . .   .       . X 5 O.e.u.u.u.e.>.",
"d.,.r.s.u.u.%.% . . X $ # $ # # # $ # # & O @ @ s e.z.j.u.-.@ X + . 3 ;.j.y.j.5.9 . . + # # $ $ # # # * % * X X . 3 &.k.u.u.r.,.",
"a.,.u.y.j.y.d . . , M b b b b b B B B E J F * X % ;.s.u.j.-.% + @ . 3 :.j.y.j.&.@ . = k b b B b b B b b S / J e . . C l.s.u.r.:.",
"a.,.e.u.u.r.s   , K U L Z U U Z L ! ] | { ' M # @ =.j.u.j.-.@ . @ . 3 :.j.y.j.%.+ # v L L L P Z Z L I ` | | [ T ; . d e.j.y.e.>.",
"a.,.u.u.y.r.s   z U Z L Z Z Z Y ) { 2.[ ~ P K ; + =.j.u.j.-.% . + . 3 ;.j.y.j.%.+ : L L L L L Z P ~ [ | { ) I L k . d j.y.j.e.>.",
"d.,.j.r.y.r.s X c Z L L L L ~ [ 2.| ( P L L K : @ =.j.u.j.-.% . X . 3 :.j.y.j.%.+ 1 L L L L L W ` { { ' ! L L U z . d u.y.y.e.>.",
"r.,.s.u.r.p.s X c U L L Y ' { { ] ~ K L L L L , + &.j.u.d.-.@ . @ . 3 :.j.y.j.%.. 1 P L Z P ^ [ { { ) P L L L L z . d 8.j.j.e.>.",
"d.,.e.y.j.e.s X c U P ^ { } { ( I Z L L L L L ; @ &.j.y.j.-.@ X @ . % :.j.u.j.%.+ 1 L L R ] } 2.' W L L L L L U z X d y.y.u.y.;.",
"d.,.j.j.y.e.s X c ! ' { { ' W L L L L L Z L L > @ &.j.y.u.-.% + @ . 3 ;.u.u.u.%.+ 1 P ( { 2.[ ^ P L L L L L L Z z X d y.y.y.y.,.",
"a.,.u.y.y.e.s X A { | [ ^ P L L L L L L L P ^ e @ =.u.j.j.-.@ . . . 3 :.j.u.j.%.O r ] 1.} ` I L L L L L L Z L W A + d u.j.j.y.>.",
"a.,.u.s.y.y.s X J } ' Y L L L L L L L L ! ` { u X &.j.y.j.-.% . @ . 3 :.j.s.j.%.. p } [ Q L Z L L L L L Z Y ( | G X f u.y.s.p.>.",
"d.,.y.y.y.e.s X H ~ P Z L L L L L L P ( { { ` q + =.s.j.j.-.% . @ . 3 :.u.j.j.%.+ p ` P L Z L L L L L L ~ [ 3.| A O d k.j.j.y.>.",
"a.,.u.y.j.e.s X M U Z L Z L L L L ~ [ 1.[ ^ I > @ =.j.s.j.-.@ + + . % :.j.j.y.%.+ 2 L L L L L L L L Y _ { { _ Y l   d e.y.y.j.;.",
"a.,.j.u.j.e.s X x L L L L L L I ) { { ' I L K , + =.j.y.j.-.@ . @ . 3 :.s.j.f.%.o 1 L L L L L Z L ~ [ 1.] ~ L L z   d j.y.s.y.;.",
"a.,.y.y.u.0.s X x L L L L L ~ [ 2.] ~ P L I ) t @ =.j.u.u.-.% . + . 3 ;.u.u.f.%.. < L L L L Z R ' { { _ Y Z L ( A X d 0.j.u.j.:.",
"a.,.u.y.y.e.s X n U Z Z I ' { { _ I L P ~ ] ( , @ =.k.u.j.-.% . @ . 3 :.j.u.j.%.+ < Z L Z P ^ [ } ] ! L L W ` ] N X d e.k.r.r.,.",
"a.,.y.y.y.y.s X v Z P ^ [ { [ ! K L Y ` ' R K > @ =.j.u.s.-.% . + . % ;.j.u.j.%.o < L L R ' } { ( I L P ^ ] ^ P z X d y.r.k.r.;.",
"d.,.y.y.y.e.s X x Y ' | { ( P Z P ^ ' ( P Z L : + &.j.u.j.-.% . @ . 3 ;.j.y.j.%.o < P ( { { ` R L L ! ' ' I Z Z z X d k.y.e.f.:.",
"d.,.u.u.y.e.s X A | | [ W L L Y ' ' R L L L L > @ &.j.u.j.-.@ . O . 3 :.j.u.u.%.X u ' } { ^ I L P ( ] ~ P Z Z P z   d e.f.k.e.,.",
"a.,.y.u.y.e.s X J | ( P L P ^ | ~ P L L L L L ; @ &.j.u.j.-.@ X @ . 3 ;.j.j.j.%.X p } ' R L L ! ] ` I L L L L L z   d j.e.u.y.,.",
"a.,.j.y.u.y.s . V Y L L ! ' ' Y L L L L L U L - @ &.j.u.j.-.% . . . 3 :.u.u.u.%.X w Q P L P ) ] Q L L Z L Z L L j   d y.l.r.f.;.",
"a.,.u.y.y.q.s   - B Y ) [ ~ P Z U U L L U L k X @ =.f.u.u.-.@ + @ . 3 :.j.j.s.%.+ @ l P ~ [ ) Y L U L L L P L b =   d y.s.y.e.;.",
"a.,.u.u.s.j.h . X = m A M z x x x x x x z < X . 3 :.u.u.j.-.@ + @ . 3 :.y.j.j.-.@ . # y A V x x c n z c z z j = X . D j.j.u.u.,.",
"y.>.e.j.y.j.-.6 . . X + X X X + # X X X + . . . d q.y.u.d.-.@ . X . 3 ;.j.j.y.q.s + . . + X X # . # X X X X X . . 6 :.j.u.j.q.,.",
"d.,.j.q.y.j.j.%.8 O + @ + + . + . + O + . + 3 d <.s.u.y.j.-.% X @ . 3 :.j.e.e.j.<.s % + . . . . . . . . + . + @ 8 =.y.y.e.u.e.>.",
"0.,.y.j.j.y.j.y.<.&.@.@.@.@.@.@.@.@.@.@.@.$.-.q.j.j.y.j.j.-.@ + + . % :.j.r.u.j.k.6.-.$.@.$.@.$.@.@.@.$.@.@.@.&.5.u.u.j.y.y.r.,.",
"d.,.j.y.e.j.y.s.u.u.j.j.j.d.j.j.j.j.d.j.j.j.j.u.y.j.y.u.u.-.% . @ . 3 :.j.j.r.y.r.j.j.k.j.j.j.j.j.j.j.j.j.j.j.j.u.j.y.y.s.u.y.;.",
"d.,.u.u.u.j.r.u.u.y.u.y.u.j.r.j.u.j.y.y.j.y.j.j.y.y.q.q.u.-.% . + . 3 ;.j.e.q.r.y.j.r.r.s.y.j.u.j.u.y.y.j.y.y.e.y.y.u.j.j.y.y.;.",
"a.,.u.u.r.j.j.r.u.j.y.s.r.j.j.e.y.y.u.y.u.e.r.r.j.<.&.-.y.-.@ X @ + 3 :.q.-.&.5.j.y.k.y.y.j.q.u.y.y.y.y.y.y.j.y.j.y.y.u.y.j.y.,.",
"d.,.y.u.j.y.y.j.j.y.j.y.j.r.j.y.y.y.y.y.y.j.q.j.j.,.O.%.e.-.% X + . 3 :.q.%.O.<.j.e.8.j.j.y.y.r.y.y.y.y.u.y.y.j.r.u.j.e.j.y.y.:.",
"d.,.y.u.e.y.j.e.y.u.y.y.y.j.8.j.y.j.j.s.j.e.j.y.j.<.O.%.j.-.@ . @ . % :.e.%.O.<.j.y.j.y.j.y.j.y.j.y.y.j.y.u.s.j.s.u.y.y.e.j.q.>.",
"a.,.u.y.y.u.y.y.j.u.j.r.j.y.e.y.y.j.e.y.j.e.u.j.j.,.@.%.j.-.% . + . 3 :.q.%.$.<.j.r.j.r.u.j.q.j.r.j.j.r.j.r.y.j.j.j.u.u.y.j.q.,.",
"a.,.y.u.j.y.y.u.r.u.q.j.y.s.j.y.j.y.j.y.y.j.j.r.j.6.<.<.j.=.@ . @ . % :.r.<.<.6.j.u.y.j.j.e.j.r.j.r.u.j.r.y.j.e.j.q.y.j.u.s.y.:.",
"a.,.y.y.y.s.j.y.e.j.8.j.y.j.8.j.y.y.j.j.y.r.y.r.j.y.e.j.j.-.@ . @ . 3 :.j.u.j.r.u.j.r.j.j.y.y.j.y.y.u.r.j.y.j.y.u.u.u.u.y.j.y.:.",
"a.,.u.y.j.y.u.y.j.u.j.r.j.y.j.y.e.j.e.y.s.j.y.j.r.u.j.y.j.-.@ + X . 3 ;.u.y.y.j.j.q.s.y.u.j.e.y.u.s.j.r.j.r.y.u.e.j.j.e.y.y.y.;.",
"d.,.j.r.j.u.u.y.j.e.j.j.u.u.u.y.r.j.8.k.y.j.y.j.y.u.y.u.k.-.@ . @ . 3 :.j.u.r.y.y.j.r.j.y.u.y.j.j.j.y.j.y.y.u.y.u.u.y.u.u.y.y.>.",
"d.,.y.r.q.j.j.y.y.j.y.y.j.y.u.j.j.y.j.r.j.q.j.y.y.y.u.y.u.-.& X + . @ :.j.y.j.y.y.y.j.q.r.u.j.q.y.y.j.q.y.y.y.u.y.u.u.y.y.j.q.>.",
"d.,.y.j.y.u.y.y.j.q.u.s.q.j.j.r.y.r.r.k.j.e.y.y.y.j.u.u.l.-.@ + @ . 3 :.j.y.j.j.j.y.r.j.j.y.r.j.s.u.e.j.j.y.u.e.u.u.e.k.s.r.r.,.",
"d.>.u.y.y.y.u.y.y.j.y.y.j.r.q.j.u.k.y.j.y.j.e.j.j.s.u.u.k.-.& . O . 3 :.j.u.e.y.r.j.j.y.y.j.s.u.y.r.j.u.y.j.s.j.u.u.y.k.y.j.q.>.",
"d.,.u.u.j.y.r.j.u.r.j.y.r.j.q.j.u.j.y.u.j.q.r.j.y.j.j.y.l.-.@ . @ . % ;.j.j.e.u.j.r.r.j.e.j.j.e.j.y.j.y.y.j.y.y.j.y.e.j.y.j.e.:.",
"a.,.y.u.r.j.j.r.r.j.r.j.j.r.j.y.j.e.e.j.r.j.j.q.s.u.y.j.k.-.% . + + 3 :.j.r.j.y.q.j.y.u.j.y.y.j.q.j.y.j.j.q.j.e.q.j.k.r.j.e.y.>.",
"d.,.s.y.r.y.y.u.j.j.y.r.j.y.r.j.q.j.y.y.j.y.r.j.y.j.j.y.k.-.@ . @ . 3 :.j.u.r.j.j.y.e.j.y.y.y.y.y.j.y.j.y.j.s.u.j.r.k.k.u.e.e.:.",
"d.,.y.j.j.y.u.r.d.y.j.y.y.s.y.y.j.y.j.j.u.u.j.u.j.y.e.j.l.-.% . @ . % ;.j.r.u.k.r.j.u.j.e.j.j.y.j.8.j.e.j.y.y.j.r.j.y.r.u.y.y.,.",
"y.,.y.s.j.y.y.u.e.u.u.r.y.j.q.j.j.q.j.u.j.e.j.q.e.u.r.j.j.=.3 . + . % :.j.r.y.r.j.s.y.j.s.y.j.j.y.j.r.k.y.j.j.r.y.u.y.y.j.j.y.:.",
"a.,.u.y.y.u.u.y.j.y.j.k.j.y.j.r.r.j.y.s.u.j.y.j.r.j.j.y.j.=.@ . @ . % :.j.j.r.k.y.y.y.y.y.u.y.y.e.y.y.j.j.8.e.u.u.y.u.y.e.u.y.:.",
"a.,.u.u.j.y.y.y.r.j.j.r.j.y.y.j.r.u.u.j.r.j.j.y.j.r.j.r.j.-.@ O @ . 3 :.j.y.r.y.j.r.j.y.u.y.y.u.j.8.j.r.y.j.r.y.y.j.y.u.e.u.y.>.",
"a.,.r.u.y.y.j.y.j.u.y.j.8.k.r.r.j.r.j.q.u.u.y.u.e.j.y.j.j.-.@ . + . 3 ;.k.r.k.k.r.j.q.j.y.y.j.y.y.j.y.j.u.u.y.j.r.y.j.j.s.u.e.>.",
"d.,.j.u.e.j.y.y.r.r.u.j.q.j.y.j.u.j.r.r.j.r.y.s.y.u.u.u.d.*.% . @ . 3 :.j.u.j.r.y.j.y.y.j.y.u.y.j.u.y.j.y.r.u.r.j.r.r.j.y.r.y.:.",
"d.>.r.r.y.y.u.y.y.j.s.y.j.y.e.y.j.e.y.j.j.u.j.y.j.y.y.y.j.*.% . @ . 3 ;.u.r.r.j.y.y.y.y.y.y.y.u.y.s.y.y.j.j.y.j.y.j.r.j.j.y.y.>.",
"u.,.r.j.j.e.y.j.j.y.u.r.j.r.j.u.j.y.u.u.r.u.j.r.y.y.j.j.j.-.% . + . 3 :.j.y.y.j.y.y.y.y.y.y.j.y.y.j.r.j.r.r.u.y.r.j.r.u.y.y.y.;.",
"a.,.j.y.u.j.j.j.q.j.u.j.u.j.q.j.y.u.y.u.j.r.r.j.u.y.s.u.j.-.% . O . 3 :.j.u.s.y.j.y.y.y.u.y.y.y.j.e.r.j.u.j.u.r.j.y.r.j.s.u.y.>.",
"a.,.g.g.u.u.j.s.l.j.u.k.j.l.l.j.s.j.j.j.j.u.j.u.u.j.u.j.l.-.3 . @ . 3 :.j.j.j.j.j.j.j.j.j.s.u.j.j.j.j.j.j.j.j.j.j.j.d.j.j.j.j.,.",
"4.X.@.@.@.@.@.@.@.@.@.@.o.@.@.O.@.@.@.@.@.@.@.@.@.@.@.@.@.C X + O . @ D @.@.@.@.@.@.@.@.@.@.@.@.O.@.O.@.@.@.@.@.@.@.@.@.@.@.@. .",
",.7 4 4 5 5 5 5 5 5 5 5 5 5 4 4 5 5 5 5 5 5 4 4 4 4 4 4 4 5 5 5 6 3 4 4 4 4 4 4 4 4 4 4 4 6 5 5 6 5 4 4 4 5 4 6 4 4 4 4 4 4 4 6 ",
"a.$.@.@.+.@.+.@.+.@.@.@.@.@.@.@.+.+.@.+.@.@.+.@.+.@.@.@.@.@.@.@.#.@.@.@.@.@.@.@.@.@.@.@.@.@.@.@.@.@.@.@.@.@.@.@.@.@.+.@.+.@.+.@."
};
