/* XPM */
static char *d05414f863834781e61870cbc5b38bf39BXD1GQAutJab8d3[] = {
/* columns rows colors chars-per-pixel */
"64 64 79 1 ",
"  c None",
". c #353432",
"X c #363433",
"o c #363533",
"O c #373534",
"+ c #363634",
"@ c #383835",
"# c #383836",
"$ c #393836",
"% c #3A3937",
"& c #3B3938",
"* c #3A3A38",
"= c #3B3A38",
"- c #3C3B39",
"; c #3D3B3A",
": c #3E3D3B",
"> c #3D3E3B",
", c #3F3D3C",
"< c #3F3D3D",
"1 c #3E3E3C",
"2 c #3F3E3C",
"3 c #3F3E3D",
"4 c #3F3F3D",
"5 c #40403E",
"6 c #41413F",
"7 c #42413F",
"8 c #414140",
"9 c #424140",
"0 c #434140",
"q c #424240",
"w c #434342",
"e c #444241",
"r c #454442",
"t c #464543",
"y c #464644",
"u c #474644",
"i c #484744",
"p c #494744",
"a c #494745",
"s c #494844",
"d c #494845",
"f c #4C4B48",
"g c #4C4A49",
"h c #4C4C4A",
"j c #5A5956",
"k c #63625F",
"l c #626260",
"z c #7C7B7A",
"x c #7F7E7A",
"c c #807F7E",
"v c #83817E",
"b c #84837F",
"n c #848480",
"m c #878580",
"M c #888682",
"N c #8A8986",
"B c #8B8986",
"V c #919190",
"C c #A8A8A7",
"Z c #ABABAA",
"A c #ACABAA",
"S c #ACABAB",
"D c #ABACAA",
"F c #ACACAA",
"G c #ACACAB",
"H c #ADACAB",
"J c #ACACAC",
"K c #B1B0B0",
"L c #B1B1B0",
"P c #B2B1B0",
"I c #C4C4C3",
"U c #CACACA",
"Y c #CBCACA",
"T c #CBCBCB",
"R c gray80",
"E c #CDCDCD",
"W c #CECECE",
"Q c gray81",
"! c #D0D0D0",
/* pixels */
"vMbm                                                        BNnx",
"lku9                                                        69uj",
"ICh6                                                        4$gA",
"EJw9                                                        t$9K",
"EJ4$                                                        w*9P",
"QH4O                                                        -O9P",
"QD4O                                                        $OeP",
"!H4O                                                        *O6P",
"QD2O                                                        -O6P",
"!Z2O                                                        $O9P",
"EH2O                                                        $O9P",
"ED4O                                                        *O9P",
"EH4O                                                        *O6P",
"EJ2O                                                        *O6P",
"EZ2O                                                        $O9P",
"EZ2O                                                        *O9P",
"EH2O                                                        *.6P",
"EH2O                                                        -O9P",
"ED4O                                                        -X9P",
"QH2O                                                        -.9P",
"EZ<O                                                        $X9P",
"EA<O                                                        -.9P",
"EH4X                                                        *X9P",
"EH4O                                                        *X9P",
"EH4O                                                        *X9P",
"EJ4O                                                        -.9P",
"EA4X                                                        $O9P",
"EA<O                                                        *O9P",
"QA<O                                                        *O6P",
"EZ<O                                                        *O9P",
"QS4O                                                        *.9P",
"ES<X                                                        *O9P",
"EZ2O                                                        *.9P",
"EA2O                                                        -.eP",
"EH2O                                                        *X9P",
"EH4O                                                        *.9P",
"EZ4O                                                        -X0K",
"TH2O                                                        *.eP",
"UA2O                                                        -X0K",
"UA2O                                                        -.9P",
"UA2O                                                        *O6P",
"UZ2O                                                        -.9P",
"RD2O                                                        $O9P",
"EH2O                                                        *O9P",
"ED2O                                                        *O6P",
"ED2O                                                        -O6P",
"EH2O                                                        *.6P",
"QH4O                                                        *O9P",
"ED4O                                                        -O6P",
"QD2O                                                        $O9P",
"ED2O                                                        *X9P",
"QD2O                                                        -.9P",
"ED2O                                                        *.0K",
"QD2O                                                        -.eP",
"ED2O                                                        *X0K",
"QD2O                                                        *.9P",
"ED2O                                                        -.9P",
"ED2O                                                        *O9P",
"QH2O                                                        *.9P",
"ED4O                                                        *O9P",
"QD2O                                                        *.9P",
"ED2O                                                        $O6P",
"Vz$O                                                        $O-c",
"siii                                                        fiii"
};
