/* XPM */
static char *eb936225cea24d66c4bbc290f14a0246y3UlAA3FEjPKgmjE[] = {
/* columns rows colors chars-per-pixel */
"64 64 166 2 ",
"   c None",
".  c #353432",
"X  c #363433",
"o  c #363533",
"O  c #373534",
"+  c #363634",
"@  c #373734",
"#  c #373635",
"$  c #373735",
"%  c #373736",
"&  c #373637",
"*  c #373737",
"=  c #383735",
"-  c #373835",
";  c #383835",
":  c #383836",
">  c #393836",
",  c #383837",
"<  c #3A3937",
"1  c #373738",
"2  c #3B3938",
"3  c #3A3A38",
"4  c #3B3A38",
"5  c #3C3B39",
"6  c #3D3B3A",
"7  c #3D3C3B",
"8  c #3E3D3B",
"9  c #3D3E3B",
"0  c #3F3D3C",
"q  c #3F3D3D",
"w  c #3E3E3C",
"e  c #3F3E3C",
"r  c #3F3E3D",
"t  c #3F3F3D",
"y  c #40403E",
"u  c #41413F",
"i  c #42413F",
"p  c #414140",
"a  c #424140",
"s  c #434140",
"d  c #424240",
"f  c #424241",
"g  c #434342",
"h  c #444241",
"j  c #454442",
"k  c #464543",
"l  c #464644",
"z  c #474644",
"x  c #484744",
"c  c #494744",
"v  c #494745",
"b  c #484844",
"n  c #494844",
"m  c #484845",
"M  c #494845",
"N  c #494846",
"B  c #4C4B48",
"V  c #4C4A49",
"C  c #4C4C4A",
"Z  c #565454",
"A  c #5A5956",
"S  c #5F5D5B",
"D  c #5D5E5B",
"F  c #5F5D5C",
"G  c #5E5E5C",
"H  c #5E5E5D",
"J  c #63625F",
"K  c #626260",
"L  c #6A6A69",
"P  c #7C7B7A",
"I  c #7E7C79",
"U  c #7F7C79",
"Y  c #7E7D79",
"T  c #7F7E79",
"R  c #7F7E7A",
"E  c #7F7F7A",
"W  c #807F7E",
"Q  c #83817E",
"!  c #84837F",
"~  c #848480",
"^  c #878580",
"/  c #888682",
"(  c #8A8986",
")  c #8B8986",
"_  c #8F8D8E",
"`  c #908F8F",
"'  c #919090",
"]  c #919190",
"[  c gray57",
"{  c #9B9A9B",
"}  c #9C9B9B",
"|  c #9B9C9A",
" . c #9B9C9B",
".. c #9C9C99",
"X. c #9C9C9A",
"o. c #9C9D9A",
"O. c #9C9C9B",
"+. c #9D9B9C",
"@. c #9B9C9C",
"#. c gray61",
"$. c #9D9D9D",
"%. c #9E9D9D",
"&. c #9F9E9E",
"*. c #A0A0A0",
"=. c #A1A0A0",
"-. c #A4A5A3",
";. c #A4A3A4",
":. c #A5A5A5",
">. c #A5A6A4",
",. c #A5A6A5",
"<. c #A6A6A4",
"1. c #A6A6A5",
"2. c #A6A7A5",
"3. c gray65",
"4. c #A6A6A7",
"5. c #A8A8A7",
"6. c #A9A8A8",
"7. c #AAA9A9",
"8. c #AAAAAA",
"9. c #ABABAA",
"0. c #ACABAA",
"q. c #ACABAB",
"w. c #ABACAA",
"e. c #ACACAA",
"r. c #ACACAB",
"t. c #ADACAB",
"y. c #ACACAC",
"u. c #B1B0B0",
"i. c #B1B1B0",
"p. c #B2B1B0",
"a. c #B2B1B1",
"s. c #B2B2B0",
"d. c gray72",
"f. c #B9B8B8",
"g. c #B9B9B8",
"h. c #B9B9B9",
"j. c #BBBBBB",
"k. c #BCBCBC",
"l. c #BDBCBC",
"z. c gray74",
"x. c #BFBEBE",
"c. c gray75",
"v. c #C0BEBF",
"b. c #C1C0C0",
"n. c #C1C1C1",
"m. c #C3C3C2",
"M. c #C3C3C3",
"N. c #C4C3C2",
"B. c #C4C3C3",
"V. c #C3C4C2",
"C. c #C4C4C3",
"Z. c #C5C5C5",
"A. c gray78",
"S. c #C8C8C8",
"D. c gray79",
"F. c #CACAC9",
"G. c #CACACA",
"H. c #CBCACA",
"J. c #CBCBCB",
"K. c gray80",
"L. c #CDCDCD",
"P. c #CECECE",
"I. c #CECFCE",
"U. c #CECECF",
"Y. c gray81",
"T. c #D0D0D0",
/* pixels */
"U U U Q / ! ^                                                                                                 ) ) ~ U E E U E E ",
"S S G K J z f                                                                                                 y f j A S G G G G ",
"m.m.m.V.5.C y                                                                                                 e - V t.V.m.V.M.V.",
"L.L.L.L.y.j f                                                                                                 z : h i.L.K.K.K.K.",
"L.L.L.L.y.y =                                                                                                 j 2 h i.U.L.L.L.L.",
"Y.T.Y.Y.t.t #                                                                                                 4 # h a.L.L.L.L.L.",
"L.L.T.Y.t.e #                                                                                                 4 X y i.U.L.L.L.L.",
"T.Y.Y.T.w.e #                                                                                                 4 X h i.L.L.L.L.L.",
"Y.Y.T.T.9.e =                                                                                                 4 X f s.L.L.L.L.L.",
"Y.Y.T.T.9.e X                                                                                                 : O y s.U.L.L.L.i.",
"D.L.L.L.9.e X                                                                                                 8 O h i.U.L.L.C.L ",
"s.L.L.L.9.e =                                                                                                 2 X y i.L.L.L.9.f ",
"5.L.L.Y.0.8 =                                                                                                 2 X f i.L.L.L.&.4 ",
"2.L.L.L.0.t X                                                                                                 2 X h a.U.L.L.@.# ",
"2.L.L.Y.9.8 #                                                                                                 4 X f i.L.L.L.@.1 ",
"2.Y.L.L.0.t X                                                                                                 4 X f i.U.L.L.@.1 ",
"2.U.L.U.0.0 O                                                                                                 8 X y a.U.L.U...= ",
"2.U.L.U.0.0 =                                                                                                 2 = y i.U.L.U.| = ",
"2.L.L.U.0.t O                                                                                                 : X h s.L.L.L.| # ",
"2.L.L.U.0.8 =                                                                                                 8 X i u.L.L.L.@.# ",
"2.Y.L.Y.9.t X                                                                                                 2 X f i.Y.L.U.&.# ",
"2.L.L.L.9.8 =                                                                                                 : X f i.L.L.U.@.- ",
"2.L.L.L.0.e O                                                                                                 8 X f i.Y.L.L.&.# ",
"4.U.L.L.9.e =                                                                                                 2 # y i.L.L.L.| # ",
"4.U.K.U.9.q X                                                                                                 4 X y s.L.L.U...: ",
"4.U.L.U.9.q O                                                                                                 : X h s.U.L.L.&.= ",
"<.L.L.U.0.e =                                                                                                 8 X y i.U.L.L.| # ",
"<.U.L.L.0.t O                                                                                                 2 X f i.U.L.L.@.# ",
"<.U.L.U.0.0 O                                                                                                 2 X f i.L.L.Y...- ",
"<.U.L.L.t.0 =                                                                                                 2 X g i.Y.L.L...- ",
"<.U.L.U.0.0 O                                                                                                 4 X h i.L.L.L...- ",
"0.U.L.U.0.0 O                                                                                                 4 # y i.U.L.L.-.e ",
"l.L.L.U.0.0 =                                                                                                 8 X y i.U.L.L.g.Z ",
"D.L.L.L.0.t X                                                                                                 2 = y a.U.L.L.K.] ",
"L.L.L.L.9.8 X                                                                                                 : X h i.L.L.L.L.N.",
"L.L.L.L.0.t =                                                                                                 8 X y i.L.L.L.L.L.",
"L.K.D.L.0.8 O                                                                                                 2 X h i.K.K.K.K.K.",
"Z.g.j.L.t.0 O                                                                                                 : X i a.K.j.g.N.K.",
"g.| 2.D.0.0 #                                                                                                 8 X t i.S.;.} l.L.",
"f.` +.K.0.t X                                                                                                 2 O h i.S.} ` j.L.",
"f.` &.D.9.e #                                                                                                 4 X f a.S.} ` j.L.",
"z.=.7.K.9.e #                                                                                                 4 O y i.D.7.=.v.K.",
"A.v.m.K.w.e #                                                                                                 4 X h i.K.v.v.S.K.",
"K.L.K.U.w.8 #                                                                                                 8 O y i.L.L.L.L.L.",
"L.L.L.U.w.e #                                                                                                 2 X i s.U.L.L.L.L.",
"L.L.L.U.w.e #                                                                                                 2 X y s.U.L.L.L.L.",
"L.L.L.L.0.t X                                                                                                 2 X h s.L.L.L.L.L.",
"L.L.L.L.9.8 =                                                                                                 2 X i p.U.L.L.L.L.",
"L.L.U.U.w.8 #                                                                                                 4 X f u.L.L.L.L.L.",
"L.L.L.Y.t.8 X                                                                                                 4 # y s.U.L.L.L.L.",
"L.L.L.U.w.8 =                                                                                                 4 X h i.U.L.L.L.L.",
"L.L.L.U.t.t X                                                                                                 4 X y i.U.L.L.L.L.",
"L.L.L.Y.e.0 X                                                                                                 4 O t s.U.L.L.L.L.",
"L.L.L.L.w.y =                                                                                                 4 X s s.L.L.L.L.L.",
"L.L.L.Y.w.0 O                                                                                                 4 X h s.L.L.L.L.L.",
"L.L.L.L.w.8 O                                                                                                 4 O t s.U.L.L.L.L.",
"L.L.L.Y.0.0 =                                                                                                 8 O s s.L.L.L.L.L.",
"L.L.L.L.w.t X                                                                                                 2 X f s.U.L.L.L.L.",
"L.L.L.L.w.8 X                                                                                                 2 X h i.U.L.L.L.L.",
"L.L.L.L.t.t #                                                                                                 4 X y i.L.L.L.L.L.",
"L.L.L.L.w.8 =                                                                                                 8 X f i.L.L.L.L.L.",
"L.L.L.L.0.8 X                                                                                                 : X f i.L.K.K.K.K.",
"] ] ] ] P 4 X                                                                                                 : X 8 W ' ' ' ' ' ",
"b b M M n M M                                                                                                 B n j M M M M M M "
};
