/* XPM */
static char *_0ac7b58a1a945fbd432561951790870qn9u8qyDdztRHrUA[] = {
/* columns rows colors chars-per-pixel */
"64 64 144 2 ",
"   c None",
".  c #363534",
"X  c #3A3633",
"o  c #373835",
"O  c #393937",
"+  c #373738",
"@  c #3D3C3A",
"#  c #443B32",
"$  c #4F3F32",
"%  c #403E3D",
"&  c #41413F",
"*  c #4E4439",
"=  c #5B4632",
"-  c #554739",
";  c #5C4939",
":  c #6E4F2F",
">  c #664A32",
",  c #6D4F32",
"<  c #6E5032",
"1  c #745232",
"2  c #785332",
"3  c #71573D",
"4  c #73583E",
"5  c #79593B",
"6  c #434240",
"7  c #494745",
"8  c #474846",
"9  c #494845",
"0  c #4C4B49",
"q  c #504E4D",
"w  c #52514F",
"e  c #545353",
"r  c #5A5956",
"t  c #5E5D5C",
"y  c #745C46",
"u  c #7C6047",
"i  c #7C624A",
"p  c #62615F",
"a  c #636261",
"s  c #6A6A69",
"d  c #747473",
"f  c #7E7D79",
"g  c #895B32",
"h  c #9F6532",
"j  c #9B6B3C",
"k  c #A76B2F",
"l  c #BD752F",
"z  c #A46A32",
"x  c #A96C31",
"c  c #AC7039",
"v  c #B27031",
"b  c #B97B3E",
"n  c #D47F2D",
"m  c #C17630",
"M  c #C27A37",
"N  c #CB7C32",
"B  c #D27F30",
"V  c #8E7055",
"C  c #AF7D4E",
"Z  c #807F7E",
"A  c #D7812E",
"S  c #D8812E",
"D  c #D78333",
"F  c #D88434",
"G  c #D7873A",
"H  c #D9873A",
"J  c #D98A3D",
"K  c #B0865E",
"L  c #84827F",
"P  c #C58447",
"I  c #D68A41",
"U  c #DA8D43",
"Y  c #D98F48",
"T  c #DC9147",
"R  c #DD924B",
"E  c #C48A53",
"W  c #C88E56",
"Q  c #DE9652",
"!  c #DF9955",
"~  c #D5995E",
"^  c #DF9A5A",
"/  c #E09B5A",
"(  c #DE9D60",
")  c #E29F61",
"_  c #E1A164",
"`  c #E3A66B",
"'  c #E4A86F",
"]  c #E1A771",
"[  c #E5AA72",
"{  c #848482",
"}  c #888682",
"|  c #8B8986",
" . c #8C8C8A",
".. c #8F8D8E",
"X. c #908F8F",
"o. c #919190",
"O. c #9B9C9A",
"+. c #9B9C9B",
"@. c #9C9C9B",
"#. c #9B9C9C",
"$. c gray61",
"%. c #9D9D9D",
"&. c #9C9C9B",
"*. c gray64",
"=. c #A5A6A5",
"-. c #A6A6A4",
";. c #A6A7A5",
":. c gray65",
">. c #A5A5A4",
",. c #A8A8A7",
"<. c #ABABAA",
"1. c #AAAAAA",
"2. c #ACABAA",
"3. c #ABACAA",
"4. c #ACACAB",
"5. c #ADACAB",
"6. c #ACACAC",
"7. c #ACACAB",
"8. c #B0B0AF",
"9. c #B1B1B0",
"0. c #B1B0B0",
"q. c #B2B1B0",
"w. c #B2B1B1",
"e. c #B2B2B0",
"r. c #B1B1B0",
"t. c #B9B9B8",
"y. c gray75",
"u. c #BBBBBB",
"i. c #C0BEBF",
"p. c #C3C3C2",
"a. c #C3C3C3",
"s. c gray76",
"d. c #C4C3C2",
"f. c #C3C4C2",
"g. c #C4C4C3",
"h. c #C4C4C4",
"j. c #C8C8C8",
"k. c gray80",
"l. c #CDCDCD",
"z. c #CECECE",
"x. c #CECECF",
"c. c gray81",
"v. c #CDCDCD",
"b. c #D0D0D0",
/* pixels */
"f f Z f f f f f f f Z Z } L L                                                                 | | L f f L f f f f f f f f f f f ",
"t t t t t t t t t t t a p 7 6                                                                 & 6 7 r t t t t t t t t t t t t t ",
"s.d.s.s.d.f.d.d.d.d.d.d.,.0 &                                                                 @ O 0 3.f.d.s.s.s.f.f.f.f.s.f.f.f.",
"k.k.k.k.k.k.k.k.k.k.k.k.5.7 6                                                                 8 . 6 8.z.k.k.k.k.k.k.k.k.k.k.k.k.",
"k.k.k.z.k.z.k.z.z.z.z.z.5.& O                                                                 7 O 6 q.z.z.z.z.k.z.k.z.k.z.k.z.k.",
"z.k.z.k.k.z.z.z.z.b.z.z.5.@ .                                                                 @ . 6 q.z.k.z.k.z.k.z.k.z.k.z.k.z.",
"k.z.k.z.z.z.b.b.z.z.b.b.6.@ .                                                                 O . 6 q.z.z.k.z.k.z.k.z.k.z.k.z.k.",
"z.k.z.k.k.b.z.b.z.b.b.b.6.% .                                                                 O . 6 q.z.k.z.k.z.k.z.k.z.k.z.k.z.",
"{ { { }  .*.f.x.b.z.z.b.5.% .                                                                 @ . 6 9.z.v.v.v.z.y.@.} { { { { { ",
"@ @ @ 8 8 e d t.z.b.b.b.3.@ .                                                                 O . 6 9.z.v.v.v.q.a 7 @ % @ @ @ @ ",
"# # # # O O 6 d j.b.z.z.5.@ .                                                                 @ . & 9.z.v.v.a.s O . . X # # # # ",
"z c C K V * . 8 8.b.k.z.5.& .                                                                 O . & 9.z.v.v.3.6 . * g k x x x x ",
"I ^ ] ] ~ j # @ -.z.z.z.3.% .                                                                 @ . & 9.z.k.x.%.o X h A A A n n n ",
"` [ ` ! J N = O -.z.k.z.2.@ .                                                                 O . 6 q.z.k.x.O.o > N A S S S S S ",
"[ ) Y F A B < O -.z.k.z.<.% .                                                                 @ . 6 9.z.v.x.#.o 1 A A A A A G Q ",
"/ H F n A A < O -.z.z.z.<.& .                                                                 @ . 6 9.z.z.x.#.o 2 A A A A T ) ' ",
"F n n S S S 2 # -.x.z.z.<.@ .                                                                 O . 6 q.x.k.z.O.. 2 D S J ! ` [ ` ",
"n n S S S S , O -.x.k.x.6.% .                                                                 @ . @ q.z.z.z.O.. 2 D R _ ] ' / U ",
"n S S n D Y 4 O -.z.z.z.<.% .                                                                 O . 6 q.z.z.z.O.+ 5 ^ ` [ _ R H F ",
"S n S J ! ` y O -.z.k.z.2.@ .                                                                 @ . 6 q.z.z.z.#.o i [ ] / J F S n ",
"n F Y ) ' ` y . -.x.z.z.2.% .                                                                 O . & 9.z.v.x.#.. i _ R H S S S S ",
"U ^ ` ` / Y < O -.z.k.z.<.% .                                                                 @ . & q.z.v.z.%.+ 5 J F A S S S S ",
") ] ` Q G D 1 O -.x.z.z.2.@ .                                                                 O . & 0.z.v.z.#.. 2 A A S S S S F ",
"` / Y D D Y y @ -.z.z.z.6.% .                                                                 @ . & 0.x.v.z.#.. 2 A S S A S F R ",
"R H F U Q ^ 3 O ,.x.v.x.2.% .                                                                 O . 6 9.z.z.z.O.X 2 A A A D Y ^ ` ",
"F F R / Q I < O ;.c.v.x.6.@ .                                                                 @ . 6 9.z.v.z.O.o 2 A A G R _ ' _ ",
"H / / U H A < O =.x.v.x.5.% .                                                                 O . % q.z.v.z.O.o 2 D T ^ ' ' ^ J ",
"/ / U n A A , O =.x.v.x.5.% .                                                                 @ . 6 8.z.v.z.O.o 5 Q _ ' _ T G F ",
"U F S n S S , O =.x.k.z.3.% .                                                                 O . 6 9.z.z.z.O.o u ' ` ! J F J Q ",
"S n S n S B > O =.x.z.z.,.& .                                                                 @ . % 9.z.k.z.O.o u ( T F D J ^ ^ ",
"S n S n S v $ @ =.z.k.x.5.% .                                                                 O . & 9.x.z.z.O.O - b F J R / Q J ",
"N m m m x : X % 5.x.k.x.5.@ .                                                                 O . 6 8.x.z.x.=.O X : c E W P M l ",
"1 2 1 1 = X . t u.z.z.z.5.% .                                                                 @ . 6 q.z.k.z.t.e . X ; y 4 1 1 1 ",
". X . . . . q o.k.k.k.z.2.% .                                                                 O . % q.z.z.k.k.X.q O . . X X X X ",
"p p p p a d O.s.k.k.k.z.<.@ .                                                                 @ . 6 q.z.k.z.k.h.O.d p p p t p p ",
"5.8.6.5.0.u.k.k.z.k.z.z.<.& .                                                                 O . 6 q.z.z.k.z.k.j.u.0.6.8.0.5.0.",
"b.b.k.b.x.z.k.z.k.k.k.z.2.% .                                                                 @ . % q.z.k.k.k.k.k.z.z.z.k.z.z.z.",
"k.k.k.k.z.k.z.k.d.t.t.k.2.% .                                                                 O . 6 0.k.t.t.h.k.z.k.z.k.k.z.z.k.",
"b.k.k.k.k.z.k.k.t.O.-.k.2.% .                                                                 @ . 6 q.j.*.$.u.z.k.z.k.z.k.z.k.z.",
"k.k.k.b.z.k.x.k.t...$.k.2.& .                                                                 @ . % q.j.#...u.z.z.k.z.k.z.k.z.k.",
"k.k.b.k.k.k.k.k.t.X.%.k.,.@ .                                                                 O . 6 q.j.%.o.u.k.k.z.k.z.k.z.k.z.",
"k.b.k.k.k.b.k.b.y.%.<.k.3.% .                                                                 @ . 6 q.j.,.%.i.k.z.k.z.k.z.k.z.k.",
"k.k.k.k.b.k.k.k.j.y.s.k.3.% .                                                                 O . % q.k.i.i.j.k.k.z.k.z.k.z.k.z.",
"k.b.k.b.k.k.k.b.k.z.k.z.3.@ .                                                                 @ . 6 q.z.z.z.z.k.z.k.z.k.z.k.z.k.",
"b.k.b.k.k.k.k.k.z.k.z.z.5.% .                                                                 O . 6 q.z.k.z.k.z.k.z.k.z.k.z.k.z.",
"k.k.k.k.k.b.k.b.k.z.k.z.3.% .                                                                 @ . % q.z.z.k.z.k.z.k.z.k.z.k.z.k.",
"k.k.b.k.b.k.k.k.z.k.z.z.3.@ .                                                                 O . 6 q.z.k.z.k.z.k.z.k.z.k.z.k.z.",
"k.b.k.k.k.k.k.b.k.z.k.z.5.& .                                                                 @ . 6 q.z.z.k.z.k.z.k.z.k.z.k.z.k.",
"k.k.k.k.b.k.k.k.k.k.k.b.3.@ .                                                                 O . & 0.z.z.k.z.k.z.k.z.k.z.k.z.k.",
"k.b.k.b.k.k.k.b.k.b.k.b.3.% .                                                                 @ . % q.z.k.z.k.z.k.z.k.z.k.z.k.z.",
"b.k.k.k.b.k.b.k.k.k.k.b.5.% .                                                                 O . 6 q.z.z.k.z.k.z.k.z.k.z.k.z.k.",
"k.k.k.b.k.k.k.k.k.b.k.b.3.& .                                                                 @ . 6 q.z.k.z.k.z.k.z.k.z.k.z.k.z.",
"k.k.b.k.k.k.b.k.k.z.k.z.3.& .                                                                 O . & 0.z.z.k.z.k.z.k.z.k.z.k.z.k.",
"k.b.k.k.k.b.k.k.z.k.z.z.3.@ .                                                                 @ . & 0.z.k.z.k.z.k.z.k.z.k.z.k.z.",
"k.k.k.k.k.k.k.k.k.z.z.z.3.% .                                                                 O . & 0.z.z.k.z.k.z.k.z.k.z.k.z.k.",
"k.b.k.b.k.b.k.b.z.k.z.z.3.% .                                                                 @ . & 0.z.k.z.k.z.k.z.k.z.k.z.k.z.",
"z.k.z.k.z.k.z.k.k.z.z.z.3.% .                                                                 O . & 9.z.v.v.v.v.z.k.z.k.z.k.z.k.",
"k.z.k.z.k.z.k.z.z.k.k.z.3.@ .                                                                 @ . 6 9.z.v.v.v.v.k.z.k.z.k.z.k.z.",
"z.k.z.k.z.k.z.k.k.z.k.z.5.@ .                                                                 O . @ 9.z.v.v.v.v.z.k.z.k.z.k.z.k.",
"k.z.k.z.k.z.k.z.z.k.z.z.5.& .                                                                 @ . 6 9.z.v.v.v.v.k.z.k.z.k.z.k.z.",
"z.k.z.k.k.k.z.k.z.k.z.z.3.% .                                                                 @ . 6 q.z.z.v.v.v.k.z.k.z.z.k.z.k.",
"k.k.k.k.k.k.k.k.k.k.k.z.3.@ .                                                                 O . & 9.v.k.z.k.k.k.k.k.k.k.k.k.k.",
"o.o.o.o.o.o.o.o...o.o.o.f O .                                                                 O . @ f o...o.o.o.o.o.o.o.o.o.o...",
"9 9 9 9 9 9 9 9 9 8 9 9 7 7 9                                                                 9 7 7 8 8 8 0 7 9 7 7 7 7 7 7 7 0 "
};
