/* XPM */
static char *a2fd8e62f52e40c09a042023510c97f0orHT8qNedWk7O0b9[] = {
/* columns rows colors chars-per-pixel */
"64 64 154 2 ",
"   c None",
".  c #363534",
"X  c #3A3633",
"o  c #373835",
"O  c #3A3936",
"+  c #373738",
"@  c #3D3C3A",
"#  c #443B32",
"$  c #4D3E31",
"%  c #403E3D",
"&  c #41413F",
"*  c #4E4439",
"=  c #5B4632",
"-  c #554739",
";  c #5C4939",
":  c #6E4F2F",
">  c #654A31",
",  c #6D4F32",
"<  c #6E5032",
"1  c #67543F",
"2  c #745232",
"3  c #785332",
"4  c #71573D",
"5  c #73583E",
"6  c #7A5A3C",
"7  c #434240",
"8  c #494745",
"9  c #474846",
"0  c #494845",
"q  c #4C4B49",
"w  c #504E4D",
"e  c #52514F",
"r  c #545352",
"t  c #5A5956",
"y  c #5E5D5C",
"u  c #655443",
"i  c #745C45",
"p  c #7C6047",
"a  c #7C624A",
"s  c #61615F",
"d  c #626261",
"f  c #6A6A69",
"g  c #747473",
"h  c #7E7D79",
"j  c #8A5C31",
"k  c #9A6431",
"l  c #9B6B3C",
"z  c #A76B2F",
"x  c #AA6C2F",
"c  c #BD752F",
"v  c #A66B32",
"b  c #AA6D31",
"n  c #AC7039",
"m  c #B37031",
"M  c #BD7531",
"N  c #B97B3E",
"B  c #C97C2F",
"V  c #D37F2E",
"C  c #C17630",
"Z  c #C27934",
"A  c #CB7C32",
"S  c #C37F3E",
"D  c #D27F30",
"F  c #8E7055",
"G  c #AD7744",
"H  c #AF7841",
"J  c #AF7C4C",
"K  c #B07743",
"L  c #B97C42",
"P  c #A17E5B",
"I  c #807F7E",
"U  c #D7812E",
"Y  c #D8812E",
"T  c #CD813A",
"R  c #D78333",
"E  c #D88433",
"W  c #D78639",
"Q  c #D98639",
"!  c #DA8A3D",
"~  c #BC8247",
"^  c #AD8258",
"/  c #B3865B",
"(  c #B6895D",
")  c #84827F",
"_  c #C58447",
"`  c #D68A41",
"'  c #DA8D43",
"]  c #D98F48",
"[  c #DC9147",
"{  c #DD934C",
"}  c #C48A53",
"|  c #C88D54",
" . c #C88F59",
".. c #DE9552",
"X. c #DF9955",
"o. c #D5995E",
"O. c #DF9A5A",
"+. c #E09A57",
"@. c #E09B5B",
"#. c #DE9D60",
"$. c #E29F60",
"%. c #DCA269",
"&. c #E2A264",
"*. c #E3A66B",
"=. c #E4A96F",
"-. c #E1A771",
";. c #E5A972",
":. c #848382",
">. c #888682",
",. c #8B8986",
"<. c #8E8D8C",
"1. c #908F8F",
"2. c #90908F",
"3. c #919190",
"4. c #919190",
"5. c #9B9C9C",
"6. c #9C9C9C",
"7. c #9C9C9B",
"8. c gray64",
"9. c #A5A6A5",
"0. c #A6A7A6",
"q. c #A5A5A4",
"w. c #A8A8A7",
"e. c #ABABAA",
"r. c #AAAAAA",
"t. c #ACABAA",
"y. c #ABACAA",
"u. c #ACACAB",
"i. c #ACACAC",
"p. c #ACACAB",
"a. c #B0B0AF",
"s. c #B1B1B0",
"d. c #B1B0B0",
"f. c #B2B1B0",
"g. c #B2B1B1",
"h. c #B2B2B1",
"j. c #B1B1B0",
"k. c gray75",
"l. c #BBBBBB",
"z. c #C0BEBF",
"x. c #C3C3C2",
"c. c #C3C3C3",
"v. c #C3C2C2",
"b. c #C4C3C2",
"n. c #C3C4C2",
"m. c #C4C4C3",
"M. c #C4C4C4",
"N. c #C8C8C8",
"B. c gray80",
"V. c #CDCDCD",
"C. c #CECECE",
"Z. c gray81",
"A. c #CDCDCD",
"S. c #D0D0D0",
/* pixels */
"h h h h h h h h I h h I h h h h h h h I I ) ) )                                 ,.,.:.) h ) h h ) h h h h h h h h h h h h h h h ",
"y y y y y y y y y y y y y y y y y y y y s s 0 7                                 % 7 7 t t y y y y y y y y y y y y y y y y y y y ",
"v.v.v.v.b.v.n.n.z.b.b.b.b.b.z.b.v.v.b.v.m.w.q &                                 @ O w u.n.n.n.n.n.n.n.n.v.n.n.v.n.n.n.v.v.n.n.n.",
"B.B.B.B.B.B.B.B.B.B.B.B.B.B.B.B.A.A.A.B.Z.u.7 &                                 8 X & a.A.B.B.B.B.B.B.B.B.B.B.B.B.B.B.B.B.B.B.B.",
"B.A.A.A.A.A.A.A.A.A.A.A.A.A.A.A.A.A.A.A.A.y.& O                                 7 @ & h.C.A.A.A.A.A.A.A.A.A.A.A.A.A.A.A.B.A.A.A.",
"A.A.A.A.A.A.A.A.A.A.A.A.A.A.A.A.S.S.S.S.S.y.& .                                 @ . & a.C.A.A.A.A.A.A.A.A.A.A.A.A.A.A.A.B.A.A.A.",
"A.A.A.A.A.A.A.A.A.A.A.A.B.A.A.S.S.A.A.C.S.t.@ .                                 @ . 7 g.C.A.A.A.A.A.B.A.A.A.A.A.A.A.A.A.A.A.A.A.",
"A.A.A.A.A.A.A.A.A.A.A.A.A.A.S.S.C.S.S.S.S.y.% .                                 + . 7 g.C.A.A.A.A.A.A.A.A.A.A.A.A.A.A.A.A.A.A.A.",
"g.1.:.:.) ) :.:.:.:.:.:.:.<.8.k.Z.Z.Z.Z.Z.y.& .                                 % . & a.C.A.A.A.B.k.7.:.:.:.:.:.:.:.:.:.:.:.:.4.",
"r & @ @ @ @ @ @ @ @ % % 9 9 r g l.S.Z.Z.Z.y.@ .                                 @ X & a.C.A.A.A.a.f 7 @ @ @ @ # @ @ @ @ @ @ @ & ",
". . X # # # # # # # # # % + + 7 g N.Z.A.Z.y.@ .                                 @ . & a.A.A.A.M.f @ . . @ # # # # # # # # # @ . ",
". > k v v b b b b b b J / F * . 0 a.Z.A.A.y.& .                                 O X 7 h.A.A.A.t.& . * j v x z z b x b b H / P u ",
"> M V V U V V V V ` @.*.-.o.l # @ 0.A.A.A.t.& .                                 @ . & h.C.A.A.6.O # k A U U B U V V W ..&.-.%.~ ",
"k V U U Y Y Y Q ..*.;.=.+.! A = O 9.Z.A.A.t.% .                                 . . 7 h.C.A.A.7.o > A Y Y Y Y Y Y ' #.;.;.&.' R ",
"b Y Y Y Y Y ' @.-.;.$.] E V U : @ 0.C.A.A.i.@ .                                 @ . % a.C.A.C.6.. 2 Y U U U U R X.*.;.=.{ ! R Y ",
"x Y Y V Q ..*.-.*.+.! V R U V : + w.C.A.A.y.% .                                 @ . % g.C.A.C.6.+ 3 U Y U R [ &.=.=.@.' R Y Y Y ",
"b Y R ' &.=.=.@.[ E V V Y Y D < % q.S.B.C.t.% .                                 @ . 7 a.Z.B.C.5.O 3 R U ! O.=.-.*.{ Q Y Y U Y Y ",
"m ! X.*.;.*.{ ! E Y V V Y Y V < O q.C.B.C.t.% .                                 O X 7 h.Z.B.C.5.. 3 R { &.;.=.O.' E Y Y U Y Y Y ",
"J $.;.;.@.[ E R Y Y V V V Y { i @ w.B.C.A.t.% .                                 @ . & h.C.B.A.5.. 6 O.*.;.&.[ ! R V Y Y U U Y ! ",
"( ;.&.{ ! Y U U Y Y V V ! +.*.j . w.C.B.A.t.% .                                 O . & a.Z.B.Z.5.. p ;.;.O.! E U Y Y Y Y U Q { &.",
"( @.! E U U U U V Y Q [ $.-.%.i + 0.S.A.A.t.% .                                 O . % a.Z.A.A.7.. a &.{ E U U Y Y V Y Y ! @.*.=.",
"N ! U U U U U U V ' @.*.-.@.] < + 0.A.A.C.t.% .                                 @ . 7 a.A.A.Z.7.. i ! E R U U Y V E E { &.=.&.{ ",
"b U Y Y Y U U Y ] $.=.*.+.Q R , @ w.A.A.A.t.@ .                                 + . 7 a.Z.A.A.6.O 3 U U Y Y Y Y Y ' @.=.=.+.[ E ",
"b Y Y Y Y Y ! X.*.*.@.' R R [ i O 0.A.A.S.i.% .                                 @ X & g.A.A.Z.7.O 3 U U Y U U R { &.=.&.{ Q E ' ",
"n Y Y Y Q { %.*.&.{ ! E ' ..X.4 + 0.A.A.A.i.% .                                 @ . & g.A.A.Z.7.. 3 U U U R [ O.=.*.+.' V Q { @.",
"b Y Y ! O.*.*.+.' E R { O.X.` < @ 0.Z.A.A.r.% .                                 O . 7 a.A.A.A.7.o 3 V U R ..&.-.&.{ Q Q ' +.@.[ ",
"m Q { *.;.&.{ Q R ' +.+.[ R R , O 0.A.A.C.i.% .                                 O . 7 a.A.A.Z.6.. 3 U [ O.=.=.X.! E Q { +...! V ",
"H @.*.*.+.' R R { +...! U U V , O 9.Z.A.A.t.% .                                 @ X & g.A.A.A.6.. 6 X.&.=.%.[ R E [ +.+.[ Q V V ",
"( =.&.{ E R ' +.+.' E Y Y Y U , O 0.A.A.Z.y.% .                                 @ . % a.Z.B.C.7.o p *.*.X.! E ! ..+.{ ! Y Y Y Y ",
"^ +.` R ! { +.+.! E Y Y D Y V > O 0.Z.A.A.y.% .                                 O . & a.Z.B.C.7.o i O.{ E R ' O.O.[ E Y V Y Y Y ",
"j T R ] X.X.[ E Y Y Y Y Y Y m $ @ 9.A.A.C.t.% .                                 @ . & a.C.B.Z.7.O - N R Q ..+...! R Y Y Y V Y V ",
"* j L  .| S C C C C C C C z , X & y.A.A.C.y.% .                                 @ X 7 a.Z.B.A.9.@ . < n |  ._ Z C C C C C C M j ",
"X # 1 i 2 2 2 3 2 3 2 2 : = X . t k.A.A.A.y.& .                                 O . 7 f.Z.B.A.l.r . X > i i 2 2 3 2 3 2 2 2 > # ",
"7 O . X o X o X X X X X . . X e 4.N.A.A.C.y.% .                                 O . 7 f.Z.Z.A.N.1.w + . . . X X X X X X X X . . ",
":.f s s s s s s s y s s s s g 7.N.B.A.A.C.y.@ .                                 O . 7 d.B.B.Z.Z.M.4.g d s d s s y d d d d d d f ",
"c.l.a.i.a.y.a.p.a.p.a.y.a.a.l.B.B.A.A.A.A.t.% .                                 O . 7 d.Z.B.B.B.Z.B.l.d.i.d.i.i.u.u.a.u.u.a.u.h.",
"B.A.A.A.Z.B.Z.Z.Z.Z.Z.B.A.A.A.A.A.A.B.B.B.t.% .                                 O . 7 f.B.B.B.B.Z.B.B.Z.Z.B.Z.Z.B.Z.B.Z.Z.Z.B.Z.",
"A.A.A.A.Z.B.B.B.B.B.Z.B.A.A.A.A.A.M.l.l.B.t.@ X                                 O . 7 f.B.l.l.M.B.Z.B.Z.Z.B.B.Z.B.Z.B.Z.B.Z.B.B.",
"A.A.A.A.Z.B.B.B.B.Z.B.B.A.B.A.A.B.l.7.8.B.t.& .                                 @ . 7 f.N.8.7.l.B.B.B.B.B.B.B.B.Z.B.B.B.Z.B.Z.B.",
"A.A.A.A.B.B.Z.Z.B.B.B.Z.A.A.A.A.B.l.1.7.N.t.% .                                 X . 7 f.M.7.1.l.B.Z.Z.B.B.Z.Z.B.Z.B.Z.B.B.B.Z.B.",
"A.A.A.A.A.A.A.A.A.A.A.A.A.A.A.A.B.l.1.6.B.t.% .                                 @ . & g.N.6.4.l.B.B.B.Z.B.Z.Z.B.B.B.Z.B.B.B.Z.B.",
"A.A.A.A.A.A.A.A.A.A.A.A.A.A.A.A.B.l.6.r.B.t.% .                                 O . 7 a.N.w.8.z.B.Z.B.B.B.B.B.B.B.Z.B.B.Z.B.Z.B.",
"A.A.A.A.A.A.A.A.A.A.A.A.A.A.A.A.B.N.z.v.A.y.@ .                                 + . 7 a.B.z.z.N.B.Z.Z.B.Z.B.B.Z.B.B.Z.Z.B.Z.B.B.",
"A.A.A.A.A.A.A.A.A.A.A.A.A.A.A.A.B.B.B.A.A.y.% .                                 @ X & g.C.A.B.A.B.B.B.B.Z.B.B.Z.Z.B.B.B.B.B.B.Z.",
"A.A.A.A.A.A.A.A.A.A.A.A.A.A.A.A.A.A.A.A.C.y.% .                                 @ . 7 g.C.A.A.A.Z.Z.B.B.Z.B.B.B.B.B.B.Z.Z.Z.B.B.",
"A.A.A.A.A.A.A.A.A.A.A.A.A.A.A.A.A.A.A.A.C.y.% .                                 O . & g.C.A.A.A.B.B.B.Z.B.B.Z.B.Z.Z.B.B.B.B.B.Z.",
"A.A.A.A.A.A.A.A.A.A.A.A.A.A.A.A.A.A.A.A.A.y.% .                                 O . & h.C.A.A.A.B.B.B.Z.B.Z.B.Z.B.B.Z.B.B.B.B.Z.",
"A.A.A.A.A.A.A.A.A.A.A.A.A.A.A.A.A.A.A.A.Z.y.% .                                 @ . % a.C.A.A.A.Z.Z.B.B.B.Z.B.B.B.Z.B.B.Z.Z.B.B.",
"A.A.A.A.A.A.A.A.A.A.A.A.A.A.A.A.A.A.A.Z.A.y.@ .                                 O . & g.A.A.A.A.B.B.B.Z.B.Z.B.B.B.Z.B.B.Z.Z.B.B.",
"A.A.A.A.A.A.A.A.A.B.A.A.A.A.A.A.A.A.A.A.Z.y.& .                                 @ . 7 g.S.A.A.A.B.Z.B.B.B.Z.B.Z.B.B.Z.B.B.B.B.Z.",
"A.A.A.A.A.A.A.A.A.A.A.A.A.A.A.A.A.A.A.A.Z.y.% .                                 O . 7 g.A.A.A.A.Z.B.Z.B.B.B.Z.B.Z.Z.B.B.B.B.B.Z.",
"A.A.A.A.A.A.A.A.A.A.A.A.A.A.A.A.A.A.A.A.A.y.% .                                 O . 7 g.A.A.A.A.B.B.Z.B.Z.B.B.B.B.B.B.Z.Z.Z.B.B.",
"A.A.A.A.A.A.A.A.A.A.A.A.A.A.A.A.A.A.A.A.A.y.@ .                                 @ . % g.C.A.A.A.B.Z.B.B.Z.B.B.Z.Z.B.B.B.B.B.B.Z.",
"A.A.A.A.A.A.A.A.A.A.A.A.A.A.A.A.A.A.A.A.A.y.% .                                 O . & g.C.A.A.A.B.B.Z.B.Z.B.B.Z.B.B.Z.Z.B.Z.B.B.",
"A.A.A.A.A.A.A.A.A.A.A.A.A.A.A.B.A.A.A.A.Z.y.% X                                 @ . 7 g.C.A.A.A.Z.Z.B.B.B.B.B.B.B.Z.B.B.Z.B.Z.B.",
"A.A.A.B.A.A.A.A.A.A.A.A.A.A.A.A.A.A.A.A.A.y.& .                                 O . 7 a.A.A.A.A.B.B.B.Z.B.Z.Z.B.B.B.Z.B.B.B.Z.B.",
"A.A.A.A.A.A.A.A.A.A.A.A.A.A.A.A.A.A.A.A.A.y.@ .                                 @ . % g.A.A.A.A.A.A.A.A.A.A.A.A.Z.B.B.Z.B.B.B.Z.",
"A.A.A.A.A.A.A.A.A.A.A.A.B.A.A.A.A.A.A.A.A.y.& .                                 O . 7 g.A.A.A.A.A.A.A.A.A.A.A.A.Z.B.B.Z.B.Z.B.B.",
"A.A.A.A.A.A.A.A.A.A.A.A.A.A.A.A.A.A.A.A.A.y.% .                                 O . & h.A.A.A.A.A.A.A.A.A.A.A.A.B.B.B.B.Z.B.Z.B.",
"B.A.A.A.A.A.A.A.A.A.A.A.A.A.A.A.A.A.A.A.C.y.% .                                 @ X 7 a.A.A.A.A.A.A.A.A.A.A.A.A.B.Z.Z.B.B.B.Z.B.",
"A.A.A.A.A.A.A.A.A.A.A.A.A.A.A.A.A.A.A.A.A.y.@ .                                 @ . % a.C.A.A.C.A.A.A.A.A.A.A.A.B.Z.C.C.B.Z.B.B.",
"B.B.B.B.B.A.B.B.B.B.B.B.B.B.B.B.B.B.B.B.A.t.@ .                                 O . & a.A.B.B.A.B.B.B.B.A.C.B.B.B.B.B.C.B.B.B.B.",
"4.4.2.2.4.4.2.4.2.4.4.4.2.4.4.4.2.4.4.4.4.h @ .                                 @ . @ I 1.4.4.4.4.4.1.2.4.4.2.4.1.2.4.4.2.2.2.2.",
"0 0 0 0 0 0 0 0 0 0 0 0 0 0 0 0 0 9 0 0 8 8 8 8                                 0 8 8 8 0 8 0 0 0 0 0 8 8 8 0 8 8 0 0 0 0 0 0 0 "
};
