/* XPM */
static char *_a408e38a4c247fb81f46af443ca30d8FgTwlDrQQdFZlKbS[] = {
/* columns rows colors chars-per-pixel */
"63 64 134 2 ",
"   c None",
".  c #363534",
"X  c #3A3733",
"o  c #373835",
"O  c #393937",
"+  c #373738",
"@  c #3D3C3A",
"#  c #433A32",
"$  c #4F3F32",
"%  c #403E3D",
"&  c #41413F",
"*  c #4E4439",
"=  c #5B4632",
"-  c #554739",
";  c #5C4939",
":  c #6E4F2F",
">  c #664A32",
",  c #6D4F32",
"<  c #6D5032",
"1  c #745233",
"2  c #785332",
"3  c #71573D",
"4  c #73583F",
"5  c #79593B",
"6  c #434240",
"7  c #494744",
"8  c #474846",
"9  c #494845",
"0  c #4C4B49",
"q  c #504E4D",
"w  c #52514F",
"e  c #545353",
"r  c #5A5956",
"t  c #5E5D5C",
"y  c #745C45",
"u  c #7C6047",
"i  c #7C624A",
"p  c #63625F",
"a  c #646362",
"s  c #6A6A69",
"d  c #747473",
"f  c #7E7D79",
"g  c #895B32",
"h  c #9F6532",
"j  c #9B6B3C",
"k  c #A76B2F",
"l  c #AC7039",
"z  c #B27031",
"x  c #B97B3E",
"c  c #D67F2E",
"v  c #CB7C32",
"b  c #D27F30",
"n  c #8E7055",
"m  c #807F7E",
"M  c #D6812E",
"N  c #D8812E",
"B  c #D68333",
"V  c #D88535",
"C  c #D9873B",
"Z  c #DA8A3E",
"A  c #84827F",
"S  c #D78B41",
"D  c #DA8E45",
"F  c #D98F48",
"G  c #DC924A",
"H  c #DE9652",
"J  c #DE9955",
"K  c #D5995E",
"L  c #DF9A5A",
"P  c #E19D5D",
"I  c #DE9D60",
"U  c #E1A265",
"Y  c #E2A56B",
"T  c #E5A86F",
"R  c #E5A971",
"E  c #868582",
"W  c #888682",
"Q  c #8B8986",
"!  c #8E8D8C",
"~  c #908F8F",
"^  c #929191",
"/  c #9B9C9C",
"(  c gray61",
")  c #9D9D9D",
"_  c #9C9C9B",
"`  c gray64",
"'  c #A4A5A3",
"]  c #A5A6A4",
"[  c #A5A6A5",
"{  c #A6A6A4",
"}  c #A6A6A5",
"|  c #A6A7A5",
" . c gray65",
".. c #A6A6A7",
"X. c #A3A2A2",
"o. c #A8A8A7",
"O. c #AAAAAA",
"+. c #ABABAA",
"@. c #ACABAA",
"#. c #ACABAB",
"$. c #ABACAA",
"%. c #ACACAA",
"&. c #ACACAB",
"*. c #ADACAB",
"=. c #ACACAC",
"-. c #ABACAA",
";. c #B0B0AF",
":. c #B1B0B0",
">. c #B1B1B0",
",. c #B2B1B0",
"<. c #B2B1B1",
"1. c #B2B2B0",
"2. c #B1B1B0",
"3. c #B9B9B8",
"4. c #BDBCBC",
"5. c gray75",
"6. c #BCBBBB",
"7. c #C0BEBF",
"8. c gray76",
"9. c #C3C3C2",
"0. c #C3C3C3",
"q. c #C4C3C2",
"w. c #C3C4C2",
"e. c #C4C4C3",
"r. c #C4C4C4",
"t. c #C8C8C8",
"y. c gray80",
"u. c #CDCDCD",
"i. c #CECECE",
"p. c #CECFCE",
"a. c #CECECF",
"s. c gray81",
"d. c #CDCDCD",
"f. c #D0D0D0",
/* pixels */
"f f f f m m m A A A W                                                                                 Q Q E f f f f f A f f f ",
"t t t t t t r p p 7 6                                                                                 & & 8 r t t t t t t t t ",
"8.0.0.8.r.e.r.r.o.q &                                                                                 @ X 0 *.q.8.w.8.w.w.8.w.",
"y.y.y.y.y.y.y.y.*.& &                                                                                 8 O 6 ,.y.y.y.y.y.y.y.y.",
"y.y.y.y.f.f.y.y.=.& O                                                                                 6 @ 6 ,.s.y.y.y.s.y.y.y.",
"y.f.y.f.y.f.f.f.=.@ X                                                                                 @ o 6 ,.y.s.s.y.y.y.y.s.",
"y.f.f.f.f.f.f.f.=.@ .                                                                                 O . 6 ;.s.y.y.s.y.y.y.y.",
"y.f.y.f.f.y.y.f.=.@ X                                                                                 @ . % ,.s.y.s.y.y.s.s.y.",
"! ' w.y.s.s.s.f.=.% X                                                                                 @ . 6 1.y.y.s.y.y.8.) E ",
"8 e d 6.s.s.s.f.$.% .                                                                                 O . 6 ,.a.y.y.y.,.s 6 @ ",
"O O & d t.s.s.s.$.& .                                                                                 @ . 6 ,.a.s.s.r.s O . . ",
"n * o 8 1.y.y.s.$.@ .                                                                                 O o 6 ,.p.y.y.+.6 . * g ",
"K j # @ | y.y.y.=.@ X                                                                                 @ . 6 ,.y.y.a./ @ # h v ",
"Z v = O | s.s.s.=.@ .                                                                                 O . 6 ,.y.y.y./ . > v c ",
"M M , O ..y.y.f.=.% .                                                                                 @ . 6 ,.y.y.p./ + 2 M N ",
"c M : @ ..f.y.y.=.@ .                                                                                 O . 6 ,.a.a.p._ . 2 c N ",
"M M : O | a.u.y.#.% X                                                                                 @ . & ,.a.y.f./ . 2 b M ",
"M M < O | a.y.p.#.@ .                                                                                 O . 6 ,.y.y.y./ @ 2 B G ",
"B F 3 O | y.y.p.=.% .                                                                                 @ . 6 ,.p.a.y.) . 5 P T ",
"J Y u o | a.a.p.=.@ +                                                                                 O . 6 ,.p.y.f.) . u R T ",
"R U y O ..f.u.y.+.@ X                                                                                 @ . % ,.y.y.a._ . i U G ",
"L F , O ..y.u.f.=.% .                                                                                 @ o 6 ,.a.y.y._ @ 5 Z B ",
"C B 1 @ { f.u.y.=.@ X                                                                                 O . 6 ;.y.p.a._ . 2 M N ",
"B G 4 O ..y.u.f.=.@ +                                                                                 @ . % ,.y.y.a._ o 2 M N ",
"L L 3 O ..y.s.y.*.% X                                                                                 O . 6 ,.a.y.p./ O 2 M M ",
"H S < O ..f.y.f.*.@ .                                                                                 O . 6 ,.p.y.p./ o 2 c c ",
"B M , O | y.y.s.=.@ .                                                                                 @ . 6 ,.y.a.a.) o 2 B D ",
"B B , O | p.y.y.=.% .                                                                                 @ . 6 ,.a.y.p.) . 5 H U ",
"M M : O { y.s.s.=.@ .                                                                                 @ . & ,.y.u.u._ o y T Y ",
"M M : O | s.y.y.=.% .                                                                                 O . 6 ,.y.u.u._ o y P G ",
"B z * O ..s.y.s.=.% X                                                                                 @ X 6 ;.u.u.u._ o - x B ",
"k > . @ $.y.y.s.+.@ .                                                                                 O X & ;.s.u.u.{ @ X 2 l ",
"= X . t 4.y.y.y.=.@ +                                                                                 @ . & ,.a.y.y.3.e . X > ",
"o O q ^ y.y.s.s.=.@ X                                                                                 O . & ,.y.y.f.y.~ q O + ",
"p d _ q.y.y.y.f.=.@ .                                                                                 @ . & ,.s.y.y.y.0.^ d a ",
"=.6.y.y.y.y.y.s.=.% .                                                                                 O . 6 ,.y.y.f.y.f.y.6.;.",
"y.s.y.y.y.y.y.y.*.% X                                                                                 @ . % ,.y.y.y.y.y.y.y.a.",
"y.s.s.y.0.3.6.t.#.@ .                                                                                 @ o 6 ,.y.6.6.r.y.y.y.y.",
"y.s.y.y.6./ ..t.=.@ .                                                                                 O . & ,.t.` ( 6.y.a.y.a.",
"y.y.y.s.3.~ ) y.*.% .                                                                                 @ . % ,.t._ ~ 6.a.y.a.y.",
"s.y.y.s.3.~ ) y.$.@ X                                                                                 @ . 6 ,.t._ ~ 6.y.y.a.y.",
"s.y.y.s.4.X.#.t.$.& .                                                                                 O . 6 ,.t...X.7.y.a.y.a.",
"y.y.y.y.t.8.7.u.$.@ .                                                                                 @ . 6 ,.y.7.7.t.y.y.a.y.",
"y.s.s.y.y.y.y.y.=.% .                                                                                 O o 6 ,.y.a.y.y.a.a.y.a.",
"s.y.y.y.y.s.y.s.$.@ X                                                                                 @ . % ,.f.y.y.y.s.y.y.y.",
"y.y.s.s.y.y.y.s.$.& .                                                                                 O . 6 ,.y.s.s.y.y.y.a.s.",
"y.s.y.y.s.y.y.s.$.@ .                                                                                 @ . & ,.u.y.y.s.y.y.y.y.",
"y.y.s.y.y.y.y.s.=.@ X                                                                                 O X % ,.s.y.s.y.y.s.s.y.",
"s.s.y.y.y.y.s.s.*.% X                                                                                 @ . % ,.a.y.y.y.f.y.f.y.",
"y.y.y.s.s.y.y.f.*.@ .                                                                                 O . 6 ,.y.a.y.y.y.y.y.y.",
"y.y.y.s.s.y.y.y.$.& o                                                                                 @ . 6 ,.a.y.y.a.f.y.y.y.",
"s.s.y.y.y.y.s.s.$.@ o                                                                                 O . 6 ,.a.y.p.y.y.f.y.f.",
"y.y.s.y.y.s.y.s.=.@ X                                                                                 @ . % ,.y.y.y.y.y.y.f.y.",
"y.s.y.y.y.y.y.s.=.@ .                                                                                 @ o 6 ,.f.f.y.f.y.y.y.y.",
"y.y.s.s.s.s.y.s.=.% .                                                                                 O . & ,.y.y.y.y.f.y.y.y.",
"s.y.y.y.y.y.y.s.$.% .                                                                                 @ . % ,.y.f.y.y.y.f.y.f.",
"u.u.u.u.u.u.u.u.$.% .                                                                                 @ . 6 ,.a.y.y.y.f.y.f.y.",
"u.u.u.u.u.u.u.s.$.% .                                                                                 @ . 6 ,.p.f.y.y.y.y.y.y.",
"u.u.u.u.u.u.u.u.$.% o                                                                                 @ . 6 ,.y.y.f.y.f.y.y.y.",
"u.u.u.u.u.u.u.s.$.% o                                                                                 X o 6 ,.a.y.y.y.y.f.y.f.",
"u.u.u.u.u.u.u.u.*.@ .                                                                                 @ . & ,.y.y.s.y.y.y.y.y.",
"u.u.y.y.u.u.u.u.#.@ o                                                                                 O X % ,.y.u.y.y.u.y.y.y.",
"^ ~ ~ ~ ~ ^ ^ ~ f + o                                                                                 O o O m ~ ^ ^ ^ ^ ^ ^ ^ ",
"9 9 9 9 9 8 8 9 7 9 9                                                                                 0 7 7 9 9 9 9 9 9 8 8 0 "
};
