/* XPM */
static char *_15d1654f8614694c36bdff200a837dfie3M71vlrYkUYCwL[] = {
/* columns rows colors chars-per-pixel */
"64 64 158 2 ",
"   c None",
".  c #35332E",
"X  c #3A362F",
"o  c #363534",
"O  c #3A3632",
"+  c #373835",
"@  c #3A3936",
"#  c #373738",
"$  c #3D3C3A",
"%  c #443B32",
"&  c #4D3E31",
"*  c #403E3D",
"=  c #41413F",
"-  c #4E4439",
";  c #5C4632",
":  c #554739",
">  c #5C4939",
",  c #6E4F2F",
"<  c #654A31",
"1  c #6D4F32",
"2  c #6E5032",
"3  c #67543F",
"4  c #745232",
"5  c #785332",
"6  c #71573D",
"7  c #73583E",
"8  c #7A5A3C",
"9  c #434240",
"0  c #494745",
"q  c #474846",
"w  c #494845",
"e  c #4C4B49",
"r  c #504E4D",
"t  c #52514F",
"y  c #545453",
"u  c #5A5956",
"i  c #5E5D5C",
"p  c #655443",
"a  c #745C45",
"s  c #7C6047",
"d  c #7C624A",
"f  c #61615F",
"g  c #626261",
"h  c #6A6A69",
"j  c #737372",
"k  c #7E7D79",
"l  c #8B5D32",
"z  c #9A6431",
"x  c #9B6B3C",
"c  c #A56B2F",
"v  c #AA6C2F",
"b  c #BD752F",
"n  c #A56A31",
"m  c #AA6D31",
"M  c #A66F39",
"N  c #AC7039",
"B  c #B37031",
"V  c #BD7531",
"C  c #B97B3E",
"Z  c #C97C2F",
"A  c #D37F2E",
"S  c #C17630",
"D  c #C27934",
"F  c #CB7C32",
"G  c #C37F3E",
"H  c #D27F30",
"J  c #8E7055",
"K  c #AD7744",
"L  c #AF7841",
"P  c #AD7A4A",
"I  c #B07743",
"U  c #B97C42",
"Y  c #A17E5B",
"T  c #807E7C",
"R  c #D7812E",
"E  c #D8812E",
"W  c #CD813A",
"Q  c #D78333",
"!  c #D88433",
"~  c #D78639",
"^  c #D98639",
"/  c #DA8A3D",
"(  c #BC8247",
")  c #AD8053",
"_  c #AD8258",
"`  c #B2875C",
"'  c #B6895D",
"]  c #84827F",
"[  c #C58447",
"{  c #D68A41",
"}  c #DA8D43",
"|  c #D98F48",
" . c #DC9147",
".. c #DD934C",
"X. c #C48A53",
"o. c #C88D54",
"O. c #C88F59",
"+. c #DE9552",
"@. c #DF9955",
"#. c #D5995E",
"$. c #DF9A5A",
"%. c #E09A57",
"&. c #E09B5B",
"*. c #DE9D60",
"=. c #E29F60",
"-. c #DCA269",
";. c #E2A264",
":. c #E3A66B",
">. c #E4A96F",
",. c #E1A771",
"<. c #E5A972",
"1. c #848382",
"2. c #888784",
"3. c #8B8986",
"4. c #8E8D8C",
"5. c #908F8F",
"6. c #90908F",
"7. c #919190",
"8. c #9C9C9B",
"9. c #A5A6A5",
"0. c #A7A7A6",
"q. c #A5A5A4",
"w. c #A8A8A7",
"e. c #ABABAA",
"r. c #ACABAA",
"t. c #ABACAA",
"y. c #ACACAB",
"u. c #ACACAC",
"i. c #ACACAB",
"p. c #B0B0AF",
"a. c #B1B1B0",
"s. c #B1B0B0",
"d. c #B2B1B0",
"f. c #B2B1B1",
"g. c #B2B2B1",
"h. c #B2B1B0",
"j. c gray75",
"k. c #BCBBBB",
"l. c #C0BEBF",
"z. c #C3C2C2",
"x. c #C3C3C2",
"c. c #C3C3C3",
"v. c #C3C2C3",
"b. c #C4C3C2",
"n. c #C3C4C2",
"m. c #C4C4C3",
"M. c #C5C4C4",
"N. c #CACAC9",
"B. c #CBCBCA",
"V. c #C8C8C8",
"C. c #CBCBCC",
"Z. c gray80",
"A. c #CDCDCD",
"S. c #CDCDCC",
"D. c #CECECE",
"F. c gray81",
"G. c #CDCDCD",
"H. c #D0D0D0",
/* pixels */
"k k T k T T k k T k k T T T T T k k k k k k k k ] 2.] ]                 3.3.1.k k k T T T T k k k k k k k k k k k k k k k k k k ",
"i i i i i i i i i u i i u i i i i i i i i u i i g f 0 =                 = 9 9 u i i i i i i i i i i i i i i i i i i i i i i i i ",
"z.z.z.z.z.z.c.c.z.z.z.z.z.z.z.z.c.c.c.c.c.c.c.c.m.e.e =                 $ @ e u.c.c.c.c.n.n.n.n.j.n.n.n.c.x.c.n.n.j.n.n.n.n.n.n.",
"S.C.C.C.S.C.C.C.Z.Z.S.Z.B.S.S.B.A.A.A.A.S.S.S.S.S.u.9 9                 q @ 9 g.D.C.C.C.S.S.S.S.S.S.S.S.S.S.S.A.S.S.S.S.A.B.S.S.",
"S.S.D.S.S.S.S.D.D.S.D.S.S.S.S.S.S.D.S.S.S.F.F.S.D.y.= @                 9 @ 9 g.D.A.A.A.A.A.A.A.S.S.G.G.G.G.G.G.A.A.A.A.A.A.A.A.",
"S.D.S.S.S.F.D.S.S.S.S.S.S.S.S.D.D.S.D.D.F.F.F.F.D.y.$ o                 $ o = g.D.A.A.A.A.A.A.A.S.S.G.G.G.G.G.G.A.A.A.A.A.A.A.A.",
"S.S.S.S.S.S.D.S.S.S.D.S.D.S.S.S.D.S.D.F.H.D.S.F.H.y.* O                 @ O 9 d.D.A.A.A.A.A.A.A.G.G.G.G.G.G.G.G.A.A.A.A.A.A.A.A.",
"S.D.S.D.S.F.C.D.S.D.S.S.S.S.S.D.S.S.F.F.F.F.F.F.H.y.* o                 @ o 9 d.A.A.A.A.A.A.A.A.G.G.G.G.G.G.G.G.A.A.A.A.A.A.A.A.",
"S.S.A.C.f.5.] ] 1.1.1.1.1.1.1.1.2.4.q.c.S.F.F.F.H.y.= o                 @ o 9 g.S.S.D.S.C.l.8.2.1.1.1.1.1.1.1.1.1.1.1.7.g.V.C.A.",
"S.C.C.7.y 9 $ $ $ $ $ $ $ $ $ $ 9 0 t j k.F.F.F.H.y.$ o                 @ o 9 g.S.S.S.D.s.h 0 $ $ $ $ $ $ $ $ $ $ @ $ = u 8.V.A.",
"D.S.0.e o o O % % % % % % % % % * @ @ = j B.S.F.S.y.* o                 @ o 9 g.D.D.S.c.h # o o % % % % % % % % % % @ o # e u.A.",
"S.S.k o o < z m m m v m m m N P ` J - o q g.S.S.S.y.$ o                 # o 9 s.D.S.C.u.9 . & l n n m v m m m n K ` Y p o o 1.A.",
"D.B.h o < V A A A A A A H ~ #.,.,.#.x % $ 0.H.S.S.u.$ o                 @ o 9 g.D.S.D.8.$ % n F R R R Z R R Q +.-.<.-.( ; o j C.",
"S.C.h o n A A A E E A ^ +.:.<.>.%./ F ; @ 0.S.S.F.y.* o                 @ o 9 s.D.S.D.8.# < F E R R E E E } *.<.>.;.} ~ z o j C.",
"S.B.h X v A E E E ! } &.>.<.=.| ~ A R 1 @ 0.D.S.S.e.* o                 $ o 9 s.D.S.D.8.# 4 H E R R E ~ @.:.<.:...^ E E n o j C.",
"S.B.h X B E A E ! %.:.,.:.%.^ ! A R R 2 @ w.D.S.S.u.= o                 @ o 9 g.D.D.D.8.# 4 H E E R  .;.>.<.&.| ! E R A c o j C.",
"S.B.h X v E ! | =.>.>.=. .E E R R E R , @ 0.F.A.D.u.* o                 @ o = f.D.S.S.8.o 5 R E / @.:.<.;.../ E E R E E c X j S.",
"S.B.h O m / %.:.<.;.+./ Q E E E E E R , @ 9.F.A.S.u.* O                 @ o = f.D.S.F.8.+ 5 ~  .;.<.>.$.} ! E E R E E E n O j S.",
"S.B.h X P ;.>.>.&. .E E R R E E R Q | 6 @ 9.D.A.D.u.* o                 @ o 9 f.D.S.D.8.# 8 &.:.<.:...^ Q E R E E E R ^ K O j S.",
"S.Z.h X ' <.;...^ E E E R R E E / @.:.a @ 9.D.A.S.u.* o                 $ o 9 f.D.D.S.8.o d <.<.$./ Q R R R E E R ~  .:.` O j S.",
"D.B.h @ ' &./ ! E E E E E A ! | =.<.-.a @ 9.F.A.S.u.$ o                 $ o 9 f.D.S.D.8.o d ;. .^ R R E E E R E / %.:.>._ O j D.",
"D.B.h X U ^ E E E E E E A / &.:.>.$.| 2 $ 9.F.A.S.e.* o                 @ o * f.D.S.F.8.+ 8 / ! R R R R E E Q ..;.>.;.+.M + j S.",
"D.B.h X m E E E A E A ! ..=.>.:.+.^ Q 2 # 9.A.A.D.u.9 o                 @ o 9 g.D.S.D.8.+ 4 R R R E E R E / &.:.>.&. .E c . j S.",
"S.B.h X N E E E A A } %.>.<.&.} Q Q | a $ 9.F.A.D.u.$ o                 @ o 9 g.D.D.F.8.+ 5 R R E R R ^ +.;.>.:...^ Q  .P . j S.",
"S.B.h X m E E E ! ..;.>.;...^ ! } +.$.6 $ 9.A.A.D.u.* o                 @ o 9 g.F.S.F.8.+ 5 R R R Q  .$.:.:.$.} ! ^ ..&.P O j Z.",
"D.B.h X m ! E } &.:.:.&.} ! ! ..$.+.{ 1 @ 0.D.A.D.u.* o                 $ o 9 s.F.S.S.8.+ 5 A R ^ ..;.>.;...~ ! } %.%. .M X j Z.",
"S.N.h % m ! ..;.>.;...^ ! / %.%. .~ Q 1 @ 0.D.S.A.e.* o                 @ o 9 s.F.B.F.8.+ 4 Q  .$.-.:.@./ ! ^ ..&.../ ! c X j N.",
"S.N.h X I &.>.>.&.} ! ~ | %.%.} E R A 1 @ 0.D.D.A.u.* o                 @ o = f.F.B.F.8.+ 5 +.:.>.;...! ~  .@.@.| ! E E n X j Z.",
"S.N.h X ' >.;. .! Q } %.%.| ! E E E Q 1 @ 9.D.D.A.u.9 o                 @ o 9 s.F.S.F.8.O s >.;.$./ Q / ..$.+.^ E R R E c . j N.",
"D.B.h O _ %.} Q ~ ..%.%./ E E E R E A < @ 9.D.D.A.u.$ o                 $ o = f.F.S.S.8.O a -. .Q Q  .$.$. .^ R E R R E z . j N.",
"S.N.h . l W ~ | @.%.| ! E E E E E E B & @ 0.S.S.A.u.$ o                 @ o 9 g.S.S.F.8.+ : C ! / +.@.+./ E R E E E E Z , . j B.",
"S.S.j . & l U O.o.G S S S S S S b c 1 O = y.S.S.D.u.$ #                 @ o 9 s.F.F.F.9.$ O , N X.O.[ D S S D S S b B l % . k S.",
"D.C.7.@ o % 3 a 5 , 4 5 4 5 4 4 1 ; O X u k.S.S.S.y.= o                 @ o 9 g.D.D.Z.k.t o % > a 7 4 4 5 5 5 4 4 4 < % o = 8.S.",
"S.A.k.j 9 @ + O @ O o O O O o O O o @ r 7.Z.C.D.S.y.$ o                 $ o 9 s.D.Z.D.N.5.r @ o o o O o O O O O O O O o 9 j j.S.",
"S.D.S.k.2.h g f f g f f i g g f f g j 8.V.C.S.S.D.y.* o                 @ o 9 s.D.D.D.D.z.7.j g g i f f i f f f i g g h 3.g.S.S.",
"D.C.D.S.V.g.u.p.p.u.u.p.p.u.s.u.s.u.k.Z.C.D.D.C.S.y.= o                 @ o 9 s.D.D.C.C.D.B.l.s.u.s.u.s.s.y.s.u.u.u.p.g.V.S.S.S.",
"S.S.D.C.G.G.F.F.S.G.F.G.D.D.D.D.S.S.H.S.S.C.C.C.S.u.* o                 @ o 9 s.C.Z.Z.B.Z.D.Z.D.D.D.D.D.D.D.D.D.D.D.D.D.S.S.S.S.",
"D.S.S.D.G.G.S.G.S.S.G.G.D.S.C.D.S.S.S.S.D.c.k.k.S.u.$ O                 @ # 9 s.Z.k.k.z.Z.S.S.D.D.D.Z.D.Z.D.Z.D.S.D.S.S.S.S.S.S.",
"S.D.D.S.G.G.G.G.G.G.G.G.S.D.D.S.S.D.S.S.C.k.8.0.B.y.$ o                 $ o 9 s.V.q.8.k.S.D.D.Z.D.D.C.Z.D.Z.D.Z.D.A.S.D.D.S.S.D.",
"D.C.D.S.G.G.G.G.G.G.G.G.S.D.C.D.S.S.D.S.V.k.5.8.Z.y.* o                 o o 9 s.V.8.5.k.D.Z.Z.D.C.D.D.D.Z.D.Z.D.A.A.D.S.S.D.S.S.",
"S.S.S.S.D.S.D.S.S.D.S.D.S.S.S.S.D.S.S.D.S.k.4.8.B.e.$ o                 $ o = g.V.8.5.k.D.Z.D.Z.A.A.A.A.A.A.A.A.A.A.A.A.A.A.A.A.",
"C.D.D.S.C.D.D.S.S.D.D.C.S.D.D.C.S.D.S.D.D.j.8.e.S.y.$ o                 @ o * g.B.w.8.l.Z.Z.Z.D.A.A.A.A.A.A.A.A.A.A.A.A.A.A.A.A.",
"D.S.S.D.D.S.C.D.D.C.S.D.D.S.S.D.S.D.S.S.C.V.v.v.S.y.* @                 $ o = s.Z.z.z.V.Z.D.D.Z.A.A.A.A.A.A.A.A.A.A.A.A.A.A.A.A.",
"S.D.D.C.C.S.D.S.S.D.S.C.C.D.D.S.D.S.S.D.S.D.S.C.G.y.$ o                 @ o 9 g.D.C.D.C.Z.D.Z.D.A.A.A.A.A.A.A.A.A.A.A.A.A.A.A.A.",
"D.S.S.D.D.S.S.D.D.S.S.D.D.S.S.D.D.S.C.D.D.S.S.D.G.u.= o                 $ o 9 g.D.C.D.Z.D.Z.D.Z.A.A.A.A.A.A.A.A.A.A.A.A.A.A.A.A.",
"C.S.D.C.S.D.D.C.C.D.D.S.C.D.S.C.S.S.D.S.C.D.D.S.S.y.$ o                 $ o * s.D.D.D.C.Z.D.Z.D.A.A.A.A.A.A.A.A.A.A.A.A.A.A.A.A.",
"D.S.S.D.D.C.S.D.D.S.C.D.D.S.S.D.D.C.S.D.D.S.C.D.S.y.= o                 o o = g.D.D.D.D.D.Z.D.Z.A.A.A.A.A.A.A.A.A.A.A.A.A.A.A.A.",
"S.D.S.D.S.D.S.S.S.S.D.S.D.S.D.S.S.D.S.D.C.D.S.S.S.t.* o                 $ o 9 d.D.C.C.D.Z.D.Z.D.A.A.A.A.A.A.A.A.A.A.A.A.A.A.A.A.",
"S.D.S.D.C.D.S.S.D.C.D.C.D.S.S.D.D.S.S.F.C.D.D.F.D.u.* o                 # o 9 g.D.S.D.S.D.C.D.S.A.A.A.A.A.A.A.A.A.A.A.A.A.A.A.A.",
"D.C.S.S.D.S.D.S.S.D.S.S.S.D.D.C.S.S.D.C.S.S.C.F.F.u.* o                 @ o 9 s.D.D.C.D.S.D.S.S.A.A.A.A.A.A.A.A.A.A.A.A.A.A.A.A.",
"S.S.D.C.D.S.D.S.D.D.C.D.D.C.S.D.S.D.F.C.D.D.S.C.S.y.$ O                 $ o 9 s.D.S.S.S.S.D.C.D.A.A.A.A.A.A.A.A.A.A.A.A.A.A.A.A.",
"D.D.S.D.S.D.C.S.S.S.D.S.S.D.S.S.S.D.C.D.S.S.S.D.S.u.$ o                 o o 9 s.D.D.D.C.D.S.D.S.A.A.A.A.A.A.A.A.A.A.A.A.A.A.A.A.",
"C.D.C.D.S.D.S.D.D.C.S.D.D.D.C.D.D.S.S.S.D.C.D.S.H.y.* o                 $ o 9 s.D.D.C.D.D.C.D.D.A.A.A.A.A.A.A.A.A.A.A.A.A.A.A.A.",
"D.S.D.S.S.S.D.C.S.D.S.S.S.S.D.S.S.S.D.S.S.F.C.S.S.t.* o                 @ o 9 s.D.S.S.S.S.D.S.S.A.A.A.A.A.A.A.A.A.A.A.A.A.A.A.A.",
"S.C.D.S.D.S.D.D.D.S.C.D.D.S.S.S.C.D.S.S.S.D.S.D.S.t.$ o                 @ o 9 s.D.S.D.S.S.S.S.D.A.A.A.A.A.A.A.A.A.A.A.A.A.A.A.A.",
"S.D.S.D.C.D.S.S.D.S.D.S.S.D.C.D.F.C.D.D.S.S.S.D.H.t.= o                 @ o 9 g.D.D.C.D.D.C.D.S.A.A.A.A.A.A.A.A.A.A.A.A.A.A.A.A.",
"Z.D.Z.D.Z.D.Z.D.C.D.C.D.S.S.D.C.S.S.D.S.D.S.S.S.S.t.= o                 $ o * g.D.S.D.C.D.S.D.S.F.C.S.D.D.S.D.S.A.A.A.A.A.A.A.A.",
"D.Z.D.Z.D.Z.D.Z.D.S.D.S.D.S.S.D.S.D.S.S.S.S.S.D.S.y.* o                 $ o = g.D.S.S.D.D.S.C.D.C.D.S.S.S.S.S.S.A.A.A.A.A.A.A.A.",
"Z.D.Z.D.Z.D.Z.D.S.C.D.S.S.D.D.S.S.S.S.S.D.S.D.S.G.u.* o                 @ o 9 s.D.D.S.S.S.D.S.S.D.S.D.S.S.S.D.S.A.A.A.A.A.A.A.A.",
"D.Z.D.Z.D.Z.D.Z.S.D.S.D.D.C.D.S.S.D.S.D.S.S.S.S.G.y.$ o                 @ o * g.D.S.D.D.D.C.S.D.D.S.S.S.S.D.S.S.A.A.A.A.A.A.A.A.",
"Z.D.Z.D.D.D.Z.D.S.S.D.D.S.S.D.S.D.S.S.S.S.S.S.D.G.y.= o                 $ o 9 g.S.S.S.S.S.D.S.S.S.D.D.S.D.S.S.D.S.D.S.D.A.A.A.A.",
"Z.Z.Z.Z.Z.S.Z.Z.Z.Z.Z.C.C.C.C.S.D.D.Z.Z.S.Z.S.D.G.u.$ o                 @ o * s.S.S.S.S.S.C.S.S.C.C.S.C.S.C.C.S.C.C.S.C.C.A.A.C.",
"7.6.5.6.7.7.6.7.6.7.7.7.7.7.7.7.6.7.7.6.6.6.6.6.6.k @ o                 @ o $ k 7.7.7.5.7.7.7.7.7.7.7.7.7.7.7.7.7.7.7.7.7.7.6.7.",
"0 w w w w w w w w w w w w q q q w w w w w q 0 q w w q q                 e 0 0 q q 0 0 e 0 w w 0 0 0 0 0 0 w w w w w w w q q q q "
};
