/* XPM */
static char *_45c5fd8f7df465091c9e843171587dbI7z9w51mimUNS16u[] = {
/* columns rows colors chars-per-pixel */
"64 64 146 2 ",
"   c None",
".  c #363534",
"X  c #3A3633",
"o  c #373835",
"O  c #393937",
"+  c #373738",
"@  c #3D3C3A",
"#  c #443B32",
"$  c #4F3F32",
"%  c #403E3D",
"&  c #41413F",
"*  c #4E4439",
"=  c #5B4632",
"-  c #554739",
";  c #5C4939",
":  c #6E4F2F",
">  c #664A32",
",  c #6D4F32",
"<  c #6E5032",
"1  c #745232",
"2  c #785332",
"3  c #71573D",
"4  c #73583E",
"5  c #79593B",
"6  c #434240",
"7  c #494745",
"8  c #474846",
"9  c #494845",
"0  c #4C4B49",
"q  c #504E4D",
"w  c #52514F",
"e  c #545353",
"r  c #5A5956",
"t  c #5E5D5C",
"y  c #745C46",
"u  c #7C6047",
"i  c #7C624A",
"p  c #61615F",
"a  c #626261",
"s  c #6A6A69",
"d  c #747473",
"f  c #7E7D79",
"g  c #895B32",
"h  c #9F6532",
"j  c #9B6B3C",
"k  c #A76B2F",
"l  c #BD752F",
"z  c #A46A32",
"x  c #A96C31",
"c  c #AC7039",
"v  c #B27031",
"b  c #B97B3E",
"n  c #D47F2E",
"m  c #C17630",
"M  c #C27934",
"N  c #CB7C32",
"B  c #C37F3E",
"V  c #D27F30",
"C  c #8E7055",
"Z  c #AD7744",
"A  c #AF7D4E",
"S  c #807F7E",
"D  c #D7812E",
"F  c #D8812E",
"G  c #D78333",
"H  c #D88433",
"J  c #D78639",
"K  c #D9873A",
"L  c #DA8A3D",
"P  c #B0865E",
"I  c #84827F",
"U  c #C58447",
"Y  c #D68A41",
"T  c #DA8D43",
"R  c #D98F48",
"E  c #DC9147",
"W  c #DD934C",
"Q  c #C48A53",
"!  c #C88E56",
"~  c #DE9552",
"^  c #DF9955",
"/  c #D5995E",
"(  c #DF9A5A",
")  c #E09A57",
"_  c #E09C5B",
"`  c #DE9D60",
"'  c #E29F61",
"]  c #E1A164",
"[  c #E3A66B",
"{  c #E4A86F",
"}  c #E1A771",
"|  c #E5A971",
" . c #878785",
".. c #848382",
"X. c #888682",
"o. c #8B8986",
"O. c #8C8C8A",
"+. c #8F8D8E",
"@. c #908F8F",
"#. c #919190",
"$. c #9B9C9B",
"%. c #9B9C9C",
"&. c gray61",
"*. c #9D9D9D",
"=. c #9C9C9B",
"-. c gray64",
";. c #A5A6A5",
":. c #A6A6A5",
">. c gray65",
",. c #A5A5A4",
"<. c #A8A8A7",
"1. c #ABABAA",
"2. c #AAAAAA",
"3. c #ACABAA",
"4. c #ABACAA",
"5. c #ACACAB",
"6. c #ADACAB",
"7. c #ACACAC",
"8. c #ACACAB",
"9. c #B0B0AF",
"0. c #B1B1B0",
"q. c #B1B0B0",
"w. c #B2B1B0",
"e. c #B2B1B1",
"r. c #B2B2B0",
"t. c #B1B1B0",
"y. c #B9B9B8",
"u. c gray75",
"i. c #BBBBBB",
"p. c #C0BEBF",
"a. c #C3C2C2",
"s. c #C3C3C2",
"d. c #C3C3C3",
"f. c #C3C2C3",
"g. c #C4C3C2",
"h. c #C3C4C2",
"j. c #C4C4C3",
"k. c #C4C4C4",
"l. c #C8C8C8",
"z. c gray80",
"x. c #CDCDCD",
"c. c #CECECE",
"v. c #CECECF",
"b. c gray81",
"n. c #CDCDCD",
"m. c #D0D0D0",
/* pixels */
"f f f f S f S S f S f f S f f S X.I X.                                                o.o...f f f I f f f f f f f f f f f f f f ",
"t t t t t t r t t r t t t t t p p 8 &                                                 & % 7 r t t t t t t t t t t t t t t t t t ",
"d.d.a.a.a.a.a.a.g.a.a.g.g.g.g.g.<.0 6                                                 @ o 0 6.h.h.h.h.h.s.s.s.s.h.h.h.h.s.s.s.h.",
"z.z.z.z.z.z.n.z.z.z.z.z.z.z.z.z.7.6 6                                                 8 o 6 w.n.z.z.z.z.z.z.z.z.z.z.z.z.z.z.z.z.",
"z.n.n.n.n.n.n.n.m.z.z.z.z.z.z.m.4.% O                                                 7 O 6 w.b.n.n.n.n.n.n.n.n.n.n.n.z.z.n.n.n.",
"n.n.n.n.n.z.n.n.z.z.b.b.m.m.m.m.4.% .                                                 @ . 6 w.n.n.n.n.n.n.n.n.n.n.n.n.n.n.n.n.n.",
"n.n.n.n.n.n.n.n.z.m.b.m.b.z.b.b.6.% .                                                 O . 6 w.b.n.n.n.n.n.n.n.n.n.n.n.n.n.n.n.n.",
"n.n.n.n.n.n.n.n.z.m.b.b.m.b.b.m.6.% .                                                 O . 6 w.n.n.n.n.n.n.n.n.n.n.n.n.n.n.n.n.n.",
".............. .O.,.k.b.b.b.b.m.6.@ X                                                 O . & w.n.n.n.n.n.u.%. ...................",
"@ @ @ @ @ @ @ 8 7 w d y.b.b.b.m.2.% .                                                 @ . 6 9.n.n.n.n.w.a 8 % # @ @ % @ @ @ @ % ",
"# # # # # # # # O O & d l.b.b.n.2.% o                                                 O . 6 w.n.n.n.s.s O . . X # # # # # # # # ",
"x x x x z c A P C * X 9 r.n.n.b.2.% .                                                 @ . 6 w.m.n.n.2.& . * g k x x x x x x x Z ",
"n n n n L ( } } / j # @ :.n.n.b.2.% X                                                 @ . & w.n.n.n.*.O # z N n n n n D D J ~ [ ",
"n n H ) [ | { ~ L N = O :.b.n.n.2.% X                                                 O . 6 e.n.n.n.%.+ > N n D D D D F R _ { | ",
"n T ' | | ] R G G D , O :.n.n.b.2.% o                                                 @ . & w.n.n.v.%.+ 1 D D D D D K ~ [ | [ W ",
") [ | [ ~ K G n D D < O :.b.n.n.2.% .                                                 O . & w.n.n.n.*.. 2 D D D D E ] { | _ R H ",
"{ { _ E H F D D F D : O ;.n.n.b.6.% .                                                 @ . 6 w.n.n.v.*.. 2 n F L ^ [ | [ W K F F ",
"[ W L G D F F n D D < O ;.b.n.n.6.@ o                                                 O . 6 w.b.n.n.%.o 2 K W ] | { _ T K D D D ",
"T H F D F n n F G R y O ;.b.n.b.4.% o                                                 O . 6 w.n.n.v.%.. 5 ) [ | ] W K D D D D F ",
"F F F D F F F L ~ [ y O ;.n.n.n.6.@ o                                                 O . 6 w.b.n.n.%.o i | { ( T H D D F F D D ",
"F F G n F H W ' | [ y O ;.b.n.b.2.% o                                                 @ . & 9.n.n.v.=.o i ] E K F F F F F n F L ",
"F n n n L ) { { _ T , + >.n.n.n.2.% .                                                 O . & 9.v.n.n.*.+ 5 L H D F F F n F K W ' ",
"F F H W ' { ] ) K G < O >.b.n.b.2.% .                                                 @ . 6 w.b.n.n.*.. 2 D D F F F n F T _ { { ",
"F L ) [ { ) T G G R y @ >.n.n.n.2.% o                                                 O . 6 w.n.n.b.*.o 2 G D D F F K W ] { ] W ",
"W ] { ] W H H T ) ~ 3 O ;.b.n.b.2.% X                                                 @ . & w.v.n.n.&.o 2 F F n H T _ [ [ ) L K ",
"[ [ _ T G H W ) ~ T , O ;.m.n.n.2.% o                                                 O . 6 w.n.n.n.&.o 2 n F K ) ] { ] W K G E ",
"] W K H L ) ) E G G , O ;.n.n.n.2.@ .                                                 @ . 6 w.n.n.n.=.o 2 G R ( [ [ ) L G K W ( ",
"T H K W ) ) T F D V , @ ;.b.n.b.2.% o                                                 O . % w.n.n.b.=.o 5 W ] { ] E K H R ^ ^ E ",
"H T ~ ) T K D n D G : O ,.b.n.n.2.% .                                                 @ . 6 w.n.n.b.=.o i { [ ) L G L W ) W L G ",
"W ) ) T F n F F D n > @ :.n.n.b.2.% o                                                 O . 6 w.b.n.n.=.o y ' R H G R ) ) R H D D ",
") R J F F F F F D v $ @ ;.n.n.n.6.% o                                                 O . 6 w.n.n.n.=.X - b K L W ) ) L F D D F ",
"J l l m m m m m z , X @ 4.n.n.b.2.% .                                                 O . 6 w.n.n.n.,.@ X 1 x Q ! U M m m m m m ",
"1 1 1 1 1 1 1 1 = X X r i.n.z.b.2.@ o                                                 @ . & w.v.n.n.y.e . X ; y 5 1 2 1 1 2 1 1 ",
". X X X X X X X o + w #.z.z.n.n.2.% o                                                 O . 6 w.n.n.n.z.#.q o . . . . X X X X X X ",
"t p p p p t p p a d $.a.z.z.n.b.2.% .                                                 @ . 6 w.n.n.n.n.a.$.d a p p a t t a t t a ",
"6.9.9.9.7.9.2.9.9.i.z.z.n.n.z.v.2.% .                                                 O . % w.n.n.n.n.n.l.i.q.9.7.9.9.9.9.6.9.9.",
"n.b.n.b.b.n.b.b.z.b.z.n.z.z.z.z.6.% X                                                 @ . 6 w.z.z.l.z.z.n.n.b.n.n.b.n.n.n.b.n.b.",
"n.n.n.n.z.b.z.z.z.n.n.n.d.y.i.z.2.% o                                                 O . 6 w.z.u.y.k.z.n.n.n.n.n.n.n.n.n.n.n.n.",
"n.n.n.n.z.z.n.n.n.n.n.n.i.&.;.l.2.% .                                                 O . & w.l.-.&.i.n.n.n.n.n.n.n.n.n.n.n.n.n.",
"n.n.n.n.b.z.n.n.n.n.n.n.y.@.*.n.2.% o                                                 O . 6 w.l.&.@.i.z.n.n.n.n.n.n.n.n.n.n.n.n.",
"n.n.n.n.n.n.n.n.n.n.n.n.y.@.*.l.2.% .                                                 @ . & w.l.&.#.i.z.n.n.n.n.n.n.n.n.n.n.n.n.",
"n.n.n.n.n.n.n.n.n.n.n.n.u.-.2.l.3.% .                                                 O . & w.l.2.*.p.z.n.n.n.n.n.n.n.n.n.n.n.n.",
"n.n.n.n.n.n.n.n.n.n.n.n.k.u.s.z.3.& .                                                 @ . 6 w.n.p.p.l.z.n.n.n.n.n.n.n.n.n.n.n.n.",
"n.n.n.n.n.n.n.n.n.n.n.n.n.n.z.n.3.@ X                                                 O . 6 w.n.z.b.n.n.n.n.n.n.n.n.n.n.n.n.n.n.",
"n.n.n.n.n.n.n.n.n.n.n.n.n.n.n.n.6.@ o                                                 O . 6 w.v.z.z.b.z.n.n.n.n.n.n.n.n.n.n.n.n.",
"n.n.n.n.n.n.n.n.n.n.n.n.n.n.n.b.6.% .                                                 @ . 6 w.n.b.z.b.z.n.n.n.n.n.n.n.n.n.n.n.n.",
"n.n.n.n.n.n.n.z.n.n.n.n.n.n.n.n.4.@ o                                                 O . 6 w.n.z.b.z.z.n.z.n.n.n.n.n.n.n.n.n.n.",
"n.n.n.n.n.n.n.n.n.n.n.n.n.n.n.n.6.% .                                                 @ . % w.n.z.z.z.b.n.n.n.n.n.n.n.n.n.n.n.n.",
"n.n.n.n.n.n.n.n.z.n.n.n.n.n.n.n.4.@ X                                                 O . 6 w.n.b.b.z.z.z.z.b.b.z.z.b.z.z.z.b.z.",
"n.n.n.n.n.n.n.n.n.n.n.n.n.n.n.m.4.% .                                                 @ . 6 w.b.z.z.z.b.b.z.z.z.z.b.z.z.b.z.b.z.",
"n.n.n.n.n.n.n.n.n.n.n.n.n.n.n.n.6.% o                                                 O . 6 w.n.z.z.z.b.b.z.z.z.z.z.b.b.z.b.z.z.",
"n.n.n.n.n.n.n.n.n.n.n.n.n.n.n.b.2.% .                                                 O . 6 w.v.b.b.z.z.z.z.b.b.b.z.z.z.z.z.z.b.",
"n.n.n.n.n.n.n.n.n.n.n.n.n.n.n.n.4.@ o                                                 @ . % w.n.z.z.b.z.z.b.z.z.z.z.z.b.b.b.z.z.",
"n.n.n.n.n.n.n.n.n.n.n.n.n.n.n.n.6.% o                                                 O . 6 w.n.z.b.z.z.z.z.b.z.b.b.z.z.z.z.z.b.",
"z.n.n.n.n.n.n.n.n.n.n.n.n.n.n.m.6.@ o                                                 @ . 6 w.v.z.z.b.b.b.b.z.z.z.z.b.z.z.z.z.b.",
"n.n.n.n.n.n.n.n.n.n.n.n.n.n.n.n.2.% .                                                 O . 6 w.n.b.z.z.z.z.z.z.b.z.b.z.z.b.b.z.z.",
"z.b.b.z.b.z.z.z.n.n.n.n.n.n.n.n.4.@ o                                                 O . & w.v.c.z.c.z.c.z.c.z.z.b.z.z.b.b.z.z.",
"z.z.z.z.z.z.b.b.n.n.n.n.n.n.n.n.6.% o                                                 @ . 6 w.n.z.c.z.c.z.c.z.c.z.z.b.z.z.z.z.b.",
"b.z.z.b.z.b.z.z.n.n.n.n.n.n.n.m.6.@ .                                                 O . & w.n.c.z.c.z.c.z.c.z.b.b.z.z.z.z.z.b.",
"b.z.z.b.z.z.b.z.n.n.n.n.n.n.n.n.2.% o                                                 @ . & w.n.z.c.z.c.z.c.z.c.z.z.z.b.b.b.z.z.",
"z.z.b.z.n.z.b.z.n.n.z.b.n.n.n.n.6.% .                                                 @ . 6 w.v.c.z.c.z.c.z.c.z.c.z.c.z.z.z.b.z.",
"z.z.z.z.z.z.z.z.z.z.z.z.z.z.n.n.2.@ .                                                 O . 6 w.n.z.z.z.z.z.z.z.z.z.z.z.z.z.z.z.z.",
"#.#.@.#.#.#.#.#.@.#.#.#.@.#.@.#.f O .                                                 O . O S #.#.#.#.#.#.#.#.#.@.#.#.#.#.#.@.#.",
"7 9 9 9 9 9 9 9 9 9 9 9 9 9 9 9 7 7 7                                                 9 7 7 7 7 7 7 9 7 9 9 9 9 9 9 9 9 9 9 9 9 "
};
