/* XPM */
static char *_0d773600ed141a6a3514da741feaf64gz186xeiR9Wwv6qd[] = {
/* columns rows colors chars-per-pixel */
"64 64 19 1 ",
"  c None",
". c #2F2F2E",
"X c #443122",
"o c #7E3030",
"O c #6F4827",
"+ c #50565D",
"@ c #983636",
"# c #804020",
"$ c #A06040",
"% c #C0942D",
"& c #DAA935",
"* c #255190",
"= c #285DAA",
"- c #2D6AC5",
"; c #7E8590",
": c #9299A4",
"> c gray69",
", c #D4D4D7",
"< c white",
/* pixels */
"                                                                ",
"                                                                ",
"                                                                ",
"                                                                ",
"                                                                ",
"                                                                ",
"                                                                ",
"                                                                ",
"                                                                ",
"                                                                ",
"                                                                ",
"                                                                ",
"                                                                ",
"                                                                ",
"                                                                ",
"                                                                ",
"                                                                ",
"                                                                ",
"                                                                ",
"                                                                ",
"                                                                ",
"                                                                ",
"                                                                ",
"                                                                ",
"                                        ....                    ",
"                                    ....@@@@...                 ",
"                                  ..@@@@@ooo@@@.                ",
"                              .  .@@@@@@@oo.o@oo.               ",
"                             .>..@@@@@@ooo.>.@ooo.              ",
"                             .><.@o.....o.<>.ooooo.             ",
"                             .><...#####..<>.oooooo.            ",
"                             .>.##$$$$$$#.<>.ooooooo.           ",
"                              .#$$$$$$$$.<<>...ooooo.           ",
"                              .$$$$#$$$#<<<>###.oooo.           ",
"                             .#$#$#$$##$#<>####.oooo..          ",
"                             .>#$##$#>>.#####..ooooo.#.         ",
"                             .<>.##.<<>.####.oooooo.###.        ",
"       ...                  .#..####...#####.oooooo.#$$#.       ",
"       .OX.....            .#$$$$$$$#######.oooooo.#$$$$.       ",
"        ..O++++...         .#$$$$$$#######.ooooooo.#$$$$.       ",
"        .::::::+++....     .#.....#######.oooooooo.#$$$$.       ",
"        .,,,,,,:::++++.............#####.oooooooo.##$$$$.       ",
"     ...,,,,,,,,,,:::OO.$$$..&...%.###..ooooooooo.##$$$$.       ",
"    .,,,,,,,,,,,,,,,,...$$##.&...%....ooooooooooo.###$$#.       ",
"     .,,,,,,,,,,,,,..  .$###..&&%...oo@ooooooooo.######.        ",
"     .<,,,,,,,,,,,,.   .#####.....OO....ooooooo..##$$$#.        ",
"      .<<,,,,,,,,,,,.   ...........XOOOO...o...#..$$$$$.        ",
"       ..<<,,,,,,<<<.           .@@@..XOOOO..####.$$$$$.        ",
"         ..<<<<<<....            .@@@.....XOO....#$$$$$.        ",
"           ......                ...@.......OOO.##$$$$.         ",
"                                  .#.#####$$.....##$$$.         ",
"                                  .#$$###$$$$##.##$$$$...       ",
"                                   .$#####$$$##.##$$$#.OO.      ",
"                                   .#$....$$##..#####....       ",
"                                    ..;;;:....:......           ",
"                                   .:;;;;:;;::.....             ",
"                                   ...;;;:....=.#$$.            ",
"                                 ...--....====.##$$$.           ",
"                                .$$$.-----====.##$$$.           ",
"                                .$$$.=----====..##$$$.          ",
"                               .#$$$.==--=====.*.##$$.          ",
"                               .#####.==-====..*.####.          ",
"                               .....#.=======.........          ",
"                               ...............   .....          "
};
