/* XPM */
static char *c718a6775eca41c9c8eac56455858569N5lak7MF9WsYftPo[] = {
/* columns rows colors chars-per-pixel */
"64 64 12 1 ",
"  c None",
". c #2F2F2E",
"X c #7E3030",
"o c #983636",
"O c #804020",
"+ c #A06040",
"@ c #2F5489",
"# c #255190",
"$ c #285DAA",
"% c #9299A4",
"& c gray69",
"* c white",
/* pixels */
"                                                                ",
"                                                                ",
"                                                                ",
"                                                                ",
"                                                                ",
"                                                                ",
"                                                                ",
"                                                                ",
"                                                                ",
"                                                                ",
"                                                                ",
"                                                                ",
"                                                                ",
"                                                                ",
"                                                                ",
"                                                                ",
"                                                                ",
"                                                                ",
"                                                                ",
"                                                                ",
"                                                                ",
"                                                                ",
"                                                                ",
"                             ....     .                         ",
"                           ..oooX... .*.                        ",
"                         ..ooooooooX.&*.                        ",
"                       ..XooooooooooX.*.                        ",
"                      .XooooooooooooXX..                        ",
"                     .XoooooooooooooXXX.                        ",
"                    .XooooooooooooooXXXX.                       ",
"                    .ooooooooooooooXXXXXX.                      ",
"                    .ooooooooooooXXXXXXXX.                      ",
"                   .XooooooooooooXXXXXXXX.                      ",
"                   .oooooooooooooXXXXXXXX.                      ",
"                   .ooooooooooooXXXXXXXXX.                      ",
"                   .oooooooooooXXXXXXXXX.                       ",
"                   .ooooooooooXXXXXXXXXX.                       ",
"                   .oooooooooXXXXXXXXXX.                        ",
"                   .oooooooXXXXXXXXXXXX..                       ",
"                   .ooXooooXXXXXXXXXXX.++.                      ",
"                   .XXXoooXXXXXXXXXXXX.++O.                     ",
"                   .XXXXooXXXXXXXXXXXX.+OO.                     ",
"                    .XXXoXXXXXXXXXXXXX.OOO.                     ",
"                    .XXXXXXXXXXXXXXXX.OOOO.                     ",
"                    .XXXXXXXXXXXXXXX.OOOO.                      ",
"                     .XXXXXXXXXXXXX.OOO..                       ",
"                     .XXXXXXXXXXXX.++OOO.                       ",
"                       .XXXXXXXXX.+++OOO.                       ",
"                     ***.XXXXX...+++OOOO.                       ",
"                   ******..X..O++++OOOO.********                ",
"                  *******.+.++O++OOOOOO.*************           ",
"                  *******.O++O+++OOOOO.****************         ",
"                  ********.++O++OOOOOO.***        *********     ",
"                    ******.++O++O.....                  ******  ",
"                          .O+O+..%%%%%.                     ****",
"                           ....%%.......                      **",
"                          .%%%%..$$$$.O+.                    ***",
"                          .....@@$$$$.O++.                ******",
"                       **.+.$$****$$$.OO++.          *********  ",
"                         .+.$$@$$$$$.#.***************          ",
"                        .+.$$@@$$$$$.#.....                     ",
"                        .O.$$@$$$$$...                          ",
"                        ...$$$$.....                            ",
"                        .......                                 "
};
