/* XPM */
static char *_0854bef6ffd4e0b9a16266b948e4c19eXkINfyQwqvlMlYP[] = {
/* columns rows colors chars-per-pixel */
"64 64 16 1 ",
"  c None",
". c #2F2F2E",
"X c #443122",
"o c #7E3030",
"O c #6F4827",
"+ c #983636",
"@ c #804020",
"# c #A06040",
"$ c #C0942D",
"% c #DAA935",
"& c #255190",
"* c #285DAA",
"= c #7E8590",
"- c #9299A4",
"; c gray69",
": c white",
/* pixels */
"                                                                ",
"                                                                ",
"                                                                ",
"                                                                ",
"                                                                ",
"                                                                ",
"                                                                ",
"                                                                ",
"                                                                ",
"                                                                ",
"                                                                ",
"                                                                ",
"                                                                ",
"                                                                ",
"                                                                ",
"                                                                ",
"                                                                ",
"                                                                ",
"                                                                ",
"                                                                ",
"                                                                ",
"                                                                ",
"                                                                ",
"                        ....                                    ",
"                     ...++++....                                ",
"                    .+++ooo+++++..                              ",
"                   .oo+o.oo+++++++.  .                          ",
"                  .ooo+.;.ooo++++++..;.                         ",
"                 .ooooo.;:.o.....o+.:;.                         ",
"                .oooooo.;:..@@@@@...:;.                         ",
"               .ooooooo.;:.@######@@.;.                         ",
"               .ooooo...;::.########@.                          ",
"               .oooo.@@@;:::@###@####.                          ",
"              ..oooo.@@@@;:@#@@##@#@#@.                         ",
"             .@.ooooo..@@@@@.;;@#@@#@;.                         ",
"            .@@@.oooooo.@@@@.;::.@@.;:.                         ",
"           .@##@.oooooo.@@@@@...@@@@..@.                        ",
"           .####@.oooooo.@@@@@@@#######@.                       ",
"           .####@.ooooooo.@@@@@@@######@.                       ",
"           .####@.oooooooo.@@@@@@@.....@.                       ",
"           .####@@.oooooooo.@@@@@........                       ",
"           .####@@.ooooooooo..@@@.$...%.                        ",
"           .@##@@@.ooooooooooo.....$...%.                       ",
"           .@@@@@@@.ooooooooo+ooooo.$%%.                        ",
"           .@@@###@..oooooooo++++++....                         ",
"            .@@#####....ooo++++++++.                            ",
"            .@@#####.@@@.o+++++++++.                            ",
"             .@#####.@@##.++.+++++..                            ",
"             .@#####@.@###..@..+..@.                            ",
"::            .@####@@.@##@@@@@.@.@@.                           ",
":::           .@###@@..####@@@##@.@@.                           ",
" ::::          .####@.....@@@@@#.@@@.                           ",
"  ::::::       .@###@@.OOX....#@.....                           ",
"    :::::::::   .@@@@@..OOOOX...####.          :::::::::        ",
"     ::::::::::: ......-....OOO.@###.        :::::::::::::      ",
"        ::::::::::::::....-=....@@@##...:::::::::::::::::::     ",
"            ::::::::::::::::::::::::::::::::::::::::::::::::    ",
"              .#:::::::::::::::::::::::::::::::::::::::::::.    ",
"             .###@@..::::::::::::::::::::::::::::::::::::..     ",
"             .##@@.&&.*:::::::::::::::::::::::::::::::::.       ",
"             .##@@.&&&.****:::::::::::::::::::::::::::O..       ",
"             .@@@@....*******..@@:::::::::::::....OOOOOOO.      ",
"             .....   ..........@....              ........      ",
"             .....             .....                            "
};
