/* XPM */
static char *result[] = {
/* columns rows colors chars-per-pixel */
"64 64 252 2 ",
"   c #052B5B",
".  c #05316A",
"X  c #023575",
"o  c #053A76",
"O  c #033B7D",
"+  c #04447E",
"@  c #1A467C",
"#  c #023E84",
"$  c #023E88",
"%  c #044385",
"&  c #02448B",
"*  c #0B4688",
"=  c #024A8D",
"-  c #0B4C8C",
";  c #124784",
":  c #0E558C",
">  c #024693",
",  c #034C94",
"<  c #0A4D93",
"1  c #034D9B",
"2  c #0A4C9B",
"3  c #164D93",
"4  c #035395",
"5  c #0B5295",
"6  c #015A95",
"7  c #03539C",
"8  c #0B549B",
"9  c #02599E",
"0  c #0C599D",
"q  c #15579A",
"w  c #145B9D",
"e  c #215A99",
"r  c #11619E",
"t  c #054FA2",
"y  c #0354A3",
"u  c #0B56A3",
"i  c #035BA4",
"p  c #0B5BA3",
"a  c #0255A9",
"s  c #0857AC",
"d  c #045CAB",
"f  c #0B5DAB",
"g  c #1759A5",
"h  c #135CA4",
"j  c #125DAB",
"k  c #035DB2",
"l  c #045CB7",
"z  c #0B5EB4",
"x  c #0461A5",
"c  c #0B62A5",
"v  c #0462AD",
"b  c #0B63AC",
"n  c #0569AC",
"m  c #0B69AD",
"M  c #1362A3",
"N  c #1B63A4",
"B  c #1F6AA6",
"V  c #1363AC",
"C  c #1965AD",
"Z  c #1269AD",
"A  c #1B6AAD",
"S  c #0464B3",
"D  c #0A64B3",
"F  c #056AB4",
"G  c #0C6BB5",
"H  c #0364BA",
"J  c #0A65BA",
"K  c #046BBB",
"L  c #0B6CBB",
"P  c #1265B3",
"I  c #1865B5",
"U  c #136BB4",
"Y  c #1B6BB4",
"T  c #126DBB",
"R  c #1B6DBC",
"E  c #0472BD",
"W  c #0975B9",
"Q  c #0B73BC",
"!  c #1472B5",
"~  c #1C72B4",
"^  c #1473BC",
"/  c #1B74BC",
"(  c #137BBE",
")  c #167ABC",
"_  c #2266AC",
"`  c #2769AA",
"'  c #2D70AF",
"]  c #246CB5",
"[  c #266EB8",
"{  c #2472B4",
"}  c #2A72B4",
"|  c #2473BB",
" . c #2A75BA",
".. c #2479BD",
"X. c #2A7ABD",
"o. c #3577B9",
"O. c #327BBB",
"+. c #457AB5",
"@. c #046DC2",
"#. c #026BC5",
"$. c #0B6DC2",
"%. c #1166C0",
"&. c #126EC2",
"*. c #0473C4",
"=. c #0B73C3",
"-. c #067AC5",
";. c #0B7AC4",
":. c #0375CA",
">. c #0B75CA",
",. c #047BCB",
"<. c #0D7BCB",
"1. c #1374C3",
"2. c #1B75C3",
"3. c #147BC5",
"4. c #1B7BC4",
"5. c #1376CA",
"6. c #1A77C8",
"7. c #137CCB",
"8. c #1B7DCB",
"9. c #057CD1",
"0. c #0B7DD1",
"q. c #127DD3",
"w. c #1B7ED1",
"e. c #2276C2",
"r. c #2A76C0",
"t. c #227CC4",
"y. c #2A7CC3",
"u. c #237CCB",
"i. c #2B7DC9",
"p. c #337DC2",
"a. c #367FC5",
"s. c #267FD0",
"d. c #0B81BE",
"f. c #3782BD",
"g. c #0883C5",
"h. c #0482CD",
"j. c #0D82CD",
"k. c #1582C5",
"l. c #1B82C5",
"z. c #1482CD",
"x. c #1C83CC",
"c. c #1B8ACB",
"v. c #0583D4",
"b. c #0C85D3",
"n. c #0A89D9",
"m. c #1484D3",
"M. c #1B84D2",
"N. c #148BD3",
"B. c #1C8BD4",
"V. c #1685D9",
"C. c #1389D9",
"Z. c #1C8DDA",
"A. c #1E91D6",
"S. c #1691DA",
"D. c #1B92DB",
"F. c #2382C5",
"G. c #2C83C5",
"H. c #2383CC",
"J. c #2B84CB",
"K. c #238ACD",
"L. c #2B8BCD",
"P. c #3685C6",
"I. c #3C84C5",
"U. c #3285CB",
"Y. c #3B84CB",
"T. c #338ACC",
"R. c #3B8DCD",
"E. c #3991CF",
"W. c #2385D2",
"Q. c #2B85D1",
"!. c #238BD4",
"~. c #2B8CD3",
"^. c #238DDA",
"/. c #2D8DD8",
"(. c #3286D3",
"). c #338CD3",
"_. c #3B8DD3",
"`. c #368CD9",
"'. c #2592D5",
"]. c #2D91D6",
"[. c #2493DB",
"{. c #2B94DC",
"}. c #2599DD",
"|. c #2D9ADC",
" X c #3392D5",
".X c #3C93D5",
"XX c #3998D4",
"oX c #3493DB",
"OX c #3B94DB",
"+X c #349BDD",
"@X c #3B9ADD",
"#X c #32A1DB",
"$X c #1A8DE2",
"%X c #1B96E1",
"&X c #2A8FE4",
"*X c #2B98E3",
"=X c #3695E1",
"-X c #349CE3",
";X c #3C9CE3",
":X c #28A2E6",
">X c #3BA2E3",
",X c #3AA3E9",
"<X c #438CCC",
"1X c #4888C9",
"2X c #4595CE",
"3X c #5297CB",
"4X c #428DD2",
"5X c #478CD5",
"6X c #4394D5",
"7X c #4B94D5",
"8X c #4395DB",
"9X c #4997D8",
"0X c #439BDC",
"qX c #4A9CDD",
"wX c #5597D6",
"eX c #529BDB",
"rX c #45A2DE",
"tX c #4DA2DD",
"yX c #55A3DE",
"uX c #64A5DC",
"iX c #6BB3DE",
"pX c #449DE2",
"aX c #4C9CE2",
"sX c #459EE8",
"dX c #549EE3",
"fX c #44A2E2",
"gX c #4CA4E3",
"hX c #45A2E9",
"jX c #4CA4EA",
"kX c #49AAEB",
"lX c #54A4E4",
"zX c #5BA5E3",
"xX c #55A9E7",
"cX c #5CAAE4",
"vX c #54A5E9",
"bX c #55AAE9",
"nX c #5DABEB",
"mX c #5AB0EE",
"MX c #5AB8F3",
"NX c #67A9E7",
"BX c #6CADE5",
"VX c #64AEEB",
"CX c #71ADE6",
"ZX c #66B6ED",
"AX c #6CB3EC",
"SX c #74B4EB",
"DX c #79B5EC",
"FX c #67B4F2",
"GX c #75B5F4",
"HX c #7CC0EE",
"JX c #85BBED",
"KX c #83BEF6",
/* pixels */
"% K v y E :.F Z.,X;Xp S *XfXo ) VXi.d K y ^ D e.'.OX8XnXR.T b 1X7X@.b.W.2.k H H I /.$.@.*.E !  XS i i O X v v.b.lX2 *.fX:.W >XSX",
"h.xXO FXrXd VXK.  U 9 yXc.Z.M.D K ].3.#.$.:.S <.Q d $ h &.H t.u.6.Q S 4X1Xi :.8...1 l u.MX^.k & , k.tX, 7 *.*.n.#.@.<.x '.).^.7 ",
":.^ qXJ >XD ;.[.D 1 m.kX&.z.z.^.dX6.,.F F y = , E '.M.6.4X[ H m.<.*.S e.2XB , $.k K ;.2.D i *.!.y.1 ! / C :XFXB.D   d S fX9.# Z.",
"d 7.-.[.( I 7.P :.`.p ^ v *. XI d E a t.gX8.y + > l.b.$.5.,.*.D p.X.^ l.x 7 i 1 1 < >.$.M.+Xd 2 W.q.hX].p pXr BX@XK 0XDXd.#.<.J ",
">XK a MXkXaXh F.A.A C D M.*XZ.:.> L D @./.8.H a K E 1.vXY.(.XXb.-XoXH U.I.C ].! , > 9 >.P +Xn ; nX|.1., F K D +XL.3XX n.i y n fX",
"0.].9.lXpXb !.V <.S .X0X7.j.z.u O <X!.8 I./ eX .1 d K zX8X:.M.T d S k d i 4 = i J.tX! * 6.!. .% A : rX= i i O S g.z.Q q.n % DXc.",
"= S vXQ.J -.).- |./ D D 7.v .X1.E.~ ;.qX| i b 7.7.eXf.D J @.S ....a t./.M.3.F d , < , L 4.7 9.Q.AXtXtXJ.m.l j AXfX*.W BX3.b.5.Q ",
"S K pXg.hXN.i 5 L =.s y Q i n t.CX@X@.=.K OXe.& d b - x y p v ! M.S m 3.x % , d K $.c.z.k $ 9 D P P m.D x B.^.&.z @.2XT f }.1 4.",
";X,.qXn ,.,.0XG x.7.i wXqX0X: F BXKX;X$.m.FXp.L 1.* +.qXx.!.J.u [ y.d s C y.s s x.@XzXgXi.p ! O 8 B.K d - = u 0X$.dXb K a ,.P S ",
",.~.-X1 1 S L NXP a -.@XAXX.D yX-X/ ! 8 < J.Y L m.3.K.4.W @XSXI.u T L K z D i.qX7.>.w.Q.U.3.J.y $.B.c J.uXE 2.{.D P S & k n.j.S ",
"l G Q u M.qX^.mXD , ).I w k.d q M.*Xj.S 7Xy.u.P D OXAX_.y b ).pXl.J x.B.W.Q.b.M.M.2.L u., 4 -.T +Xe.L 2. XK * x.9 8.=.! v *.&Xk ",
"!.>.>.NXAX8.z DXc.v J N.8 8 x.Q L J.V , t.z.$.eXlX!.&.$.H./ u G F L z.J b j a &.W.2.H.*.J.7XG [.;.m t q G 5.].v.F D i D , 1 F NX",
";.vX4 7.m.,.i P.: n i L.R u / L s , ( H.].! F C g ;.K k 1.j.l.H.G I.gXz.< X s T D K v a 8.=XF g.@.3.).F K 5.1.;.^ [.,.k i X $.AX",
"p ~ F D N.i ;.cX; + l.g.E 8.< ^ <.F.w G yXL.W.5 g T 5.z.G n E.yX/ J. Xv = 7 ;.8.v a D ;.Q p v F d m.e.9 u oXL 8 ).xXn , d Q L.; ",
"qXj.-.d ! W v.4.# v 0 K i >.b D y Q d , V x.{.P s <.N.B.OXt.U R.0X` 5 J ^ 4.~.3.1.! G.p i P l.{ wX;.7.;.=.q.=.8 f h # K & K m S ",
"h -X* 4 k E K pXc ].eXf 1 G J K *.y 2 d 9 Q m.>.y ) -X*X|.{ & D  X5X..a.zXoXN.fXDXlX7.S F i 0 < L.A.L d T ;XB.~.E = a >XJ {.a <.",
"!.M./ ( H i S 8.T.C @ 9 a eXW.W.=XU T..XF.W *.C.).` M p a./.v D ^._.2.(.aXZ.[.'.K...7.:.*.6.K.D m.j.v K P 9X6.GXjXH H k.&.FX1 :.",
"gX.X1.i S S @XQ {.!.F , 7XfXNX} F./.4.Q.6.R.L.;.c.c 1 , g 1.;.z.-XOX).6XB.( ~ k.K D 7 k *.B.+X{.v.L ~.j.d 7.=./.jX:.*.J *.~.b n.",
"w.x.& <X8.NXH.W.,XC.-.X.y.+XvX/ z.B.c Z G w G S x = 1 & X m z.;.B./ c Z ! H.4.!.*.Q 1 H #.L 6.M.#.K W.aX3.T  X*.2.f hX;Xv %.z.fX",
"aX8 > B M.e $.T U :.4 Y b 1.] D ;.b.c.&.7 b v K S i S G G L 7.H.l.;.@.4./.4.i.Y.P x.d :.*.U s B.vX;X;.M.z.H./.lX3X@.B.W.pX;.>X8.",
"[.y y A c # s S =.d O a H.f v - y K 7.K L $.K l.x.x.1.z.<.*.!.~.`.-Xb.L Y.5XT R J $.f J f 1.3.C.*X2.x F 3.'.=.{.G.D +XvXM.i A @.",
"= J x.c.W 1X( F ^.4X; > 6.f S / G S K S b S K p b 3.G Q @.K ^ w w R $.6.).).J.~.2.y j r.9 ;.U T >.3 R.S p 1.p xX+X*.8.t.y X ^ ,.",
"U i f ,.,.` L 8XM.| , , @.J.OX[.~.W.4.@.7 | T i ! 3.F.B.K S W 6 w Y R ..~ x.4.k.E x ! y.& x 7.<.D *  XH.i i = J.A.H d i % ..j.K ",
"f ;.J.k y H y vX1.@.m ! N.B.;XN.M.! T.7.y I V L pXlXU.7.3.F.) } R.H.l.H.C b D 7 a *.=.Q ~ f.n D.a.O $.^.*.x x 9 i Q ;.b 1XP 9.K ",
"^ hXe.i ) sXQ w wXT W u ~.q P n k.u R m.;.1._.~ I.gX~ 7 G W.6XeXgX+XW ( k.D L P m K L 7.!.lXf.G q $ p ,.z.9X'.4.Q K E Y ` > F @.",
">. .S G.) G.G = G.b  XT /.p i n  X7X4.<.:./.-X^ ^ 8.h i G L .XI.G.'.F n ;.L 7 ~ /.1.S ;.L i.XXQ ` i J G ].|.B.z.;.M.K.4.o.$ d 7.",
" Xb :.2.U.K u 4 4 U.pX<.T L L.yXpXOXz.i a.T.c.'.4._.` d >.S I P 5 b W v , y 7 { OXL L M.u.b ` E.T E S.F.A v N.G.> V.>Xc [ & _.<.",
"t.;.l % x.D J 4 d 6XY Q a 7 ..tX` v @.d T.l.G k.z.).J.S i.t.i { ] U z.D % 8 x.OX<Xb Q A N p w X.b 3.D.>Xx l.j.gXo.b vXX i > } b.",
"F F S 7 9 Q =.% :.N +.r D v G.{ I F *.1 p G Q *.Z.!.U  .o.| 1.6XU.T T 7 e O.^.;X~.1.K 8 w * % V .X).! fXU bX/.].@X1. X1 f 1Xs >.",
"F 4 d <.i rXOXO.F ' yXV 8.L L.G.8.,.:.y & y @.z.;X Xb | / l 7.u.2.G 1 & C y.3._.sX!.K p m 9 4 1.<X` G e.u p.!.u k.{.K @.C Y.9.H ",
";.1 I Q ]. XOX~.Y.zX-X6.!.D F J._.6.7.D y l 1.7.W.OXx.<.>.J H ^ R d 7 1 i J >.~._.4./ <XG.x s ;.8 > =.z ..i D , x | H <.T M.C.T ",
"Z S U F *X*.D J.aX+X! z p 7 1 4.Y.e.C.i S 9.7.8.;./ L.x.J  ._.~.U y l l D >.1.Q F b / 9X).! Z Q.g i.:.=.t.;.a K ! v a C.`.$Xq.6.",
"$ =.& a ,XJ & ` / :.Y z ` C D J.I P.$XD K 7.=.6X7Xp.6XL.R a.4XW.k d 1.3.$.;.=.d 7 D Y p ~.0X8.J.I OX#.D h 8Xi ).f F D C.O.:.D {.",
"D W 8 w .X7X' O d ).pXQ.OXt.G R Y.a.W.=.0.3.L _.8X XOXe.t.8.K S P P T ^ y v *.d y P q 8 H.(.7.M.3.M.S S u  Xb @X< K 7.j.X J y X.",
",.v  XL.L.lXVX< d ;XU.I.N.l s / @X1XT.T =.K k @.M.&.D i e.H.K d 3.4.p b u y @.^ e.k p $.H H 5.&XkXqXL ^ 8Xq.d P Y *. X$.O k #.7 ",
"*.J @X{ nXB.4Xu a ,.@.V !.&.L 0X}.<X_.G f D k H.bXi.G ^ H.T L L G.].U C J K >.W.~.>.@.| F.@.6.8XaXVXK | 7X2.F b T L aXK , R.9.S ",
"9 K n.1 GXH.=.u y ( v.>.s.m.w.(.@X..^ F V 2.L | 6X].x.~.x.L 5.L  .R.~.2.d L T G >.&.H ] jXb.}.6X8.0Xf q.%.L <.n.H ,.Y y u KX-Xa ",
"% D @.> 1X^ ,.9 i 3.-.A.Q Z.-XQ 0XbXF.v v / J A 4.c.;.4.7.q.&.J D R J.Z 1 t > > z k l w.sXB.A.F B.+X .,.1.k.s m.@.H , c 5X7XjXd ",
"L C a 4 d k.J b 3.b.^ ;.n pXxX).J._.u.| ! I D F.;XW.*.*.*.,.f v x i d q P y y z H K y Y a.I t.y <.x.zXy.H ^ 1 M.E k d z.eXK 6.;.",
"7.`.a z.d #.k ;.q.*X-Xa.w ~.2XsX!.f 7 U.R.).7.D 8.8.3.W.l.-.p x B N G ..8.J &.u.K >.4.{ A L 2.H S 8 =XVXQ e.V zXK H :.,.K :.a M.",
"_.D a 4.= v o.8.>.*XQ.3XB.,.x 7.|.T 1 d R.L.8.A J J ) <X..( k.D y.y...~.;.J t.~.H L ~.9XvXx.d b.J.8 W.;XC.hXZ.1XF 9.0.*.F >.f.@X",
"BX< H a c.W dXoX;.b.d = M.F K x.-XV.L d y./ 8. X8.8 1 M 0 G ^ / ;.S P l.g.F S d S -.*.6.sX).F /.7X .e.f =.>XW.P @.@.$.a D D..XF.",
">.T &Xw.F.1.K <.V.m.K d ~.8 i @.&X8.8.m L.Q.M.<.z.0 1 H.M.Q G t._.).A.k.;.@.j 8 W N.3.L $.8.2.qX/ 9X8 & &.aX*.H.#.@.H a T b.J e.",
":.i kXgXl v k x.}.H.^.<.;.*.*.K ,.v ~.k.E L.oX4.4.M.b ^ 3.1.Q.x.<XeX!.:.K G 6.e.$.7.b y &.M.l.@Xx.k.2.k #.H S Y d a M.v x.*.A.kX",
"K a Q lXe.G A B.,XP R.b.-X<.d F <.Q W K $.S L.-Xx.W.U f S y X.F.a R M.*.! N b M.=.J t d m.q.B.W.8.Q ^ =.T d } XX4.N gXt.v >.k.W ",
"D k < B.U.y cXB.tXj x L 8X<.K b t.~.p y y a k M.*X3.L i y , c ;.y ] { b  X1Xa ^ x.;.i S @.2.*X XD 0 < |..XT lXkX6X XxXtXF 3.y h ",
",.:./ OX{ K 1XF zXF.y g h S E x.B G Q 3.C b F Q !.Q.!.Z 9 U 3.;.u q U ^ 3.k #.K U ].K k v 8 !.x.f V <.pXJ.Z./ .X/ K *.( D J > ~.",
"b.>.y > eX4.O F @Xh & 1X; % 0 i J.{ H.0X4XM.x.P 8 G.R.!./ { y.3.>.y.W.7.1.F <.j.K *.H K D ^ H.B M .XH *.3.D._.h NX7 !.t...4.S 9 ",
"$.1.0 3 %.+XR g 8X~.8 m n z.y = i ).xX..% 4 9XJ.8 6 w 1XVXJ.<XgX6.S 1.^ a D =.^ G ;.u 9 3.!.y X 9 S S <.d >.R x.uXu 7Xf y A 1 >.",
"> y L.FXJ.E eXgXP E.U T.V H.@.h >.K K.E.5 4 _.P.) D 6XNXdX|. XR.k.j.,.D i V G L D.|.~.;.F Q 3.>.K y D *Xt.B.x.7 K 7.:.z.K wX% / ",
"a J K nX% S a J.J - !.D E w G @X7.K H y i i _._ & ^ !.L M ^ b 7 S <.x.4.!.#X/ P M.4.I c.v Q M z.S 4.Y /.zXaXx k G S $.3.*.9 ;.bX",
"S.S J CX8 y k H.i Q.cX) W 6XB. XK.8.$.J 8 V i.M v !.2.J 7 Y Y 2 U.(.v /  XH.G._.S F ..R.c c.) v J R 1Xi G =X=.f g 7 N.S k.v $X-X",
"+Xg ~ v d x % W y a T.u o +.=X;.cX.X1.8XY 9X` 4 v G 8 d &.u.Y e. XB.z.3.>.W.0X..1 y ^ c.U bXuXe _.3 q =.G.4.8 L 3X6 x S L.* n.W.",
";.AX! g.5.0 1 j.D i D -.0XT dX2.3.,.7 v 3.aX{ ! ^ J./ v .XDXDXo., S i x 3.! M < x ^ ] qX<.T.@X.X1.0XdXJ 1 u M.:.h.& b l a '.+Xk ",
"b.(.8 ,.AX@XD  XK D N.G W E P / b <.=.D y Z p 1.C.j.[.:XQ I..Xv 8 K ;.L 4.0XlX<XD >.(.wXG.yXK S y.KXaXd a G +Xy G f ;Xv.S pXDX1 ",
"z 7 =..XoXd K {.* S d 1 y K 8 .Xw.0.x.^.p f L L ;.!.~.@Xi.y j 8.{.x.b F.^.<.=.d f T w.y 7 I <.a B vX@.7 4 <.;.u.lXM.>.S :.:.S , ",
"gXa ;.&  Xp u 7.aXf W c m x @X9X7.(.!.M.$.F.!.dXJ.D S 0XvXH.6X1X8./ & { +XA.J.4.o.- v 0 OXGX;Xb.c.E K =.| pXm.rXl S #.K 0.> K G ",
"7 #.6.q.FXW.uXgXJ D 8 wXF.X b yXW.8 <X| J > v @.*.~.Y J.i.S x , y =.M.cXzXL k & 3 @X).K J n.<.i.mXn.S v.4.NX,.#.1 n.z + y l 8 6 ",
"=.8.& v K KX7.9.l 7XCX@ , x tXFX4.% 7 D 1.K 8.M.D f 9 ] x.m i H K L F O._.$.M.B.0.G % d d K i.uX4 f y V.H i 7 l 1.w.~.H @.a JX=.",
"$.= = }.k AXB.6.B.! yXt.=.# ;.K M.s y K v S ~ 3.K ^ m.>.z D >.<.).~.K v v Z. .1 /.vXx.t.m.-XaXH [.rX@.5.y 8 OXQ aXL % D d *.K > ",
"& mX%XGXf '.B.iXP 7.D AX6.:.0.9.*.H q.<.% 7 F ;.0 x H.x.J 4.x.!.L.;.E j.*X_.$.@XwX .vXpXxXm.D./ nXOXn , k K ,.z.b rXxXH '.h.h.K ",
"4 v l k.o B.D m }.8 F yXGXgX) d F c.N.K a ,.9 1XHXZXhXvXSXT.F m b F E E x = = d , 8 z.c.+X;.;.;./ vX$.S > d -.*Xb.D , ,.h.1 . . ",
"&Xa y J.].,.z.4.U.D K.<.zXtXz.*.S S oXm.fX!.|.*XQ 1.=.T G & 8 oXU.G f P 1.H k ` jX7.3.=.W.~._.] zX5.hX:.k @.n.:.S :.,XkXn.A.y & ",
"3.y bX@XK Z.K v z.;.0 7 O 8 1 H n.7.S 7 T.B.4 V J x.~.dXDXI.$ N nXSX).f 8 =.<.3.m Z | 8 ^.!.F ,.i {.bXM.S W 9 :X;Xn.%Xj.$ *.rXH "
};
