/* XPM */
static char *_db57391530b44a39f0f287a610bcd03y6kzo2glEBGn9f9n[] = {
/* columns rows colors chars-per-pixel */
"64 64 230 2 ",
"   c None",
".  c #7C381E",
"X  c #5D3B31",
"o  c #693A2D",
"O  c #753326",
"+  c #633532",
"@  c #653A32",
"#  c #693C33",
"$  c #6D2E29",
"%  c #7B561F",
"&  c #4F432F",
"*  c #53442E",
"=  c #5D4A2C",
"-  c #5A472B",
";  c #4F4230",
":  c #524634",
">  c #6B432D",
",  c #624E2C",
"<  c #684B2A",
"1  c #724C2B",
"2  c #78492A",
"3  c #6A5229",
"4  c #75532A",
"5  c #7A542B",
"6  c #7D5C2B",
"7  c #765927",
"8  c #6D4332",
"9  c #604330",
"0  c #724634",
"q  c #744A34",
"w  c #794E36",
"e  c #7C5436",
"r  c #655537",
"t  c #7C6432",
"y  c #766E4D",
"u  c #777564",
"i  c #635748",
"p  c #8A2E14",
"a  c #982A14",
"s  c #8B3615",
"d  c #933917",
"f  c #A92A17",
"g  c #B92A1A",
"h  c #B9321E",
"j  c #C72B1D",
"k  c #D1291F",
"l  c #D62D21",
"z  c #C83321",
"x  c #D63224",
"c  c #E82B24",
"v  c #FA2D28",
"b  c #F52D26",
"n  c #E83428",
"m  c #F9352B",
"M  c #F4352A",
"N  c #8A4717",
"B  c #96461C",
"V  c #8B5A1C",
"C  c #925D1B",
"Z  c #94691C",
"A  c #8C6E1D",
"S  c #A6761B",
"D  c #B17E1B",
"F  c #835B2C",
"G  c #825A36",
"H  c #914E28",
"J  c #A84C26",
"K  c #B74E2A",
"L  c #A45827",
"P  c #826325",
"I  c #8A6C2B",
"U  c #876628",
"Y  c #966B24",
"T  c #8A7227",
"R  c #957728",
"E  c #896434",
"W  c #8A6637",
"Q  c #936C39",
"!  c #987738",
"~  c #867535",
"^  c #A4682A",
"/  c #A67825",
"(  c #A57C39",
")  c #B17234",
"_  c #C8512E",
"`  c #D65432",
"'  c #CC5431",
"]  c #E85537",
"[  c #F75338",
"{  c #F6593B",
"}  c #F15337",
"|  c #C47A3C",
" . c #917646",
".. c #A37C48",
"X. c #847A6F",
"o. c #CA7D40",
"O. c #778C75",
"+. c #9D801A",
"@. c #BA851C",
"#. c #BD921F",
"$. c #9E842E",
"%. c #9E8323",
"&. c #9B8638",
"*. c #A68C2C",
"=. c #A68427",
"-. c #B58524",
";. c #BD9321",
":. c #A28435",
">. c #A48A33",
",. c #A3833C",
"<. c #A98B37",
"1. c #AE913A",
"2. c #AA9137",
"3. c #B2943C",
"4. c #B79A3E",
"5. c #B99837",
"6. c #B98A34",
"7. c #C58C1B",
"8. c #CC931D",
"9. c #C6901F",
"0. c #D59A1E",
"q. c #D3971D",
"w. c #C99627",
"e. c #D59D23",
"r. c #D99F20",
"t. c #C59A38",
"y. c #C89129",
"u. c #D8A326",
"i. c #C9A339",
"p. c #D4A737",
"a. c #CEA02D",
"s. c #E2AB2B",
"d. c #E3B038",
"f. c #AA8843",
"g. c #B58E43",
"h. c #BA9C43",
"j. c #B69546",
"k. c #B09359",
"l. c #B5A857",
"z. c #BFA346",
"x. c #948D6E",
"c. c #99A979",
"v. c #AAB479",
"b. c #B4AB6D",
"n. c #968C54",
"m. c #CA8948",
"M. c #DD8A4C",
"N. c #D68748",
"B. c #C69949",
"V. c #E78A4E",
"C. c #F3894F",
"Z. c #F38B51",
"A. c #C1A346",
"S. c #C3A34B",
"D. c #CAAA4D",
"F. c #C9A749",
"G. c #D2AA47",
"H. c #CDAC51",
"J. c #C7A654",
"K. c #D3AB55",
"L. c #D4B355",
"P. c #D9B659",
"I. c #DDBB5C",
"U. c #D6B55A",
"Y. c #D0B14F",
"T. c #E5B647",
"R. c #E9AE5C",
"E. c #E6BB5B",
"W. c #D7B866",
"Q. c #CBB26D",
"!. c #ECB461",
"~. c #E2BC61",
"^. c #ECBB64",
"/. c #F1B462",
"(. c #F2BB66",
"). c #E1BD70",
"_. c #D7C478",
"`. c #E5C163",
"'. c #E9C466",
"]. c #EBC769",
"[. c #EDC96A",
"{. c #F1CB6C",
"}. c #E8C776",
"|. c #EAC05F",
" X c #6D908D",
".X c #539BB1",
"XX c #6497A7",
"oX c #5BA7BC",
"OX c #7BBDBB",
"+X c #71A9AC",
"@X c #6F9C96",
"#X c #7FC0BC",
"$X c #55B2D1",
"%X c #66BACC",
"&X c #979690",
"*X c #A19A92",
"=X c #92B293",
"-X c #B5B491",
";X c #8BB5AA",
":X c #ABA8AC",
">X c #B7B5B7",
",X c #AFB1AD",
"<X c #CDBD89",
"1X c #C6BFB4",
"2X c #A1C09F",
"3X c #CEC691",
"4X c #EBCE85",
"5X c #EED595",
"6X c #CAC4BC",
"7X c #EBD9AD",
"8X c #F4E2B9",
"9X c #BDBCC4",
"0X c #C1BFC9",
"qX c #C4C4C8",
"wX c #CCCBD4",
"eX c #D6D5DA",
"rX c #D5D1D1",
"tX c #E1DDD7",
"yX c #F6E8C7",
"uX c #F6EDD8",
"iX c #EEE8DC",
"pX c #DDDCE3",
"aX c #D8D6E0",
"sX c #E1DFE6",
"dX c #E7E6E7",
"fX c #F5F2EB",
"gX c #F7F2E6",
"hX c #EDECF1",
"jX c #F7F5F2",
"kX c #F2EEE5",
/* pixels */
"                                                                                                                                ",
"                                                                                                                                ",
"                                                                                                                                ",
"                                                                                                                                ",
"                                                                                                                                ",
"                                                                                                                                ",
"                                                                                                                                ",
"                                                                                                                                ",
"                                                                                                                                ",
"                                                                                                                                ",
"                                        @ @ @ @                               + @ @ @                                           ",
"                                      0 q 0 0 8 >                           > > 8 0 q q                                         ",
"                                    q e W E F F 4 <                       > < 5 6 E W G e                                       ",
"                                  0 e  ...,.R T 6 1 > @                 @ > 7 P R ! ..! G q                                     ",
"                                q e W ..g.j.2.R U 6 1 >               o > 4 6 R >.3.h.f. .G G                                   ",
"                              0 e Q ..j.S.D.A.1.$.T 6 4 > @ + + + @ 9 1 7 P R >.4.S.D.S.g. .G w                                 ",
"                            8 q W f.j.K.I.I.H.z.1.$.T P 1 8 o > > o < 7 6 R *.4.D.P.I.U.J.g.! e q                               ",
"                          > 1 e ! f.J.I.`.`.I.L.A.1.R T 6 4 3 7 1 4 7 t R >.4.F.P.W.`.`.U.h.f.W 5 0                             ",
"                        @ > 5 I &.z.U.`.].[.'.I.Y.A.1.$.T P P P % P 6 R >.4.F.P.`.`.[.[.W.L.j.R U 1 >                           ",
"                        @ 1 F R g.H.~.].[.[.[.'.I.L.z.3.:.R R A T %.%.>.4.D.P.`.[.[.[.[.].I.S.,.W 5 > @                         ",
"                        @ 1 E :.h.L.'.[.{.{.{.[.'.I.L.A.3.*.*.*.$.*.2.4.D.P.`.].[.{.{.{.[.~.D.1.! 6 # #                         ",
"                      + # w Q g.D.I.'.{.{.{.{.{.[.].I.L.A.4.4.4.4.5.h.D.I.`.'.[.{.{.{.{.{.`.L.h.,.G w +                         ",
"                      $ O G ! g.D.I.].{.{.{.{.{.{.[.].I.U.D.D.D.F.Y.Y.P.'.[.{.{.{.{.{.{.{.`.U.B.,.W H # $                       ",
"                    $ $ O H ^ j.D.I.].{.{.{.{.{.{.[.].`.`.E.I.E.I.I.I.`.[.{.{.{.{.{.{.{.[.`.L.B.) Y s $ $ $                     ",
"                  # o . p B L ) B.K.R.!.^.!.!././././.R.R./.R.R.E.R.R.R././././.^.^.!.!.!.K.K.t.) H s . O $ o                   ",
"                8 0 O . p d H ^ ) o.N.M.M.V.V.Z.Z.Z.Z.Z.Z.Z.C.C.C.C.C.C.Z.Z.Z.Z.Z.V.V.M.N.N.) ) L B s s 2 2 1 #                 ",
"        # # # 8 1 7 % N p s d B J K _ ' ' ` ] ] { { { { { { { { { { { { { { { { ] ` ` ' ' _ K J d d s s N % 5 1 8 # #           ",
"      0 0 w e e E I C V N s p a f f h h z x x n M m m m m m m m m m m m m M M M n x z j h h f a a d s N V A E G G w w 0         ",
"    0 e  .Q ....f.:./ Y V N s a a a f f g k k l n c b v v v v v v v v v m b c c l k j g f f a p p N N Z R / ,.f... .W  .e       ",
"  @ 0 E ..g.J.J.J.h.1.=.Z C B d a a f f g j j k l n M m v m m m m v m m m M x l z j g g f a a a d N Z Y *.4.S.J.J.j.f.! e 0     ",
"  # 0 E :.h.H.P.L.Y.S.4.<./ ^ L J J J K K _ ' ` ` ] } [ [ [ [ [ [ [ [ [ [ } ] ` ` _ _ _ K J J L ^ ^ =.6.h.D.L.P.K.B.g.! e 0 +   ",
"  @ 0 F R <.h.D.K.U.U.Y.D.B.B.m.m.m.m.N.M.M.V.M.V.C.C.Z.Z.Z.Z.Z.Z.Z.Z.Z.Z.V.V.V.M.M.N.N.m.o.m.m.m.B.J.Y.L.L.U.H.A.j.&.W e # +   ",
"  @ > 5 T R ,.h.D.U.E.W.~.~.E.~.~.~.~.^.^.^.`.'.^.(.(.(.(.(.'.|.(.(.(.(.(.(.^.^.|.`.^.^.~.^.~.~.~.~.~.~.`.I.H.h.g.$.T P q o @   ",
"    > 1 7 E I &.f.h.D.L.I.P.P.E.~.].[.[.[.[.[.[.[.{.{.[.{.{.{.{.{.{.[.{.{.{.{.{.{.{.{.{.{.'.`.~.E.P.P.P.H.z.j.f.! I P 4 < @     ",
"      > < 1 e e Q ! 1.j.z.S.D.H.P.~.].].[.[.].].[.].].[.[.[.[.[.[.].].[.].].].].[.[.[.[.'.`.I.L.D.D.S.h.g.&.! E e q 1 < >       ",
"        o @ # 8 4 U R ! <.f.g.j.S.J.U.I.I.I.I.I.I.I.I.I.I.E.I.I.E.I.I.I.I.I.I.E.I.I.I.I.I.L.J.j.j.g.f.:.R I 6 q 8 # @ @         ",
"          + + # < 1 6 P W Q Q Q f.j.h.h.z.z.z.z.A.A.A.A.F.A.A.A.A.A.A.z.A.A.A.A.z.z.z.A.z.h.g.! Q Q Q E 6 4 1 > + +             ",
"                > 8 8 q w G G G E R :.>.$.&.>.2.2.2.*.*.*.*.*.*.*.*.*.*.*.>.2.1.2.&.$.$.=.$.Q I G e e q 1 > 8                   ",
"                  + X 8 2 2 2 G P A A A A %.&.>.&.$.+.+.+.+.+.+.+.+.+.+.+.=.&.>.&.~ T A A A U F 5 e 2 0 @ X X                   ",
"                  X 9 5 E Y ^ / -.-.-.R t  .x.b.b.S.t.;.#.;.#.#.#.#.#.#.#.5.Q.b.v.n.t T +.-.-.=./ ^ Y F 1 9 X                   ",
"                  - < P R D 7.9.w.w.;.$.y u c.-X3XU.p.a.r.a.p.p.p.u.u.u.r.p._.3X:Xx.u ~ *.9.w.9.y.-./ Y 4 , -                   ",
"                & : 3 U / y.7.q.0.0.5.2.O.u ;X,X-XW.p.s.s.d.T.`.E.d.s.s.s.Y._.2X;X Xu  .2.a.r.r.8.9.@.Y 4 , * *                 ",
"              & & - , P ^ @.7.q.0.e.5.n.O. XXX+X=XL.p.s.s.T.}.5X4X|.d.s.s.i.v.;X+X.X XO.1.a.0.0.8.@./ Y 7 = * &                 ",
"              * & * , P S D 7.q.0.u.i.x. X.X.XXX@Xb.p.d.T.[.5X8X8X4X|.d.s.A.c.+X.X.X.XO.l.a.r.0.7.7.D Y 7 = & & ;               ",
"              & ; * 3 P S @.7.q.u.u.i.c.+X$X$XoX=Xv.Y.I.}.5XyXuXyX8X4X].d.Y.c.+X$X$XoX@Xl.a.r.0.q.7.@.A 7 = : ;                 ",
"                ; - 3 P +.#.8.0.u.u.A.c.+X$X$X%X;Xv.U.}.8XyXuXfXgXuX8X5XE.Q.2X#X$X$XOXOXl.p.u.r.q.8.@.Y 7 , -                   ",
"                & * 3 P %.@.7.q.r.u.i.v.2X#X#X;X2X-X4X5XyXuXsXtXtXkXuX8X}._.2X2X#XOXOXv.l.a.u.0.8.@.=.Y 7 = *                   ",
"              & & - , 7 Z D @.#.8.#.a.l.l.v.v.-X3X3X7XyXgXtX1X-X1XrXgXuX8X7X3Xv.-Xv.b.l.i.e.#.8.@.D S A 3 - * *                 ",
"              * ; * = % V Z S @.y.y.y.B.G.K.U.W.4X7XyXfXfXrX,X&X&X6XdXfXgXyX5X_.P.P.K.G.t.y.7.7.D Z Z % 3 - & & &               ",
"              ; ; * - 3 % % A S 6.m.K.).).}.}.4X7XyXkXdXeX0X:X&X*X,XrXpXfXkX8X5X4X).).).!.K.t.) S Z % 7 , - & &                 ",
"                      = , 7 U / k.Q.3X7X8X8XyXyXuXgXkXeX9X,X:X:X:X:X>XwXdXfXgXyXyX8X8X8X7X<Xb...R % 7 , =                       ",
"                        - 3 t ! k.<XqXtXkXfXfXfXjXjXhXrX9X:X9X9X9X>X:X0XsXjXjXjXjXfXkXsXrX1Xb.n.~ 7 , -                         ",
"                          , 7 t  .&X*X0XeXdXhXhXfXhXdXeX0X9XqXwXwX0X9XwXdXhXhXhXhXhXsXrX>X*XX. .t 3 ,                           ",
"                            r r i y X.*X9XwXaXpXsXsXdXpXeXeXaXpXaXwXwXeXpXdXsXpXaXeXwX:Xx.u e r r ,                             ",
"                              & : : i x.:X0XwXwXeXeXpXpXpXpXpXsXsXsXsXsXpXpXaXwXwXwX1X*Xu i : ; &                               ",
"                                                                                                                                ",
"                                                                                                                                ",
"                                                                                                                                ",
"                                                                                                                                ",
"                                                                                                                                ",
"                                                                                                                                ",
"                                                                                                                                ",
"                                                                                                                                ",
"                                                                                                                                "
};
