/* XPM */
static char *_07862e452154b59e62ad223f0b56b7en7Bno26bmJzP3MMU[] = {
/* columns rows colors chars-per-pixel */
"64 64 107 2 ",
"   c #44B486",
".  c #4BB387",
"X  c #44BB86",
"o  c #49B887",
"O  c #46B58B",
"+  c #4BB58C",
"@  c #4DBB8D",
"#  c #50B78E",
"$  c #51BC8E",
"%  c #4EB691",
"&  c #4EBA91",
"*  c #51B790",
"=  c #54BC93",
"-  c #59BE95",
";  c #56BE99",
":  c #5CBE9A",
">  c #61BE9D",
",  c #64BEA2",
"<  c #68BFA2",
"1  c #46C28C",
"2  c #4DC18E",
"3  c #52C18F",
"4  c #4EC291",
"5  c #54C294",
"6  c #59C296",
"7  c #56C399",
"8  c #5CC39B",
"9  c #57C899",
"0  c #5DC89D",
"q  c #62C39E",
"w  c #68C39E",
"e  c #61C89E",
"r  c #5EC3A1",
"t  c #5EC9A0",
"y  c #65C4A3",
"u  c #69C5A6",
"i  c #65C9A3",
"p  c #64CAA2",
"a  c #67CBA4",
"s  c #68C8A2",
"d  c #6AC9A5",
"f  c #65C7A8",
"g  c #66C6A8",
"h  c #66C7A8",
"j  c #69C4A8",
"k  c #6AC4AA",
"l  c #6AC6AB",
"z  c #6DC5A9",
"x  c #6DC6A8",
"c  c #6EC7A8",
"v  c #6FC7A9",
"b  c #6DC6AB",
"n  c #6DC7AB",
"m  c #6FC7AF",
"M  c #67C8A8",
"N  c #67C9A9",
"B  c #68CBA8",
"V  c #6BCBA9",
"C  c #6BCBAB",
"Z  c #6DC9AB",
"A  c #6DCCA8",
"S  c #6ECCAA",
"D  c #6BC8AC",
"F  c #6FC8AD",
"G  c #6FCCAC",
"H  c #71C6AC",
"J  c #70CAA9",
"K  c #72C8AD",
"L  c #73CBAE",
"P  c #76C8AE",
"I  c #76CAAF",
"U  c #72CCAD",
"Y  c #70CCAE",
"T  c #78CFAE",
"R  c #71D0AE",
"E  c #6FCBB0",
"W  c #71C6B0",
"Q  c #74CBB0",
"!  c #75CBB0",
"~  c #74CCB2",
"^  c #76CCB5",
"/  c #7ACDB5",
"(  c #79CDB6",
")  c #7CCCB4",
"_  c #77CEB8",
"`  c #7BCDBB",
"'  c #7DCEB9",
"]  c #75D1B3",
"[  c #79D0B3",
"{  c #78D1B5",
"}  c #78D0B8",
"|  c #7DD1BA",
" . c #7ED0BA",
".. c #7FD0BC",
"X. c #7ED3BE",
"o. c #80CEB9",
"O. c #81CEBB",
"+. c #84CEBB",
"@. c #80D1B7",
"#. c #81D2BC",
"$. c #82D3BD",
"%. c #82D4BD",
"&. c #89D3BD",
"*. c #84D4C1",
"=. c #8AD5C3",
"-. c #85D8C1",
";. c #89D8C3",
/* pixels */
"y - @ :  .) Z u y y j y > > # q +.x u y j < x y > > # y ' ! r < u V q j : > : - O # c O.L H y y j u y H q * @ h %./ L y y y y u ",
"y - & : [ U y 8 y - 8 q > : - c Z u 8 - ; - = 5 > $ @ q t 6 @ = @ 2 6 @ - = = - @ q e s y 8 : e > - : w 6 ; = G { L p u y y j : ",
"6 2 ; 6 e - 3 6 5 $ @ = # 5 4 8 5 5 5 @ 5 4 @ 5 @ = 5 q p 7 & 5 4 5 5 5 5 3 6 : + - 8 6 5 = @ 1 3 6 5 @ 5 4 = 8 e 7 6 = q 5 = $ ",
"8 5 = p p 8 7 3 7 7 9 8 8 e 8 s ~ 6 6 0 p w 6 y B 6 5 F } V N j y d h p p V e $ & 6 S j q 7 6 5 7 7 9 5 6 e S 8 8 4 7 4 3 1 5 6 ",
"U 6 = p ] ! F V y h c c J q * u &.^ h N j b c H p 7 & u $./ j j j c u H j b d ; + * W O.` b l j ~ U / F p 8 - j | ! y h u D Z Z ",
"F - & r / ` ! H h b c j s - = c $.` F F j j u y r = & h *.` ! U h V j D c j , : % + F =.$.^ ! U V V c b h - = y | | _ ! y b c y ",
"r ; # r X./ L u V h y y : - # u O.$.G j N u > j y & & 8 $.$.U H y y h y c > : - . % U =.^ ` ! E F V y y : = + q X.` W F U u u h ",
"p ; + r $.| H j u y q > > : & V $.^ D u N u c y : = & y %.| ! H y c c j c j : = + + y =./ ^ ~ V y u j p w * @ * ' *.! c y j j p ",
"r = * p ' / V h 8 u d u q : $ u @.L Z p y 8 y q q 6 & y | F u q q 8 w q 8 w - - # - s @.F F ~ d u u y q 8 - * * | ' ! h u u u u ",
"= = = 8 U y - = * = + - - = * e q = = 2 $ : = 6 = @ & q 8 7 5 @ # @ @ $ * $ = # + @ y t 6 7 = $ 6 - - 8 - = = h L L y e > 8 > 8 ",
"= @ 5 6 9 - @ 2 2 2 @ 5 7 5 6 6 8 7 7 5 5 7 7 9 = 9 6 e y e 7 5 2 = 3 6 5 6 8 7 = 6 e e 5 5 5 4 5 3 3 = = $ 5 7 8 ; 5 @ @ = $ @ ",
"u : = p ! H y u V d F d u q = S @.L h Z j J Z d p q = p %.~ b j L F j V Z c y 8 = 8 L / b l l i y V j V y 6 6 Z ) h q q 6 e 8 e ",
"L 8 = u ' / L L L ! c u u - = ) $.` j Z L H j y , = = y / ^ D x d h _ ^ b l u = + - ~ | | Q | b b ^ j ! y = = N X.^ b j ! F Z U ",
"y * & c ` ' ^ c l j c , > - + U =.` Q h c H y < w = + j | *.^ L Z j c c j y , - . = F *.%.| Q Z D j g u , = @ c *.^ _ E E h j j ",
"y = & l *.O.U F V h y > > = = ) $.L j V b F y j j - & j { *.W U Z u u u j > - * O - ! *.*.| b j u u h p : = & Z ;.O.Q j u j V y ",
"> = = L X./ c y y y c J > = = ^ X.F u y : 6 > : y 8 = : | ^ j d q q y y : y 8 * # # ! ' | U j L u : j w : = # F | ' c y u q y j ",
"8 - = d Z y 8 6 6 6 * 5 - % 7 d y 8 6 - $ = 5 6 - $ @ 8 A e 6 6 5 3 ; 6 * $ @ = + @ B N q p - 8 : - $ - - # $ e ] c r q p q : - ",
"= @ = 6 - 5 @ 2 5 @ 6 7 3 $ 5 8 6 2 1 2 2 6 5 7 7 2 7 8 6 5 3 @ @ @ = @ 3 = # + $ - 0 9 5 @ = @ $ $ $ @ $ @ $ e e = 7 @ @ = # @ ",
"y q 6 F U p 8 e i 8 p i e 7 6 } L h e q j i 8 e s q ; u ~ S N p t 8 8 p p 8 8 8 = e ~ G i h t t t 9 p 8 e ; 4 R s p 8 8 7 e 8 e ",
"c 6 = j X.~ L L j j j ! s = = U @.! H u u c c J Z - & p *.' L F U h ^ u U L y = @ $ E | ^ Q Q ! ~ ~ U Z h ; = ! | Z b E Z Z u U ",
"j = * L *.| F j u j j y y $ ; / X./ D j V j b j j * @ F | %._ j j d j ! ! u y = + ; b %.' ! Q h b F u u w = = u O.( J L S F V u ",
"y * = u *.| E E u j Z c : = - X.*.^ E b j u c j y - # > *.%./ I j h u L u w : * . - ! / ^ Q ~ j b h j u > * = d X.*.! u V u Z u ",
", = * b *./ ~ F y j j y : - ; ! / U ! u u c c h h - + : *.` ^ ^ y j b h y w : - . - U *.' L F c u j u y : * = y ' { L J y y u u ",
"y * * L _ c c r w > , , - # - ] F y c u y y y > : q * > | ^ j F j j > y y 6 - * # - p ` c y y 8 q 8 : : - + - y X.L u u > y q q ",
"= + @ e ; = $ @ @ 2 5 @ @ 3 = e 7 7 @ @ @ = @ @ 3 5 # 6 t 6 = = $ @ @ 4 4 2 7 + @ # 8 6 = $ 4 @ # @ @ + . X @ e 6 6 = 5 & @ & @ ",
"7 7 q d 8 7 7 5 5 2 5 5 7 @ 6 p - 4 9 3 5 2 1 5 $ $ 6 7 u V i 6 2 = 5 5 q 7 0 = 8 U Z p p 8 8 8 7 7 5 9 5 7 6 u F 7 5 4 9 7 9 5 ",
"y 6 - [ X.E D N p d y y p = = y ] y p d h 8 8 p q : @ > *.' ^ H d q p q y q y = * Z | ! ! j j V S G Z V y = - ] *.| ^ V d y Z S ",
"U ; 5 [ | ! D c u j y 8 - = & y | ~ U A b y h y y ; & u ;.` b c u d u h p y y @ & u | ^ ! U ~ S F ! u U , = 7 y %./ ! F H L ! Q ",
"w = * %.| ! Z e h y y : > * @ d / u c d y d u q y = O , *.| L j Z y u y y q > @ + u ` $.! h h f V F e 8 > ; + d $.X.Q L V y j j ",
"> & ; *.` Q b h u h r , : = # L ;.^ V y h V y h w - @ y ;.` ~ j u y u Z y u : * & D %.| ! L c u h u N y y = = u $.` l j h u h y ",
"y + 6 %.` ^ D F u j y > , : $ ) *.! F c j c j y y 8 O y ` F F y s y w y u p q * * Q ! Q W c d j j c u j q = ; I &.| ^ j k y c , ",
"y + : X.~ i t 8 - : q - > : = w q = 5 q 4 @ @ 7 = - = e i e 8 7 5 5 5 9 7 6 $ 5 6 p u q 7 7 = = 7 5 5 * = $ - u q q y > q y y : ",
"q = = p 8 u 8 6 9 6 8 p w e ; u P h p y y u u V e 8 = u %.~ u u y e h c Q y : @ % V / c c u i N u y y p e 7 - c c q 5 6 6 9 8 7 ",
"8 = O r O.| F j y j y w q @ + y $.| H h y y u > ; = * u ;.O.D c J u c c ; - @   % c ` / } b U b y u q y 6 + = Z [ ! b u F p y w ",
": = O h %./ E p u d y j : = + p ;.' j j c u c H > - # u %.O.E Z H h j c j w * # * Z @.' u l h u u y u y : + $ L %.| Z d p F u h ",
"- @ @ j -.{ ^ H y N , : y - # 8 &.` L j y J J y > : ; > %./ E c c c u j y u : + = F ^ ' ^ m H c ! y u , ; @ ; R X.[ L u u c y : ",
"q = O j %.` ! N U > y < w q + y ;.~ G h > y u y > : * u *.~ d y y y 8 w u 8 > O % 8 / L Q r l E h j y w - + = L *.^ ! j N y y h ",
", * * j =./ G u L y j , w > # u ! F y : 8 q 8 q : 9 % p p e 6 8 6 8 7 5 = 6 = + = q L p 8 i 8 6 q d y 8 8 * = ' | b Q h V u , y ",
"e = : ! ~ y q p : q > 8 w - : 6 s - & 5 5 3 6 7 6 = 5 6 8 8 7 2 5 1 5 5 5 5 6 5 6 p 9 5 6 5 8 5 5 6 6 6 - @ 6 p 8 N 8 - y 6 y y ",
"- = 7 N 6 8 = 6 $ 5 5 $ 6 3 @ q q 9 5 5 3 5 9 7 8 7 4 6 p 8 7 7 6 7 8 8 6 e 5 8 ; 8 p 6 7 8 = 6 2 5 7 6 6 3 7 8 6 2 6 1 5 = @ 6 ",
"e = 6 p 9 6 7 7 7 8 0 8 5 9 5 p c s 6 6 : p e u w 8 @ y %.L u u 8 8 j ! u y 6 + = V G h e 6 i 6 e q 8 e q 7 - e p 8 7 $ 5 7 6 5 ",
"V * 6 ~ J q 8 8 8 y 8 u w q # G %.! y 8 j j g u q 6 @ h X.@.F j j i h Q j u : @ * L | U u L h j Z c u Z d = $ L L L r i 6 8 p 8 ",
"p = - ^ / F Z u Z c y c y 6 = H @./ V y y u u y q = O , =.{ F j h p F y w q ; + + L / ! ! L j u Z Z u j q & & | ' U L b u c u y ",
"8 + ; @.X./ V u u Z y y q # * y $./ F j y d w u q = = y %.| V c y u h j y y =   = u | ' ! J h h u y y q 8 @ ; ~ O.) Q V F u y u ",
": & = ) ;.I j y V V y y 8 = = L $.| T c j u h y : ; + r ;.| ^ ~ F J c j V - ; + @ y | O.! L U j y w p y w & * Z %.] ! Z j p j y ",
": & & L *.) ~ j y u h q > q = Z *.H H j 8 j j y q - = y ' ` U W y y c H c y = + + ! @.' _ b W U y c Z r r & & F | Q Q Q y j u 6 ",
"r & @ N | ^ F Z d j H y y q = Z O.F H y H y u > y , = p =.@.F H y j j y ; c + + * y | ' ! j L U > L c , > * = Z $.U L ^ b c y y ",
"h = & d ;.) q N F > j w > > # h { j y y : 8 q : 8 6 # F R j e 6 w 8 - : 8 - 6 % % F L d p h y q y h c - j # ; L / c j j j < h u ",
"q + ; 6 U w q 5 - 2 ; = 6 $ 3 q e 8 3 7 3 3 $ 2 6 0 5 e - = 1 6 = 2 5 5 6 5 $ $ ; r 8 5 5 3 5 $ 5 = = 5 6 + $ w w e 6 e w 6 8 6 ",
"q 6 4 8 8 6 5 1 @ 5 5 7 6 6 3 q c e 7 $ 6 8 q q w 6 $ q E V q 8 5 6 p p 8 q = $ 6 d p 8 0 6 5 8 5 6 6 6 9 5 @ 6 0 5 2 3 3 5 @ 3 ",
"p 5 = q ] u 8 i 8 q 8 s q q @ c O.Z h u s y J y j : # e ! | l h N u j U H y q % + Z / J L c j 8 Z y p p y 7 * p T q 6 8 e 8 8 8 ",
"Z ; = p %.` _ l p y u y y 8 @ c $.` b j p y u u : - * - | X.E j N y F V u c 8 + + y | ' L h h h J u y y y * & Q | R F u u Z Z x ",
"y = & 8 *.| ^ h Z j y , > * = j +.' j c y u c u q = = : =.$.Q Q u y y D u y > o + F | ` ! F h F L y J > q 7 @ S %./ L b S u N N ",
"> ; * : X.*.' c y j y r > : - y =.( z h h y y > 8 = * h *.' F H y y c j u y > # # j  . ./ U U y y y y y : # % u | ^ Q g u u u d ",
"y # # t ' ` @.p u u Z j : - @ y =.' V j c j J c w > = , $.` Q F y u u j u u - # + y  . .^ U Z Z c u q y 8 @ + H &.' c c u y u q ",
"u - # = @.+./ j j c j , , q * y *.! h y y y u u : 8 = - %.| D u c V u y j j q = O u %.@.U F V F j y j y > ; = ) $./ ` j c y c j ",
"c - * r ` L j r > u y > y > + J ` x u p = y q - - 6 $ q Z p 8 = - = 5 8 : 6 - # O 8 | L U j c u J Z y q y - + J $.! L h c j y y ",
"y = = 6 U w = 7 5 : 5 = - - @ w p 5 5 5 $ 5 3 3 3 5 2 6 e 0 5 2 2 5 5 @ 5 $ 2 = @ 8 8 5 5 $ 6 9 & = = q : ; @ s u y - 5 8 6 : : ",
"- @ $ 5 5 5 7 7 6 9 7 7 6 5 5 8 6 6 2 5 6 8 e e q q * y [ V 8 e 8 8 8 p e p 8 8 = 8 e y 6 7 4 5 7 5 7 6 @ 5 = 8 5 5 5 5 2 @ = = ",
"q 8 $ 9 R B 8 8 e 6 8 d y q $ x S Z 8 h V p u u y - = e | G ^ h N p s u J Z d 6 & - U ] j d V p y p j q q 8 ; p F p 5 8 9 8 8 7 ",
"! q = ; / @.j l H p u u y - = y / ^ F V y h j j y ; @ y %.X.J h y s h j Z Z u - + ; ^ O.E ! F ^ G E D F j = & y ' ! k Q S c l g ",
", - & r @.` ! V b L p u w = = y O.^ F u u h u j q - & y *.' H D y j y h h y w ; O = / *.` ! F h N D j j , = & j ' ` ! k c Z j y ",
"r * & r O.$.! L h u Z y > = @ u $.*.E h g y c V q ; & u *.*.^ c s u y c u y : * O = ` ' / U Z u h u F N : = y h $./ ! Q c b y h ",
"y ; % 7 O.*.H y y u j u y - = c @.' F j p y : , y ; & h ` ` Q c u j c y j u - = O : L O.^ c Z ~ j u , e : = # c +.' ! g j c j w "
};
