/* XPM */
static char *result[] = {
/* columns rows colors chars-per-pixel */
"64 64 59 1 ",
"  c #C45E9F",
". c #C2629E",
"X c #C55EA2",
"o c #C85FA2",
"O c #C563A4",
"+ c #CA64A6",
"@ c #C66BA4",
"# c #CB6BA6",
"$ c #C765AA",
"% c #CC65AA",
"& c #C76DA9",
"* c #CD6CAA",
"= c #D06BA6",
"- c #D166AB",
"; c #D26CAD",
": c #D96AAE",
"> c #C670A9",
", c #CD71AC",
"< c #D271AE",
"1 c #D870AF",
"2 c #CD64B0",
"3 c #CD69B1",
"4 c #D166B0",
"5 c #D56CB2",
"6 c #DB6DB4",
"7 c #D76CB9",
"8 c #DD6EB9",
"9 c #CF71B0",
"0 c #D571B2",
"q c #DA71B5",
"w c #DE72BA",
"e c #DF78BE",
"r c #E16EB7",
"t c #E26EBB",
"y c #E86FBF",
"u c #E172B6",
"i c #E372BD",
"p c #E873BF",
"a c #E378BF",
"s c #E979BE",
"d c #E56FC0",
"f c #E673C1",
"g c #EA75C3",
"h c #E678C2",
"j c #EC79C5",
"k c #ED76C9",
"l c #EE79CA",
"z c #F176C6",
"x c #F179C7",
"c c #F177CA",
"v c #F37ACC",
"b c #F97CCF",
"n c #F67CD1",
"m c #FB7DD3",
"M c #FE7ED9",
"N c #FE80CF",
"B c #FC81D5",
"V c #FE81DA",
"C c #FF83E1",
/* pixels */
"6;%5bvgiw8itr5-rnfdrftpyr5+ymxwrrf8d88:-O-pbzgufgprf8++iBvzyqrwi",
"r;%6bl88r5688;;fgf56;-;;:=+6q0@;#$;*4-;4Ouui86;i6;6r5*-jvxii8if5",
";*;5u<=<;*&*#<*:;*,#;*@<=*&we*$5**&*##;5.;5;*@##*0;*;##qqq;#0;-#",
"q,*qqq0*0065qq6ijq005u6uf<4jvhfdtfhffai=#;hiq0<#,,5<<qsqq#,,,@,;",
"j5*ivcfg8igpg0-iVltfifggi5$dmndddgfkifi5o4fMnghgvgvgeq5ivcwfiihj",
"g;%8nccgdggfr5-fMnkgtfff8*$fMnkgdfffgyr:++gMmkkgffggd5-6Bnczpjgw",
"6;*8mvcfffrt55+immgfyf:u8%$8VMkk8ffiit6;X+hMnvjjggiw44O6nmkfgiiu",
"w4O6Vnktiir6r:%fmvgtyiiy6%%wMnkkifgtgt6-XOtVnkvguiprw%@-nBcfiifw",
"q=%wnvgiqfii:;-imjfquqqrr;$6bjgq868r5t-6+-pBggliiii88-%;mbkfffif",
";-%<gw6=*%*;:*=q6**#=;;;;#$8q;*#&@+%=%-+.+uw;5;+::;64*%ikkuq8566",
"*+*q6;#>@@#;;;;;6<<,9;00*0<qwe<*>**0<0q*@0eq*0,&,#**;=*;6*;@@;+@",
"i6;icgwfifffiq*jmjigfgggiq*6Bcgfjhffhgw6*0xvfhiiugifu0<fvfww5wqq",
"j5%fmvgggkfdg;%lMvfgjgyy8=%8nvgfgivckft-o5vmnlbgjlfgt;%imnjfgfgg",
"i%%fnmcggfgy8=$lVvlfgftf8*$ymVlkjffgdttoX-gVBblggfgr6-%gVvkkjffi",
"r;%fmmkgfir68=;lmjpffgri84+wnMkkffiff85%X5gMVmkgdffi8O%iMmlfpff8",
"8--gmckrfrpg5%-cmgi866r5i8-8ncfyr8ut:r6-++lmngiff6t85%+gnndtp8ii",
"5--ujwq;;;%;;#<auq<=@*=5=*#8jqq;;=;6-%*+++ahwu;66--;--+uvhqww85;",
"=#;<;;*#*#;*##;0<#@,&<*;<@#q;*&*#@&O*=@O#;00*@$@##*+=@#wq#<$#=#+",
"w8:hlwqqaqqiu55vviwqfwqwiq5ivjiwqw5euqq5;qlhiieqw0qwq0$jiq00qqqq",
"h5%imvgjhifli*%lBggiifggf5$uBncfhinfghi%+%jnvlkllcjhd;;lBgggiggg",
"8;%gVBgfgigyu*=vvckfjffdy%OgBmbffdfkxri2O;jVmcjffhii8+*fBnzzjfgi",
"r+%fVnjlftff6;-bVvgfffpyr5%8VBczffygfr5-o4gvmggggifi6-%fBmkfhfgf",
"w%%gMckhtyyt6%5cngkffgfiy;%6Vmlviigiyr6+.5jVbgffgirt6-%imbgfiiii",
"8-4gvgh6686r-;;jhiifrtrr66o6nvfift8tu-:-+;ivpii6u666--;uBliyrrr6",
"5++q5**+@#*+##5w5*#*+*@+=;+;q0***+*>>><-O-q<;@@++@#OO.#6<<=*$#@%",
"0*6h50,>0#,**@;i5&<,*&#,$;<;fii5##;*w<q-5jiaiqq0<<;0<*6af<<>q,0,",
"a<;vmkffwfiiq;4wvuasi5q8w5-6Vmkgfqqwiw6*;gBjggffhjffw*5vBblfiwpj",
"h4*Bnlfjfui04*%wmgjgfff8i;%8MnggiiiftirOOibcvkgjglfg8;;fBnlgjgxc",
"i--mmkf8wwt88-%inffftfi7f-$8mngfhif8r85%Oynmktfifgiw6;OiBBcgfiig",
"8+*Bnkhfif885*OlClgwwfffq3%uCmkfitfffi6%%gBnlkgiiiir8*-imbgpfii8",
"qO5VMkgggfw666-cMkkgffy886O8mggft8wffi8%2llkkfiipifi6%;kVvcitfg8",
"8%5mkyq7548*:;-u8=*q$@#<40*qqw05,3;<<<*$5tqi50;*;;;$;$5fu6q68886",
"w**wj00<05qiiw4ggffuiiipi65rmlifiuigz8;+Ofnfgfufiiwiw;*ipq;0<00<",
"0%O8mvjywiw86+OwMnfiwip65o%fVmfhgiff-6+ %fnccgzfii884O;gvvggfiiw",
"5%Ofmvliffrf6+OqVniffffg6-%tBmkfgigfi8-+-fBbfgtfffiw5$*lMbfgwffu",
";%OfVvcf8f85y;%8Mnggtgfyr6-6Mnkfgffdyg:O-fvvcfkdgtf88O*lmchifhw6",
"q$XfBnkfk8ity:+8Mkki5riur5+rVlfwii6ui66X*5cxlqigt88y4+%gmckffff8",
"w%%fVvgpgir8p6+gvgw66q6855-iiq0050;*=5*O=qji6i06wfu65**Nbgkuhtti",
"w;4lluuq6q66q=;1i=&*;&0;5=@6w0<*&><#;*0;0wq*<;q#<50<;O0iwi55q688",
";$5i;q;1*;&;:>#qq<<;#,99q<#0w6<;,0<q0q<5;qw<<0=<&;0;:@;qq@<&;*#;",
"w;;i00<<0qqwq0*isa555wwfuq%iBlyi87iliuq%%fliwqq5uqqq8;;eeq<,<*5,",
"f*5lhu0q6u5wi0+jBz88wfii85+umnffwiixif5O%cblyjiiggigf*#xgpqw0qu6",
"e%5vngffffrfu5Opmcfwifpr8%$8Vnjdiihiiu4OOlvnzlffgggi8%*vbzgjffgr",
"7O5mVvhifhyi6%%ymbjiwf8f8;O8mnhfifirr8; %ummzgifiww68+=vmbjgffii",
"q$%vMkdufgit85%lMnvfffw88*%8Vmkcfgffi5-X%wbmjjfiu8uw8%%gmvvgu8ti",
"5$3kMbkfwiiq66-gVzgi8ifd6;%8mnggiifgg8;Oocmmnklgwkg86+$gmcljdfqq",
"5$%fBbkhhdkdy6%gmkkifyf8y5$fVmgg8fd8:g+o4tnbcfkk8kft8%-gNggcfgfw",
"i*$iVc8tg8wr6:%ivdur685685%gjrq0q55:5;;+Okli8ii8rui6t%;zbffyftdf",
"w+*;lqw<:#*;6##qu6>;;;*&000q:*@q=,,;;=*#<0q*,**@,**;5@+suu6uq0;:",
"6;,qq5,.#,<9;<#qpq<#q10wi5#qjhwq;<w8qw=%6iwqq0;0;0<q0*#<1;&@#*#,",
"a;*6Bwq8qwwi8u=fbxiiiuftf5+rcnfffhgkgi8%%ibglff8gwiwi*;ux65qwqqq",
"f6%qmvvfiwiwi8Oimcgfwifi-52;nngfw8gifg6OOwnmkfidhiii8-$jbzfiipfi",
"i*$7mnchgi888-+fmnffwfii8-%5Cnkgf8dfi86oOdmmcktfptf873$jmvggjfii",
"8;%7mMnfiii86:5rVngwhury622wVmkkfdfii85%%dmmcgkfifwi6@+imvkfiifp",
"w+%8nnntifft8-OiMnktgrppw638Bnkktiifgy-%Oubmngggfw8t8%OlVngfifiq",
"f;O;mMcgffd7t6+fMcfdt8yp85%5Blhfifd8yd8%oymmgkhftygt8-%cVvvffrfi",
"f6o8nkuqryi8y6+gNfuf-8q::-+8hi0%;;<<6:;%O5njgigfjfr8r;Ofmkliftf8",
"8;%5lq5;*5#*=-+uu**,#,>#,=><i09&#;,#;#@;Oqq,;=;0#*;66-+iiw5;q557",
";$*;0,;<500<1:*q00@<;qwqu1$iNeqtq0qwwaq0;6qw0;,,0*<0#,+q5***&@&&",
"wqO0laq8q5qaiq#ihf6iaifii<%6Bjndfiiihff5O5jbfihwwiiwqq;qhqqq0q<q",
"xw%4nnffffffu;+uvvgffffiu;$iVngffitifgu5O4cmkvgnlghgf3%8bkfjggii",
"u;@6nngfggfu8-*imkkfiity8;&iMngh8ftiiut5X5vBnkgtiiff8-%fmncgggri",
"83+8mMkgiffi8;+iMMgdiigd8;%yVmkfifyifi6OX%cbngfffwhd6+tdmckkfgit",
"8%%5mmgyuifd6:Okbnjh88888-$fMvkfidfdtt6%X6vmcgfkgd868%-dmmcdtfhw"
};
