/* XPM */
static char *result[] = {
/* columns rows colors chars-per-pixel */
"64 64 236 2 ",
"   c #26091C",
".  c #3D153A",
"X  c #3F1542",
"o  c #3D2248",
"O  c #461C46",
"+  c #4A224B",
"@  c #4F2853",
"#  c #542856",
"$  c #552B5C",
"%  c #5A2C5C",
"&  c #56325C",
"*  c #5B315D",
"=  c #61355B",
"-  c #5B2E62",
";  c #582C65",
":  c #5D3364",
">  c #5D3669",
",  c #623465",
"<  c #663965",
"1  c #63356A",
"2  c #643A6B",
"3  c #693B6D",
"4  c #673674",
"5  c #663B71",
"6  c #6C3D74",
"7  c #6C3D79",
"8  c #743D77",
"9  c #723E7B",
"0  c #6B416D",
"q  c #6C4273",
"w  c #684477",
"e  c #6E437B",
"r  c #724275",
"t  c #774779",
"y  c #73447C",
"u  c #744A7C",
"i  c #7B4A7D",
"p  c #713E81",
"a  c #754482",
"s  c #7B4583",
"d  c #764A82",
"f  c #7B4B84",
"g  c #754788",
"h  c #774989",
"j  c #7D4C8B",
"k  c #7C5284",
"l  c #7E528C",
"z  c #7C5888",
"x  c #7E5491",
"c  c #7C5799",
"v  c #824D83",
"b  c #834889",
"n  c #824D8B",
"m  c #825386",
"M  c #875485",
"N  c #83538C",
"B  c #89548D",
"V  c #845A8E",
"C  c #8B5A8E",
"Z  c #834D93",
"A  c #894F91",
"S  c #845493",
"D  c #8A5495",
"F  c #855A93",
"G  c #8B5B95",
"H  c #855499",
"J  c #8C569A",
"K  c #845B9A",
"L  c #8C5C9B",
"P  c #965C97",
"I  c #915C9C",
"U  c #8B6296",
"Y  c #8D629C",
"T  c #8B6898",
"R  c #936294",
"E  c #9A6B96",
"W  c #92639D",
"Q  c #9A639D",
"!  c #936B9C",
"~  c #8E5DA2",
"^  c #8C58A4",
"/  c #935DA3",
"(  c #985EA7",
")  c #8D63A3",
"_  c #8D6AA3",
"`  c #9463A3",
"'  c #9A65A4",
"]  c #956AA3",
"[  c #9B6BA5",
"{  c #9564AA",
"}  c #9B65AB",
"|  c #956BAB",
" . c #9C6BAB",
".. c #9A75A8",
"X. c #9D72AC",
"o. c #9E67B3",
"O. c #9D6BB2",
"+. c #9E73B3",
"@. c #9C76B7",
"#. c #9E7AB3",
"$. c #A368A7",
"%. c #A16CA5",
"&. c #A16CAD",
"*. c #A373AD",
"=. c #A578AB",
"-. c #AA7AAC",
";. c #A36DB3",
":. c #A568B4",
">. c #A56FBA",
",. c #A473B4",
"<. c #A975B4",
"1. c #A47AB4",
"2. c #AB7AB5",
"3. c #A474BA",
"4. c #AA75BB",
"5. c #A57BBC",
"6. c #AB7CBC",
"7. c #B47AB6",
"8. c #B27CBC",
"9. c #9E79C1",
"0. c #AC76C1",
"q. c #AC7DC2",
"w. c #A87AC4",
"e. c #B27DC3",
"r. c #B77CC5",
"t. c #B37DC9",
"y. c #A482B6",
"u. c #AD82B6",
"i. c #A582BB",
"p. c #AC82BC",
"a. c #A389BC",
"s. c #AC8ABF",
"d. c #B181B7",
"f. c #B283BD",
"g. c #BA84BD",
"h. c #B38ABE",
"j. c #B98ABB",
"k. c #BA93BC",
"l. c #AD82C3",
"z. c #AC83C7",
"x. c #AD89C4",
"c. c #AE89CA",
"v. c #B384C4",
"b. c #BA84C4",
"n. c #B48BC5",
"m. c #BA8CC5",
"M. c #B485CA",
"N. c #BA84CB",
"B. c #B48BCB",
"V. c #BB8CCC",
"C. c #B694C5",
"Z. c #BA92C5",
"A. c #B693CB",
"S. c #BB93CD",
"D. c #BD9BCC",
"F. c #B486D1",
"G. c #B68DD0",
"H. c #BB8CD2",
"J. c #B793D0",
"K. c #BC94D3",
"L. c #BA99D7",
"P. c #BD9BD4",
"I. c #BD9ADA",
"U. c #BFA1CE",
"Y. c #BDA2D4",
"T. c #BCA9D5",
"R. c #BFA3DB",
"E. c #C18ACC",
"W. c #C494C6",
"Q. c #C395CD",
"!. c #C39BCD",
"~. c #C18ED1",
"^. c #C28EDA",
"/. c #C295D3",
"(. c #C996D3",
"). c #C39BD4",
"_. c #CA9DD5",
"`. c #C296DA",
"'. c #C49CDA",
"]. c #CA9DDB",
"[. c #C7A2CC",
"{. c #C3A2D5",
"}. c #CAA1D5",
"|. c #C7A9D6",
" X c #C5A2DB",
".X c #CBA3DD",
"XX c #C6AADB",
"oX c #CBAADD",
"OX c #D4A7D6",
"+X c #D2A6DB",
"@X c #D3ACDE",
"#X c #CCB1DE",
"$X c #D0B1DD",
"%X c #C59EE1",
"&X c #CB9EE1",
"*X c #C6A4E1",
"=X c #CBA5E2",
"-X c #C5ABE3",
";X c #CCABE3",
":X c #C7A8E9",
">X c #CCACEA",
",X c #D1A5E4",
"<X c #D2ACE4",
"1X c #D8ABE7",
"2X c #D2ADEA",
"3X c #C8B3E4",
"4X c #CDB2E4",
"5X c #CEB3EA",
"6X c #CEB9EA",
"7X c #D3B2E5",
"8X c #D8B3E7",
"9X c #D1B9E4",
"0X c #D4B3EB",
"qX c #D9B5EB",
"wX c #D4BBEC",
"eX c #DABCED",
"rX c #D7AFF2",
"tX c #D9B5F2",
"yX c #D5BDF1",
"uX c #DBBCF3",
"iX c #E2B6EB",
"pX c #E3BCF9",
"aX c #D4C2EC",
"sX c #DAC6ED",
"dX c #D6C3F2",
"fX c #D4C5F6",
"gX c #DBC3F4",
"hX c #DDCBF4",
"jX c #DDC7F8",
"kX c #DECBFA",
"lX c #E1C5F5",
"zX c #E2CCF6",
"xX c #E4C7F9",
"cX c #E2CCFB",
"vX c #E9CDFC",
"bX c #E3D2FA",
/* pixels */
"A.U f uX5.I L a w.G S d yXN x.hXI.l.d K.2X| + L.L V.1.aXa 1 7Xs wXh ).R.q.Q.6 3.L 7Xn.D.[ % 7XvXV.9X0X8 M 4.8.{.zXd XX=.H D.<X% ",
"m f } e '.zX X2.;XH.A.B.1 dX` y L 4.G j Z.2 1.1.` r K.) G.yX7 eXV F <.'.q v.I '.1X/.* sXn x.H.9X* V.u t.&.,.1 M.D ;X Xk 6 f 3 2X",
"a.;XK.x.<XY &.s.dXH ,.; A.N x L x { U 6XY ] P.[ gXK.~  XXX.XuX<X* oX1.2X;X% ` eX$.D.n n 6.n.eX` `  .c.S ).zXO.Q.5 Z.3Xf J.D ).I ",
"2...w.7Xc.M.m.zX<.S J fX+.w.,.*Xn. XoXhX%...3.2.2.W K.f /.eXeXM.` l.X.&XW f v.s wXoX] ,X<Xb.$ * 2X` K.4.P f.g.(.uXv.b..XiXG u.b.",
"a M.V.` } 9 3.e.q.8.2Xv.D 7X-Xi.` f . N n.| D. XfX<.* iXk <.>X2XzX . X,.( 1X' {.L >X<.oX4.3 -XuXO H.L 2 6 =.I <.b R # <X4./.k.|.",
"K L <.f L.j 6.;X+.;.: r F gX#.cXY wXl.M.z yXj q.' A.#.W n.6.2.0X*XO.<.<.>.i M.E.G 9 N n /.L oXH.a.1 .XeXv.(..Xv.*.} }.).<XI <X[ ",
").L j ' *.1.gX7.uX:X* N.A.F ;X~ 5.P.` r 0X5 *X> a K.q.-XlXj 6.yXj K.n.G t.{ B a 8.<X} 7Xf.oX'.A.4.'.S.O.f.t N .X(.(.% L [ j.).8X",
"! 8.6.s `  .G 8 qX6 j : O.a l f w.V.oXuX/ D.3.uXf ;XD.oXaX{ p.qXx.i @Xy &.4.} O.=.[ 3.lX2.dX6.XXv.v.d.,XM.s '.$Xm.4.N.] !.D 8.) ",
"..k.A.3.<.D b.*.<.l u R.A.5.X.] P.6.<.0X5.*X+.n L ;XyXH.] 9X5. .l.0Xv.h T ] s.N.8.4Xf I C.j V.V.n.4.oX0 v.3 ).9Xj.p.Z.} j /.XX~ ",
"j @ 2.' v qX<.V.} 6.;X+.a L '.P.M.oXA.*XB G a.K.A.y a i.: U.9XX.F n 0X6.{ ).p.lX2.} D f.&.=XM.Z.qX-.).3 Z y E 4.M B.).w.i 5.S I ",
", 7XQ.-.$.(.7.S.D.&.2 w.v.s.O - S.j ,.,.,.$XC.5 F.5XD.1.V.N 2 ;X<.3.aXn P.7Xv.#.I ..;.r ` <Xb.D 7.' *.qXy N $.v.M.).H.N 4.3.2X' ",
"'.oX-.W.u.$X_.qXwXR E ] V.n.d t  .b.> J { I.,.G.5X6X, B.L V.M.K.P.O.6.sX+.B j 0XI B %.G <Xg.j.1X<.=.i  .zX} .XS.v.D ~.^.l.l.' Q ",
"V.v._.@X8.0X6 bXlX{.n n /.G y F x l.X.w. .K.{ y 2 +.} wXkXV.y 0.y.L L.oXb. X.X.XD |.' 4XG C B X.%./ S [ 7.3.0X<XjXH uX].o.G gX.X",
"n.d.oXD g.V.).M S.8.b.N.B.C.yX..S.V.-X>X: f l.gX;.i.hX6X+.k 1.M.rX<X_ , XXeXq.dXeX! j d.Q.i &.*.M 9 6.j 6. X' I.k r.Z.9X&.z.<X*X",
"W.<XS wX8 g.=.V.% r.M.1.G l.K.S.F j n } 4Xy.{ B.Y.m ).V.0XhXW sX9XF q vX' 1.].D.H.2X&.N.< >.n.W./ oXS.Z.n.M.r 7X-.S $ /.0X3.f 1.",
"*.n &.O 9 v.2XS 7XY L *X3. .7 kXf l.B.n p.D K.D.<.4X& j hX~ :X} a [.4.,.t.] N qX( /.i [ 7.iX,.[ oX>Xv.v.'.;X<.]._.}.M.R 3.` 0XzX",
"m.v ).>XN >.).n.2.| ).dX%Xs.~ L.dXyXI.5..Xh % pX2  Xs.j H.>X..5 6 ).0XJ V.S.6.D.% n.i ;.m.y } w.xXu.W sX9Xm.$.8.K.e.p.8X&. XeX%.",
"8  Xd.g.<X{ G Y.pX..V.I.b.D aXk 6 p.M.{ n.kX_.: D M.|.{ '.~ 6.6X! S +X.XB./.3 '.!. .q L * ,.1X} m.Z.4X2.P q.&.<XG D *.OX1Xf *.W.",
"8.S S OX .lX0XL.jX<.0X!.s.i.d ~ ' 9Xe # aXjXF Y.l.i.wXL - 3.K..X X$ } 4.l.;XM.D.( N.p.7.m K K.v.&.@.y eXM.f.].&.%.1X(.<./.3.j.xX",
"e _.Z s *.q.e S.2.O 4X6 q.tX4XL B.k 4X4XpX/.uX&.e 6.4XyXf zXXX2  XK.i.a D.V ].} @ gX4.=.] pX3.6.v.w b ' b.y.1.U }.d.(.p.K.e.pX5.",
", lXy t.;XD >.`  X].kX} M.* `.H.l.| & A =XR.3.O.Y *.6 f ,.6.7XD .., ,.+.). .r P.n.[ r e.` d.y d B ' B.zX7.P._.|.2.@Xd ` B Q 7Xp.",
" X! wX`.<.2 x.W wX`.L +.H 2X-XN qX;.0 V '.2.0XD  XA.I ,.P.N 6.*XG 4.K.7 f e qX&.3.2XV.k.K.uX4.N v.=XI z.' <Xn <XqXf '.v.x.4.&.e.",
"L i >XyX).q q.L.+.6.$XM.M. X/  XsXW ).6.D L aXd u ,.f 9XO. XzX*.0XG } 2 2X{.m `./ '.N.'.{ S 5XB W t ( v.2 k R n.0 -.L d 0XP 2 7X",
"&.I n.M.V ,.! n.1XeXV.~ ] d y n.0XwXl.6 yX.XJ.1.y S l.0XF s '.d n.} 2.Z.' ,.7X% I lX7X`.} .X2XS.N.].p.2.5.1 l &.2X6 S.I f.<.V.@.",
"P ;..Xj y.1.B l Q.,.3.]  Xy 4.| y ;X7X1.D | ] P.! 9Xs.H i.@XB.d d L =Xq.1 V.9XP.3 ` gXM.,.y Z > ) wX6.+.<.] W G 4.V.m.@.' ` D & ",
"b aXaXL.` 7.,.Q Y F ).l.L S : *.] K.P.l.'.;X} y.z 2 q w .Xd G f @ &.n  .h.oX).*.;X0Xm ( p.l.A./.V.f ] ` :.4.Q.L.=X;.t.E.N 0.4.n.",
"G e /.K.I G 6 ,.Z.& n.2.5 ,.`.x. XI 1./.Y.N 6 S ] |.5. X].[ n.h S.q uXd. .n.D.Q.] q.|.f R wXI A.L S l f { F / H.- ,.yXuXb `.D.S ",
"Y ` L 6.{ v.t.;X2 1 ;.;. .U V.] ) 2...}.S.`.U.M.+X+ 4XY.W ` 2 kXgXd M.N 7 2.j .X3...&.- W uXoX@XwX7X5X4.f.h.;.,XP.n + G 3.K.lX/.",
"W 4XwX' ! N t.> 2X2XK. XK W L jXv. .p.oX<Xq.B oX1.- e oX; / XX4.gX` p.^.S.6.S.` E./.3.uX..n.6X+.iXwXv.] '.j F ,XB J.R =XH.f ~ F.",
" .K.f ;.,.f { ;.l ;.K.a K q -Xu 7XF =XqXS ) ].6 c.' J.B.D.].t.n.A.K.P ).0X4.zX0X% n.F e ;XY.e B.V } | b.p <.Y  X/.n.uX .].' ).` ",
"p.u Z.H.D.) i ) y S f 3.6.F k  XS.K. X .L +.} k L.#X$XuX).v.K.K. X.X).v.K.} l &.n S.&.<X7Xe.- 6.K.J <X,.<.$.` K..X .A.- d S.lXF ",
"6.q h oXjX} B.uXN l.} 9.P.l.J.i.V.n.t ] n ;.] bXx.z.i U y n.Q.( ] ;X X6 3.S z.b.*.{ $ / P.g.dX^ vXgXoX3 v.5 _ v.Y O.G.5.P y gXJ ",
")  X X> M.R.rX>XwX5XB H.XXK.N '.'.- 6. XV.] eXi.' jXvX4XA.6.a ) rXgXG D `.lX1 -.w.L V S l. .% kX1...G q.> : k v.4 8 ` 6.z.6.S { ",
"` Y L.] w.>X*X,XL K B.J.K., L =X2.2 ].+.n.x./ U Z ` % 0Xq N `  .&. .R.] D.f ].E. XS l 7X6.8.q.Z n.K.u.v.7X1 #.Z v.6 ,.:XS K.O.4X",
"F 3.w.x 6Xb uX~ V.a X.{.z.{ h K ].B.;.yXI./.G > u >Xi.6 p.i.).N V 7XL %XM.5 G m n Q.B l.) ).;X=.,.P.w.W 2 ` B.m F &.D | S l.5X].",
"{ 3.U wX-X( 7 >.d w.h o.O 6.n.5.F } G ( ' 1 L > S M.:XdX' uXt I.U e.a n.e m.2 ] 4.D.m.3.[ j /.*.;Xy 8 ;.2X5X> ] &.6X] h {.> K fX",
"}  .} >XkXM. XW ` %X<X;.H.xX( 5 A.1XL.1.'.M.7 P.'.` ` j 4.1.N  X1.n ).a <Xf S.!.L E }.&.aX X/.p.6.( oX1 h =X;.s ;.yXkX/ 5X| } +.",
"S ' ,.| yXeX).( K.3.'.>XO.: d ;X'.] ` { ;XL : `.D  Xy y :.S. Xq.,.n.;XuXd.4.XXd.l.} yX5.u W '.O.7 ,.3.D.&XgXz.4X} V.;.) H O.3.`.",
"*.M.'.5. .K.B.6.,.H d s wXs #.M.N n I.A.G A.W U k K.p.`.| 2 6XXXN ,.! i.V.4.6.] : ` ' l  XK.q.} n.f.+ L ].-XI n.k 5.p.' ;Xt n ) ",
"n W /.S I.O.;.n.l.t.~ vXJ.% -X4 dXyX XH.l.4. .V.` L.S 7X~ K.z.` <.*X .,.kXJ 1XqXf 5 e 4Xf y 6 &.'.d } n.t.` Z H } e.&.hX*.^ D { ",
">XS t 4.n.5X7Xz.'.M.0.4.` { D - J / 3.O.w.M.;XxX>X} e b.K f...m ! e.;.Z v.[ *Xa v.N.7X3.' cXy pXw.H.} M./ o.>X;X` x.M.H <X=Xb.M.",
"4.b.D.M.P.S.O.0Xw.O.#.].a /  XX.#X6 @.bX{ uXO.q.4.{ 3X/.@.} 4XL  . .[ dX>Xk zX4.' k 0.q.M.| ).a ^ 4./ 7 ` S i w.M.,.jX X).O.<XW ",
"_.Z '.K.zX` 2X: t.L 0.6 | l ) eX| l.dX/ aX1 l.XXL | h.: H.0X*XA.K.K.q ' F X.%.} Y.V.S *XF W ].O. XS K.;.q.1.V.K.6.I P P <X_.8.m.",
"`.`.{.;.uX;.L L.;.*X.XK.Y <.| F O.^ J.{ n.3.} m K.;XM.F.p K.{ P.gXcXgXK ` 5.` I ,X} '.wXD B.yX$Xv.J i.J.l / *X6.( ].V.I W. XlX<.",
"dXH.m e.R I n 2.n., D F 8.1.K.C.0Xl.5 D ,X$  XrX@.S / a B &X`.2 0X2.N { ,X>Xe h q ,.] } / `.G N.$ Z ( j / M.[ 8 C xXi E.h.1XwX,.",
"G 6 P.;X6 r L J .X2XI.A.*XY 5Xd D.z X.[ y.aXu I.J.#.] <.XX}.@ b.N | 0X6.+.B | ,.` ;.S.1 / M.P.f : q.K M.7XQ.*XP S.6 $.q }.`.b.9X",
"> r ;.` g.K.lX'.3.~ J.S K.- C.,.% S V Y 9Xs.1.0X5. Xn.M.K { f ' >Xy N  Xl.f K.D 1.Y S 6 kXB.5.].=Xp.C.$ ] e.Y +X3 i 2.$Xq.0X7XL ",
"} v.1.'.6.b.<X).{.2 ,.wX{ *XL  X,.A.l.). X0X6.N G 9XP.{ 1X`  XX.N.tXuXw.]...<.I +.gX3.gXp.P._.G 7.=X6.A.n.e.8.V.9 N 0.v.a n.;X( ",
"i ' m  X1X] v q.6.oX+.).Y.yXV.0X5X0 ].X.H o +.'.l.j 7  .q gXgXS.U ].t.eXK ! U ).B L  XH.oX<.1XW. .jXeX.XO.G k ...X] l.D.G u l 5.",
"E.%.gX>X4.j.<.N.M.<./.K. XY.).} P.V.5X-XdX).M.+.'.6.v.+.@ %X' K.S >.u M.V.L / ,X,.L.N.m.).b.A.6.(.W <XI.W Q  .<.1.n.q.hX[ ).;X4.",
"7.m.).Q.7.Q.Q.[ 2 .X.X<.'.3Xw.*.n.c.Y l l.<.q w.8 bXi A.|.$Xp.- x 3.V.L./ L }.) oXeXe S.@X.X@X_. X].$ 1XX.2.J b.N.%.4.3.e L u D.",
"j.X 8X4.4.[.<XG } H...D S 6.S.j N 7  .n.X.' @ S v 9Xz.P.5 F ' i.>Xn.3.l.` h m.8.).` 7X8.v.y N.7.E.j u P 8.} H.0X# q.0Xn.$X} r I ",
"r.,X!.|.Z n.m.b.9 Y q 4X` } 0 zX* I S.).` l.y Y 2X{ M.x x.b = | q.-X;XD.S.).u <Xr.V.,X..d.2X< B &.G f ,X1.0X0X~ gXp.p.p.eXu.v.W ",
"0X,  .5 +Xv.S.).L | N L {.wXf X u ;XV.s Y @ F S 3.gXeXb.+. . .U W q <.bXm 0Xp.N t.Z.[ &.Z.S.*.n 4.K.v.6.1 D.f n <.=X;XM. XY /.2.",
",.*.*.<Xj f.,.i.M.V.3 ;.G yXi.} f 5.X.% -XD O.#XL 9XyX@.K 4.Z q.S B | y i v. XM.y &.f.*.7X<.<.+XD f.0X/.1.) Q '.] ` qX} I /.'.8.",
"*.E.S.A v.eX .6 Z.v.N : -X2.F +. .V.f ).N ,.3.1.V.J <.2  XI.v.).p.I.b.Y...i &./.j 0XqXA L > 5.pX<.`.L 3.{ bX.X2.4.eX7.8X- =XD.+X",
"v.u.oXF 2Xj L | * S S 2X! T.n.Y.O.> wX] 7XZ @ 0Xx n +.n.! I -X XfX^.s f 9 a {.n.r 8X,.t /.a f 9 4.Z.5X*.< }.$.,X1 K.&.8.i m ' P ",
"&.2X;X%Xt.1.,.2 4Xn.l L W O.K ^ 3.K.S K.M.` ;X Xx.{ ` z 5.M p.,.c gX .b.=Xv.1 4.[ <.a ] 6.D /.oX2Xe.O.V.3XhX4.v b D ;.Q.*Xe.` qX",
"6.M.v.A.{ } V.l.D.4.V p.x.] x.A.B.yXA.] bXy L O 3.cX0XN.S ].U ^ [ z.} w.y !.).S.;.eX/.( n.).p.v.- M.S 3.uXG &.n.6.jX< `. .;Xl.r ",
"{.N '.- H.$ J.*X=XG 6.eXS.6 5.S P.L 4XV n.l.l.D N t.6.{ V.'.O.3.a `.` n.*Xe.4 ' D.X.`.Z 4.F =X>XS jXD.I w.}.v ` L 4 3 b D /.v..X",
"pXK L l.S.=.a L.V L bX9Xl 3.M.i.L m.I.[ : f.wXW v.L   vXN.) M.3.J j *X<.5.P.1 V.<.K J &.S ( V.=Xj L P.oX0XG S qXt n.6.;.S gXD sX",
"gX>X].U 1. XS / '.j eXc I.L i.4XX.a h =X<Xy ,.1.L ] { 3Xl / 0Xw.q.` 5.y W P i L G V ' s ' /.].4.&.,.W n S 2.6.;.wXG uX@.`.S.,.S ",
"G wXI 2 P.J.0Xr 5.K.y  . Xx.).-X! 3.N y /.N Y . D.hX3.` 2 f I.>XF.c.4.=Xm.S.;X, S.&.l } 2X7X: =.,./.<.;XM.*X} 3.b.(.L B.l.n.<X6X",
"v.B f.).' ).XX{ P.& ( z.s 5.v D #.v.B.} #.5XL N.qXn.} ] F ,.=XI.^ g { {.L I E.N ] qX> s 6 i.p.' lX/ O.=X: m.M.@ 1.&.p.p.q.r Z n "
};
