/* XPM */
static char *result[] = {
/* columns rows colors chars-per-pixel */
"64 64 256 2 ",
"   c #770309",
".  c #7C010C",
"X  c #70080B",
"o  c #7E0613",
"O  c #85020D",
"+  c #8B020D",
"@  c #85080D",
"#  c #97030E",
"$  c #870716",
"%  c #8B0313",
"&  c #940214",
"*  c #9C0214",
"=  c #92051A",
"-  c #9C041B",
";  c #950A18",
":  c #9B0A1B",
">  c #881017",
",  c #98121C",
"<  c #A4020B",
"1  c #A30215",
"2  c #AB0116",
"3  c #A90A16",
"4  c #A4031A",
"5  c #AB041B",
"6  c #A40B1B",
"7  c #AC0C1C",
"8  c #B30317",
"9  c #B3041C",
"0  c #BB041C",
"q  c #B30B1E",
"w  c #BB0A1E",
"e  c #AB121D",
"r  c #B5111F",
"t  c #84231B",
"y  c #950D22",
"u  c #991624",
"i  c #A70622",
"p  c #A40B21",
"a  c #AC0B22",
"s  c #B40522",
"d  c #BD0521",
"f  c #B40C23",
"g  c #BC0C23",
"h  c #B90D29",
"j  c #A31323",
"k  c #AC1424",
"l  c #A91929",
"z  c #B31325",
"x  c #BB1224",
"c  c #B61728",
"v  c #BC142A",
"b  c #B41B2C",
"n  c #BD1B2D",
"m  c #A71F31",
"M  c #BA1E32",
"N  c #952B32",
"B  c #A9252D",
"V  c #B7222C",
"C  c #AD2837",
"Z  c #BC2333",
"A  c #B92937",
"S  c #AC383C",
"D  c #B8323B",
"F  c #C2061D",
"G  c #C5101E",
"H  c #C30C23",
"J  c #C90B25",
"K  c #C30E2A",
"L  c #D30E27",
"P  c #C31324",
"I  c #CB1425",
"U  c #C81A25",
"Y  c #C4142B",
"T  c #CB142A",
"R  c #C41B2C",
"E  c #CC1B2C",
"W  c #D41426",
"Q  c #D3142B",
"!  c #D31C2C",
"~  c #DB1C2D",
"^  c #C71933",
"/  c #CB1C33",
"(  c #D41D32",
")  c #D41834",
"_  c #DB1C33",
"`  c #E31D2F",
"'  c #C5242D",
"]  c #CB232D",
"[  c #D3212E",
"{  c #DB232E",
"}  c #D4282B",
"|  c #C52333",
" . c #C32637",
".. c #CC2334",
"X. c #CC2A35",
"o. c #CC253A",
"O. c #C42B3B",
"+. c #CC2B3B",
"@. c #D32333",
"#. c #DB2434",
"$. c #D52A34",
"%. c #DC2A35",
"&. c #D4243A",
"*. c #DC2539",
"=. c #D32B3C",
"-. c #DC2C3B",
";. c #C6343B",
":. c #CC333C",
">. c #D5323C",
",. c #DB3638",
"<. c #DC323C",
"1. c #E22434",
"2. c #E32A35",
"3. c #EB2B36",
"4. c #E32C3C",
"5. c #E82939",
"6. c #E43136",
"7. c #E4333D",
"8. c #EB333D",
"9. c #E53A3E",
"0. c #AB413F",
"q. c #B03043",
"w. c #BA3846",
"e. c #C82D43",
"r. c #D82C42",
"t. c #C63342",
"y. c #CC3343",
"u. c #CA3A46",
"i. c #D43443",
"p. c #DC3443",
"a. c #D43A44",
"s. c #DC3A45",
"d. c #D9354B",
"f. c #D33C4C",
"g. c #DC3C4B",
"h. c #CA3D5C",
"j. c #D83C52",
"k. c #E22C41",
"l. c #F02F49",
"z. c #E43442",
"x. c #EA3543",
"c. c #E43B45",
"v. c #EC3C44",
"b. c #E3344A",
"n. c #E33C4B",
"m. c #EB3D4B",
"M. c #F23C49",
"N. c #E63D53",
"B. c #B8474E",
"V. c #AD6D6F",
"C. c #C9434C",
"Z. c #D8444A",
"A. c #DD434C",
"S. c #C84954",
"D. c #DC4452",
"F. c #D64A56",
"G. c #DC4A54",
"H. c #CD575D",
"J. c #D8565A",
"K. c #DC525D",
"L. c #E34447",
"P. c #EB4147",
"I. c #E4434B",
"U. c #EB444C",
"Y. c #EC4A4D",
"T. c #F4464B",
"R. c #F1444C",
"E. c #E55B4D",
"W. c #E44452",
"Q. c #EB4553",
"!. c #E44B54",
"~. c #EC4B54",
"^. c #E6455B",
"/. c #E44D5B",
"(. c #EA4D5B",
"). c #F34A55",
"_. c #EC5255",
"`. c #E45658",
"'. c #E4535C",
"]. c #EC535C",
"[. c #EA5B5C",
"{. c #F6575B",
"}. c #F1535C",
"|. c #E8615E",
" X c #DB4B61",
".X c #DA5965",
"XX c #D75C6F",
"oX c #E45464",
"OX c #EC5563",
"+X c #E45B64",
"@X c #EC5C63",
"#X c #E9546B",
"$X c #E55D6B",
"%X c #EC5D6A",
"&X c #F75764",
"*X c #F35C63",
"=X c #F35D6A",
"-X c #DA656A",
";X c #DB6D74",
":X c #E96567",
">X c #E4646D",
",X c #EC636C",
"<X c #F36265",
"1X c #F4636C",
"2X c #F9676B",
"3X c #F36A6D",
"4X c #F4726E",
"5X c #EC6B73",
"6X c #E86876",
"7X c #F36573",
"8X c #F36B74",
"9X c #FB6A75",
"0X c #F46C7A",
"qX c #EB7273",
"wX c #EA777B",
"eX c #ED737C",
"rX c #F47375",
"tX c #F4737B",
"yX c #F8777B",
"uX c #898A7C",
"iX c #F4807F",
"pX c #D77687",
"aX c #F36A83",
"sX c #EE7C84",
"dX c #ED7A89",
"fX c #F87686",
"gX c #F37B84",
"hX c #FA7D84",
"jX c #F57C8A",
"kX c #F97F90",
"lX c #EC8388",
"zX c #F4838B",
"xX c #F68689",
"cX c #FA838B",
"vX c #E6918F",
"bX c #EA8792",
"nX c #F58592",
"mX c #FB8593",
"MX c #F38C92",
"NX c #FC8A93",
"BX c #F4899A",
"VX c #FC8D9A",
"CX c #F29191",
"ZX c #F99597",
"AX c #F5939A",
"SX c #FB939C",
"DX c #FB8DA3",
"FX c #FB95A2",
"GX c #F799A7",
"HX c #FC9BA3",
"JX c #F79DAC",
"KX c #FBA2AB",
"LX c #F9A5A9",
"PX c #FDA4B3",
"IX c #FBAAB4",
"UX c #FAB4B9",
/* pixels */
"Q.J.!   Q ! FXm.}.cX=.6 <Xp.t.A R.O ~ T 7Xm.| J.F.@.5 f {.H /.S.1 GXgX7Xa y.M u :XBX#.AX0Xy.BXQ.( y..X@.MXIXUXI 6.U v.T.C.G.( g ",
"Y X.^ Q.j.J.>.^.tX9.R v.* !.& F.R tX .'.[.t.G.& +XkX& . m.g lXA jXg @X/ SXf.y - 4 u -.NX; 7 /.NXc.- A E O v x #.& KXH Q.[ Y.+XQ.",
"z.xXU Y.'.X.n.Y -XK.NX%XS 5 cXv L zX+ r I.1Xy I ! o.cXb wXxX .x #.D.[.9 c.c u d..Xx _ 6 e gXj jXh #.OXjX= BXF.F Y R &.e z.JX<.4.",
"_.>.A E R.E D UX@.5 ^.3 t p.g.: yXcXU * =.=.8Xo {.X.= b MX,XZ.P.s.R @XOXPXz U.W.Q.a >X_.cXP r.FXn.bX9 _.FXS.c '.ZXw FXC.) 2.*.-.",
"_ E O r zX  %.s :X+XL 9X/.5XP I ` 8.e i.oX&X# z C.OX= Y l @XrX) i.j `.#.Y JXt ^ :XFX_ , e.eXZ oX| JX) D [.~ 1.lX( zX! } ;.7.oX%.",
"mX%.v I UXw 1.<.x.9 * ,XY.f s.v.' 7.3.I.5 l k BX0 ~.S.NX0 K.SXfX,X!.6 E Z.^  .UX0Xc.@.5 T p.9 AX&X_ u.-X3.7.cX@.a.Q P 1X+.t.rXZ.",
"5Xn.-.*XJ J j.+Xa a.M.9 & P ~.7X7.a.n.1 U.p.I.c p <.* y.NXvXZ.B &.: r.D.V n.N.oXH.n.KXMXO.K.k.0 3 &.5X/ 8 2 G.VX<.P bXHXa.9 s U ",
"9.$.<.Y.hXIX .D. .[ 4 /.V p.; I.=.4 rXqX: DX:Xz.A l /.2X+.1.3 s.Z.SXOX;XK f z a.8X& b.xX1 u VX`.X c B 7.4.nXw [.: 9 ; n.bX@.@.v.",
"/.0XM G.VX<X! >.%.Y.g `.zX(.`.t.! rX7.yX~.H c.I Y a.`.. cXNX@XC.....+X[ m X.Q.| 4 4.tX  R 7.kXz.w.j ` z.X @ ! Z.' w PX!.6 g I.5.",
"A.cXOX;.~.j ; ! gX<.p.S.2 x / FXZ AX& U.7 fX' *X$.g nXM r f.8.*.5XCX@.p.X.sX!.x.q ' `.=.2.7 fXF.6 c.0 }.FX~ q C.E E ,Xf.x.M ! ~.",
"g.HX#.p.{.@.qX7.y.l VX;XlX%.9./ SXsX] Y fX<X^ : =.-.k.V O.gXsXg R t.4 i.@XE 1 {.Q.n J a.g 9.,X{ 9 ~ 4.sX& q 6.#.& gXY.u.p.Y.[.0 ",
"FXZ.k s.w 2XP &XP 5 g.h $ 6 fXLX}.,X@._.I ~.@X& f.X.0 ZXu d.a & g ,.AX5 ~ > {   ;X4 SXf g tXpXn Y #.g.+XHXw ~ @Xz R H 6Xg.x.& ).",
">.8.M.P gXV -.I u O.P %XoXP H L.. rX2X( R = n.G.rX#.%.OXw.-., 9X5.R 5 qXHX7.b I.SXn.0 ~ ' d SXZX  Y.P.OXn c.# PX4 4 zX2 * 6.jXG.",
"3XT -.6X] ! ~ +.0X~ MXo.% KXc i X.wX7.f.I.9.Q.a Y.R xX#.H.>XC B.dXsXc.5 NX] ,.s.$XO i.<X! p.c ! SXe <.AXo.V T U. .H & 8 3.zXZX& ",
"c.=.x.7XE 6XA.J > -.y.Z.#.s [.f 0Xt.7X| H |.F.v 5X[.& ;Xs...=.K eXoX).aX+  .x :X<.d.H 9.d A.z 2 KXE 0 2.j.3.!.% A [.-.$.{ U #.I ",
"z P.w $.*XxXv.$ W.1 B.[.&.JXtXO I 6X..6 m._.SXU NXv.b.%Xn - a B.K.H { & l.LX:XPX`.H Q.I NX{ y.9.# T Y.E mX-.-.n.4.2.U xXLX] G.9 ",
"R.eX3.E Q.(..X[.r.Y L.Q J.l ` W.) +Xf @.=XE x ..Z -.} c 0X1X0X#.cXc...5 Z.k q s.bX8 4X[.k I 2 v.9.jXv.4 4X@.2 3 4 R K A UX=.>.{ ",
"*.,X. 5 -.H 8.i , / :.g.L.7.z q B T p.* K.l M #...: MX].c J T #.N w e * :.jXK.* ;.#.E E cXL E U @.:Xs.4 0X! ( ,X<.$.M.g 8.&.R.{ ",
"#.'.MX= LX&X8 5.a D.Z (.Y.+XS.=XHXa R s.9.* N.yXJ.s.C T '.m.( F 9 8 z * b.6 : SX..J.fXT #.8., NX( 1.H P ~.Y ,Xw ;.$.E w 2 #.' ,X",
"! :X2XH <.7.~ S jXB 6Xz.  .._ * ~ 5 -.* [ `.6XT f ) >.f ,X~ i.x w.z.ZXf.:.SX2.+.n.' X.U.v.( cXr g O.eXp.4.ZX8XsXL.E 3.@.N.[.H   ",
"%.<Xt.7.4 ] 2.G.y.a = n.$ *.BX( [ w F.D :.= | ).`.i.Y.^.8 L.8 Z.hXs i #XJ.zX].qX@.X.@ C.i.jXs.@.& d.Y x.$ KXi.% =.#.( Q.f 1.hXcX",
"KX+X#.,X^ r.m.D D gX$ $ 7 J 4.a `.A.aX& v A.~.o.D 4.%X! 1.[ ].dX@.7 p D.# Q.9.>Xc.!.7XZ ).%.BXx.a S.[.6X] P G.<.] #.8X9X[ c e.n ",
"' z.L >XG.Z.h j u K e R.#.v.Y.T.@X-.!.X.R.gXn.7 G.b 9 yXZXW.y.xX1.ZXfX8 zX] sXF.U.] ..gXw.*X= -X9Xb <.K.#.xXi.1 z.F._ Q.].=.=.2.",
").yXQ.3.P G ! / w.A {.c.yX9XrX~.z zX! @.I ,Xh AX^ !.SX- >.fXF.0X5 f.q g $ NX. n.^ f ; Z / D ~ <X3Xg.jXE 4 cX- 0 =.T }.c (._ [ 7.",
"i.k }.M.].8...7.(.@.zX*XT g.7.5 : <X$XA.]._ W x.<X-.G.Y _ ).y.; e.PXy   ] u PXf j.[ +.Z 4 w B BXLXx.L + E ).R DX1XY U 9.&.&X].l ",
":.Y 0 R.).MX).P.Z.T Q.R 7.P ( c.s.u.! k <XeX4 8 0 1 f.@.v  X+X8 HXfXVX^.( /.: GXuX- & A 5 5.eXi.u.@.j + v.<X9XgX2.*.& ! I.a.s.ZX",
") 8X& / eX4.& .XV.p 4.l f.8XK @XFXT t.tX-.= !.! i.Y.8.[.yXhXm.V >.'.s FX; 2.~., }.s 7Xl C.@.` HXC D X.lXz -.Y.#.A q 0 q 6XY 9 @X",
"R.)./ ! _.] 3 E +X9 9Xd 6 ].2 k.g f.1Xe % p 2 -.m.!.[.Y n n.$.-.3X{ ,XCXy  .aXm.#.oX~ v z &XF ~.KX1 x * FX#.U.4.: NXC / oX5X2.( ",
"x Q =.:Xa.*Xw.H.[.I.2 eX/.n.* a.BXfX..h /.Q h i ZX4 OX@XH g p.~ FXPXR }.* t.= $XK.4.7X#.}.BX. C.Z.u r.Q..Xt.y.a.qXDX_ 4 $.4 n LX",
"p.5 : g.Q !.P E.MX<.SX9 I n.M ).-.z.y & G.v M yXf.c * +.U.n 0X8.#.s.-.T rXg | Q.dXY z.P MXQ.n.DXJ 9 I ! [ T.A j.Y L.,X9Xs T &.FX",
"mXF.t.MX~.}.p.<.v 6X,X8 3.0XR 5 v.9X#.*XzX<XHX%Xf.1 gX` 1X}.hX1XG.tXk & % ,X$.X..XfXL BXz.h * *.E F.* -.4.>Xc.Y JX8XD >XN.oX@.m ",
"^.l FXN (.G.x R *Xd.I.< 9XHXn y.Y.& : *.@.( ) ! ^.5XmX{._ >.&Xs / 6 fX! & i.5 C C C.bX+.MX.XV %.zXs.v.wX].@.i.H } C.LX& Z.H :.D ",
"jXB 5 ) *Xh F.4X..7.@X, 6 r O.= E h s 1.R.m.3Xr [.H ~ ` c.l : LXKX^.J.=X%X& s.4.@.q.>Xm.{.h 3XwX:.qX-.W.q.-Xb O.3Xf LX/. .$...-X",
"eXY x +Xf.C yX= m.'.` $XeXGXx 5.1.T c i.= ;.G.yX( JXR L _ O.U.2.Q 1 w...n.cX; Y bXNXi.e.XX;XG.6 u lXeX=.+XU @.oXE BXY.1.1XHXqXb ",
"yX! ; G.s.) v 7 @.h % PXz Y >Xb 1.5.1X5 T a Z o.-.H yXVXI.~.OX^.hX..x g.q * G.GXAXU.4 T H G.= !...+.,X..Y 2.! .X$Xp.e 7.#.x e B ",
"T & b.( T.i.Q.eX1 S.u o $ #.f 7.z =.r.*Xp.MXh ~.I.}.' ).C.C.G.=X'.b ] 9XK '.F.'./ -.gXmX+.GX>X&.e.G.z.w.: x t.b._ O ZX*XD s ,X[.",
"I tXn.{.HX}._ l ..c.a T.U.I 8 g.L c.nXA.*.'.= C 2XF.u.W.3X&XQ.k.6 :XF.KX..T s q.i.s b./.w.5 CXQ A 0 m =X:.tXnXSXxX8XI R m.x g.n.",
"P ].0 Q.wXcXeXY .. .{ .XGXxXzXH ! kXI -.=.wX1.m.BX@.d.  9XNXP _.n X.F.s.g ..y $.5 %.1Xe._ { IX@Xh.aXT g.% u c Y.! @.BXU - 7.0XJ ",
"f U.n.Q } G * ! NXS.= CX6 w + Z j %X& L.u.+.t.j.].J NX2Xj w -.r c.Y.AX-.g.%X;X>.o > i.E F : tXg ^ p.a.2.&.U A.8 ! O T.Y.<X^.^.gX",
"1 x./ PXT `.*X8.| : 6XgXr.4.@.).zX<.>X%XFXZ.@.> lX5 +XL I.NXmXm.& v 5Xb '.H 4 1X7.* 4.T T H R c.D.#.%X*.* + |.c R >.@.rX6.ZX~.= ",
"P.7 1.4 ! ).,X}.`.k T -.h $ 6XKX,XY 4.,X#.SX@.P SXI.T yXP ~ + Z.9 -.g.& 4 h g o J BXgXl S.i.tX,Xw :X6X4.VXtX&.E q L T <X=.3Xi.Y ",
"].6XE G E 8 -.s.c.O.| p.g $.:.s.h .X'.yXK 1 5Xg.U ..I 0 F =Xl [.U.K.1X*.GXE y.* 1X@.J BXn.& 1.mX@ * n $.U <Xx NX~ 9 <Xa 7 ! dX&.",
"<X7.2.wXe.a -.! I.nXjXoX@.jXV P B.5XU.AXQ.@.z.* 9.2 x :.qXn.$XJ.T 8X~.n j.& c.( K.. @.@.@.K y.( FXO g '.aX1.#.~ f 8.g 3Xv.NXz 1 ",
"r.m.fX X8.].R w.+X_.[ P yX4 _ yXL.yXk.Y +Xn.OX= mX4.N.H ,XgXk.( OX1 aXaX& s y.'.(.W.g 8 9 7.u Z qXg 4 Y 0XT z./ ( }.W.n.{ { z qX",
"X.~ =.,.q }.&Xl ;X3 Q.{.R tXtXY 2XSX`.N Y 8 7X].9Xc.NXcX7 A.h *Xp T 1 @ Y.z.,.NXp.-.F Q u XX0XP 9 N.:.#.G.c.T LX8.{ [.J LX>.+.= ",
"8 #.#.] [.j f FX. Q @.ZXf.-X#.W.9 k V ~ _ I 1.J 2X#.qXZ.@XC.p '.6XGX* & +.x b 7X-.,XN.BXD x 6 ~.8.bXe._.].yXI q g Y f R SX>X%X1 ",
"dX0 ;XE zX$.E i.P ZXa.-.~.L.H 5 % i.W.m VXu.a Q.u.q z.V j.Q Z t.3 i.5 & V 0X..k ' ; $.! 2XA.K.& 8 Y I w SX2.z.xXzX4.$.q T +Xi.JX",
"6 R D.T HXcX_ I [ L.  '  .U E DXHX>.-.I C.T $.JXyXI...#.9XA.u.j o.& F.d >.x F.sXu c ' b 4.z.0.wX*X;XL J N.ZXp.5.L T G.I F.*Xu.Z.",
":.A.8. ._.>.=.* MX( -.zXO j.p.m.%.1 =XB z iX1.,Xa %XY a %XO.7 @. Xf IX1XA.h x .XA v g.*XB L sXL.%.) OXfXK HX&XoX_.q 1.c.T.; /.# ",
"|.c.].}.X.S.rXy.2 g = =X+.T K...U k c z Q ! C | = s tXp & Z C.4.OXY 5 gX7.I.v./.g., - 8XAXMX$.~.4 v.Y.E f hXl 5 g <.) VX& / 3Xq ",
"x 5 D.: #.).ZX=.T SXx l g  .p : ).I oXO L.<XoXR `.%XG.<.#.c *X~.4.Y P X.1 p z L.4 r.hX* ] g PX3X^ T cX>X@.I.W.$.R (.M IX*X%X8 4.",
"=.cXA d.z.OX6 $ q.O + Y m.=.T f V.1 5.F D.}.- k d 1 b.tXdXg (.9Xb ,XoXQ -.E Q t.Q.% T.9XfXV l XXl & ) yXz.>X!.-.z.O.*X-.n.IX~ * ",
"_ aX5X*.#.9 -.C 5XV L.7.NX+.Q.).= gX! % s.+X-XaX- 8XnXw.B 5X@XT < !.,X,XB. .c 4.).( A u <.Q.@.u.~.j._...D.f.C T #.T -.s v.MXO m.",
"4 u.gX}.U.<.G.G.k.T 6X=.!.Q.$ z K {.].4.}.=.X.L.V !.e.i.p M T *X@.mXu..XM l FX: #X{.^ & +.P p F.cX~.! . fX$XU GXL.o -.&Xk.N.=XVX",
"BX&X.X] 3XrX/ Q.j l ]./ ^ >.@.].oX7.W.s  .yX* <.f H & ( a aXo.w.DXI.gXSX% cX. Z.-.Z.- p.R 6 l.-.@.c.:.O [.P >X9.!.[.a 1.K.+.&.+X",
"& O a /.F.x 1 A N h m.<Xl t.x C FXW Q.0XqX= R 6 z G.0Xe AX7XK.g.D.p.! b.f @.R n (.2XJX/ u A -.PX*.x =.eX1 9.z.U 8 ' = (.p.l =.p.",
"G JXt.b.p...U 1X1Xa %Xh =.@XE lX{ + ,XR g C.B } -.N._.P p.0X$.Z.Q.p.! ].o.y CXcX8.c R.H 7 &X%.^ 6XR c q NXT Q.1 T.eXg $.^ 4 Z + ",
"UX=.Q p.).0XB -.m 1X* NXD.% +.Y.+XlX% ,.S.^ E z xXP =X~.@Xw `.IX/ IX( xXb SX.X@.7XIX1X-XK i Z [ I.w xX&.8Xu -.H C.{ ! KX~.! x F.",
"gX9XR tXQ q I ZX,XQ.$X>X~ $ x ,XrXc h 4 pX .n./.q.) @.c.r.SXo.U.J %XR Y ! ~.u 5.T n.f +.mXH sX:X  Z R.a.% 6  .s n.g ~ !.W | #..X",
"JXP C.NX( z.R $.p.NXb <X(.D A sX7 xX#X( { k <X; c.n HXFX@., FXd.O i.f W.>X5 7 _ U.&.#.T R sX& K.fXe.$ ~.>XO KX1 O 9XHXn.W q I .X",
"=.L.$ ~ g &.P.lX# _.xX: * fX$Xn ..a M.SXv.~ H m.U.cXnX<.n.9Xg.c L *X<.* & / 9.j h d cXC v #./ 3XH w d D.hX].#.3.6 ,Xp.-.LX,.; 1.",
",X&.=XU.a FX@XY $.P gX:X=.' cX[ 9 '.3 p.  u.>Xn O.W.v O &X- D | z n.}.+.zXj.a D.VX-X~.r.b.4 e.#.@.+X!...K.7 @XtX> rX3 AX5X$.$.{ ",
"i +X+X_.G.-.c.IX<.X.%  .' I -.-.+.@.q >.Z Y.s.i.yX>X>XlX_.=.E R > * S.GXn r.%.AXyX+.XXQ 8.5 v.5 #.!.7X+XFXQ.w *Xc.7 GXd BX6X{ AX",
"7XH U.z.`.v.7.>.h wX,X~ M ,XZX! SX2.O.GXg.g X.].-.E U.z @.f F.[.xXcX| a.+X`.&.=. XOX*.% T hXS.I.7 ; } # PXg.1 *X{ 2.4 L 9 4 % 7 "
};
