/* XPM */
static char *c3RvbmUu[] = {
/* columns rows colors chars-per-pixel */
"64 64 208 2 ",
"   c #181817",
".  c #0D1111",
"X  c #1D2019",
"o  c #25231E",
"O  c #1B1E22",
"+  c #201F24",
"@  c #1D2125",
"#  c #242424",
"$  c #2B2A26",
"%  c #24252A",
"&  c #262A2B",
"*  c #2B2B2A",
"=  c #272725",
"-  c #33312E",
";  c #2C2D31",
":  c #232A30",
">  c #312F32",
",  c #2E3234",
"<  c #343434",
"1  c #3A3934",
"2  c #35363A",
"3  c #373A3D",
"4  c #3B3C3B",
"5  c #383735",
"6  c #302D2C",
"7  c #261F19",
"8  c #413E3B",
"9  c #3E403D",
"0  c #43423D",
"q  c #3C3D42",
"w  c #373B42",
"e  c #3D4142",
"r  c #3E4449",
"t  c #434344",
"y  c #494643",
"u  c #474844",
"i  c #4A4A46",
"p  c #43454A",
"a  c #464A4C",
"s  c #4B4C4B",
"d  c #4A464C",
"f  c #514D4B",
"g  c #554F47",
"h  c #4E514F",
"j  c #52524E",
"k  c #5B554C",
"l  c #4C4D52",
"z  c #454D53",
"x  c #4E5154",
"c  c #4F5459",
"v  c #535353",
"b  c #595553",
"n  c #565955",
"m  c #5B5A56",
"M  c #54565A",
"N  c #56595B",
"B  c #5B5C5C",
"V  c #59575C",
"C  c #625F5C",
"Z  c #605949",
"A  c #5E615D",
"S  c #64625D",
"D  c #6A645E",
"F  c #716B5B",
"G  c #4C5564",
"H  c #5B5D62",
"J  c #565B66",
"K  c #585F71",
"L  c #615F61",
"P  c #5D6164",
"I  c #5C626A",
"U  c #586574",
"Y  c #636363",
"T  c #696562",
"R  c #666865",
"E  c #6B6A66",
"W  c #64656A",
"Q  c #666A6C",
"!  c #6B6C6C",
"~  c #686669",
"^  c #726C65",
"/  c #716E6B",
"(  c #6E706D",
")  c #73726D",
"_  c #79736B",
"`  c #646B73",
"'  c #6C6D71",
"]  c #656B76",
"[  c #6E7174",
"{  c #6B727B",
"}  c #66717C",
"|  c #737474",
" . c #797674",
".. c #767975",
"X. c #7B7A76",
"o. c #74767A",
"O. c #767A7C",
"+. c #7B7C7C",
"@. c #797679",
"#. c #817E7C",
"$. c #827C74",
"%. c #80786D",
"&. c #7E807D",
"*. c #83817E",
"=. c #8A837C",
"-. c #888378",
";. c #737681",
":. c #757B83",
">. c #7C7D83",
",. c #747C8A",
"<. c #7B7E89",
"1. c #6D7782",
"2. c #817F83",
"3. c #7D8184",
"4. c #7C828B",
"5. c #77808A",
"6. c #7D8794",
"7. c #838384",
"8. c #898683",
"9. c #878984",
"0. c #8B8A85",
"q. c #84858A",
"w. c #89868A",
"e. c #86898C",
"r. c #8B8C8C",
"t. c #918D8A",
"y. c #938C83",
"u. c #8F918D",
"i. c #93928E",
"p. c #9A958B",
"a. c #838692",
"s. c #848B93",
"d. c #8C8D92",
"f. c #8A8E99",
"g. c #858B9A",
"h. c #918F91",
"j. c #8E9293",
"k. c #8C939A",
"l. c #88939A",
"z. c #939494",
"x. c #999694",
"c. c #9B9A95",
"v. c #94969A",
"b. c #99969B",
"n. c #95999C",
"m. c #9C9C9C",
"M. c #969894",
"N. c #A19E9C",
"B. c #A29D97",
"V. c #9EA09E",
"C. c #A2A19D",
"Z. c #A9A99F",
"A. c #8D94A1",
"S. c #9296A2",
"D. c #959AA2",
"F. c #9C9DA2",
"G. c #999DAB",
"H. c #959BA9",
"J. c #9C9FB0",
"K. c #A19EA2",
"L. c #9DA1A3",
"P. c #9CA2AC",
"I. c #97A0A7",
"U. c #9EA6B2",
"Y. c #A3A3A3",
"T. c #A9A6A4",
"R. c #A6A9A4",
"E. c #AAAAA6",
"W. c #A4A5AA",
"Q. c #A9A6AB",
"!. c #A5A9AC",
"~. c #ABABAC",
"^. c #B1AEAC",
"/. c #AEB0AC",
"(. c #B2B3AD",
"). c #A6AAB4",
"_. c #ABADB2",
"`. c #ABADBA",
"'. c #A4A8B5",
"]. c #B1AEB6",
"[. c #ADB1B4",
"{. c #ADB3BB",
"}. c #A7B1BB",
"|. c #B2B3B4",
" X c #B9BAB7",
".X c #B3B5BA",
"XX c #B5B9BC",
"oX c #BBBCBC",
"OX c #B8B6B6",
"+X c #C0BEBB",
"@X c #BEC1BF",
"#X c #C3C2BE",
"$X c #ADB7C4",
"%X c #B3B5C2",
"&X c #B4B9C4",
"*X c #BCBDC2",
"=X c #B9BBC9",
"-X c #BEC1C4",
";X c #BCC2CC",
":X c #BEC1D1",
">X c #C3C3C4",
",X c #C3C4CA",
"<X c #CACACB",
"1X c #C7C9C8",
"2X c #C8CAD4",
"3X c #D3D3D6",
"4X c #CFD1D5",
"5X c #D6D9E2",
/* pixels */
"n n .XI g.$X'.$X$X}.[.L.V.9...#X(.E.7.[ r.q.o.*XR.R.0.=.~ L ].f.H.$X`.).Q.b.Q.b.6.;X2X=X2X$X`.].%X=X].b.3...@XXX&X{.:X2X$XJ.l M ",
"T  XXXa 1.;X$X}.I.I./.R.V...C Z.C.N.M.e.D.;.M Q.#.i.&.A 5 L K.%X%XJ.).`.].N.>.' d.&X=X$X=X%X%X:X:X,XK.K.0.| L./.).=X=X=X`.K.' d ",
"(.1Xm.l j.}.;X).L.[.V.i.#.k D =.x.c.w.K.w.w % 2...k 0 9 4 ;.'.=XJ.'.'._.b.+./ ! 4._.P.&X$X%X_.].=X].].K.+.a j.L.D.`.=X=X'.'.r.p ",
"E.(.c.s j.q.r.e.j.V.*.A T C f  ./ w.v.' L 2.2.2.&.n 9 $ d 2.G.2.S.<.q.F.7.C ' V Y ).D.$XP.G.Q._.].'.Q.K.O.r v.D.D.G.$X,X].K.].q ",
"E.(.0.9 &.*.O.) 0.i.E s E m - b C C l 2.4X].F.K.V.C.t.v d Q 2.<.3.5.e.! ~ b C t M W.!.D.D.G.).].].].D.w.O.3 d.).g.H.J.=X%Xv.].d ",
"(.Z._ 1 -.&.i.z.9.=.E E f i 8.8.Q. .> *X=XW o.2.e.0.z.H t o.2.d.l.e.3.R L 4 s B a q.*Xv.].XX]._.Q.].z.+.< p k.P.A.A.J.'.'.v.K.[ ",
"p.p.A $ c.=.0.=.X.E i 8 B +.w.L.].2.V 3X2.V ' d.u.x.9.4 O V a.S.3.Q M t 4 ! |.T.V [ _.Y..X.X`.OX=XQ.+.~ e.x I {.U.A.G.'.).Q.m.>.",
"-.S 0 $ j A m k i - t R r.m.m.Q.K.2./ 4X@.d | 7.+.r.Y 4 L l d H W O.@.u H OXOX_.W.| W s.P..X%X,X].h.T b._.k.M U.H.A.a.%X{.D.~.B ",
"Y.j._.R.0.n < 6 - | K.K._.`.~.K.m.m y.+Xm Y 2.+.r.) t r.OXm.2 z.-X1X<Xe.H Q.|.*XOXF.L 2 M o.,.' / v 4 m.n..X,.a.$Xg.g.`.W.q.r.q ",
".XW.Q.-X XV.j # z.OXQ._.XX`.[._.p.0 x.T.Y @.r.+.X.j +.c.z.~.+.Q ~.@XW.H l d.*X*XD.K.w.q 3 >.:.~ v   v _.j.W.f.;.H.A.W.G.D.+.' ! ",
"P.j.W.<XM.n.O.s +XXX.X].!.-X-Xm.) o *.p.X.#. .X.u v |.r.z.n.V.n H ~.+.; I W.oXd.q.b.W.V q..XI.z.9.u 8.|.n.D.d.` S.S.S.D.v.r.s x.",
").n.!._.r.9.( ( <X>XXXK..X1XoX&.9 g m S m S i 1 O x.~.z.V.z.n.8.1 [ t w d.&XK.2.q.b.b.~ !.F.e.q.7.L z.b.d.q.e.' S.h.j.Q.h.! . O.",
"K.f.K.2.E &.) |.4X<X^.#X<XOXE.C ^ Z.B.c.7.E 5 % ~ oXz.j.L.L.V.3.< < M d..X;Xk.>.r.K.#./ h.@.l.e.| B b.x.q.7.v.x e.3.7.q.! 5 . / ",
"W.d.m.h.X.V.E V.#XoXOX3X^.B.-.k C.C.r.9.c.E.R i -X_.w.s.n.v.V.O.d d m.{.XX[.d.x.K.T.^ C z.| n.9. .B m.w.w.+.D.; , A m n s v x V ",
"~.Q.b.r.u.V.0 u.>X>X#XZ.=.=.k -.Z.#.0.z.N.C.b 2.*XF.r.s.<.e.j.m.m S  X,X-XL.3.Y.N.x.D 1 i.9.j...b f b.w.d.z.~.h < 9.*.i.z.T.h.L ",
"b.#. .#.) ^ X k #X^.Z.B.=.=.F p.0.X.r.9.t.Y.x b._.v.a.W o.e.j.z.E E ~. X[.L.d.Y.B.y.^ o b 8.3.P 2 * 2.h.M.[. XA &./.9.9.r.+.h.8.",
"4 s v n n S T k E i.M.V.&.F j V.p.y.M.V.Z.n.s L.n.n.q.q.s.d.v.v.| ) >XOX_.W.z.c.i.x._ o & 9 z a 2 % y v V ! ! t z.8.| +.d.| :.w.",
"n.m.x.Y.m.C.C.R._ - j D A 0 i ..u.) r.X.B < ! `.L.4.q.e.z.>.r.9.s ! 1X~._.L.v.r.t.c._ 8 < A n.I..XF.' ! | s * i T.r.' w.v.! o.r.",
"~.m.z.m.i.m.c.c.r.A   / V.(.(.M.E.M.u.u.| b r.OX3.O...3.b.7.>.3.1 A |.Y.W.n.z.X.0.p.D $ e.-X{.XX|.>XOXQ.^.b.C C N.@.X.9.r.h.>.j.",
"Y.v.v.Y.~.~.r.m.=.E ! >XE.C.V./.E./.!./.L.n.q.v.O.O.&.e.j.z.x.o.5 v 3.j.n.u.r.z.t.^ 1 M.#X{.l.n.q.| r.w.t.K.) b T.#.+.w.h.>.q.w.",
"W.7.j.m.F.Y.z.r.2.j  .>Xm.m.O._.Q.Q._.W.F.F.w.[ e.( ( 0.z.( T B ~.F.z.j.3.Q Q ..C 8 i +Xm.m.D.j.&.R #.x.~.E./ - #.B.+.h.b.m.@.! ",
"d.z.F.r.z.r.8.w. .> 4 ~.m.d.z.L.v.v.b.F.!.R.q.9 n A P 9.R v R L.1XXX).!.[.e.) A f $ C T.|.R.v.D.8.+.r.E.OXx./ = b N.i.z.! V t ~.",
"v.d.F.m.~.T.r.T e L @.! F.z.m.Q.K.F.d.F.R.R.u.S n E a 9 n n.OX].R.P.n.F.oX[.Y.9.8.! 8 x.M.n.L.V.L.M.p.(.m./ b $ *  ./ f s * V oX",
"m.z.m.Q.x.! v b t.<X>X! 9.Y.L._.K.2.d.m.Y.m.0.R R.1X..< 1X,XF.D.L.XX[.[.XX|.x.8.#.=.$ ! V.~.XX/.m.C.c.i.=./ 1   1 b  .b.c.c./ t.",
"M.| b ! S ) m.#X#XE.(.E.7.Y./.m.h.r.2.b.R.V.9.( V.3X&.R 3XOXW.D.{.[.XX@X[.~.u.9.*.X.1 * ! 9.r.R.c.8.X.) ) i $ ) T.OXoXE.c.OXi.8 ",
"A u u 9.OX1X1X(.c.C.E.OXm.+.~.z.b.K.r.t.i.9.9.S V.@XR [ *X{.G..X{.!. X[.V.R.C.0.8.E 4 B x B O.r.=.X.X.^ j n (.#XOX+XN.9.T.^.t.$ ",
"4 R.1X1X<X(.T.R.r.Z.c.c.V.S X.u.=.i.X.X.M.p.R n @X<XA [ XX.XW.XX[.[./.V.E.T.p.t.) j ! @XR.&.( E S S n 4 T oX@XE.T.K.r.8.^.K.#.8 ",
"@.3X>Xm.T.E.E.R.C.V.c.C.m.t 5 h Y T ) X.X.A < 9.<X-Xz A [.Y.L.U.L.n.!.C.Z.B.y.*.S i V./.c. X/.X.j 8 7 S #X XY.z.Y.t.8.r.x.2.b b ",
"m.4XOXW.T.OXOXC.R.E.R.t.X.7.L.| h 1 4 4 $ $ P  X-X@Xs a !.V.R./.z.m.(.Z.i.p.=._ k R  XL.R./.Z.~.Z.- $ ^.OXV.i.r.j.r.x.d.w. .> y ",
"m.,X_.Y.F.^.OXT.~.T.z.7.|  XoXL.M.=.! b A n !.,X[.[.9 @ &.V./.V.M.Y.^.c.p.y.$._ k t. XL.m.Y.c.Z. XC.y T.R.E.z.m.m.V.m.X.T C b j ",
").,XK.v.Q.OX~.K.~.Q.z.L +.1XF.T.V.R.R.~.!.Y W.,X[.L.<   i 9.R.V.Y.7.B.p.=.=.%.k 0 ~.R.u.~./.V.M.c.(.E R +...q.+.7.Q t x T. X>XY.",
".X_.F.W.|.].~.K.Q.N.x.n m.m.z.m. X~.~.K.u.[ m.R.!.9.& X = h 0./.Y.u.B.=.=.^ g 7 0 ~.R.M.~.C.M.=.c.(.*.9 n.OXY.m.F.m.b v 1X|.K.1X",
">Xm.m.T.x.|.R.E.E.0.w.B OXe.s.m.W.Q._.Y.V...c./.V.( i & O.R e ! | X.=._ _ f k ~ L 2.|.^.B.y.c.y.c.(.R I.>X'.d.d.F.Q.|.e V.F.j.Q.",
">Xx.n.F.~.R.E.T.C.m.! @.W.q.v.q.7.n.~.L.V.&.X./.M.A A ( e.&.[ r j 9 0 - 8 =.].^.K.L 2.+XT.c.y.p.(.| e oXf.;.<.o.j.S.Y.B r.~.v.F.",
"*X_.^.m.m.(.~.z.x.Y.x F.k.:.q.,.e.d.R.Y.j.( 4 &.&.&.n &.n.&.W R ! A 1   C OXN.t.2.h.d b.m.c.p.c.j.X R &Xs.2.o.:.w.7.b.B 2.~.v.v.",
"7.-X.XF.Y.~.F.z.Q.N 7._.{ o.' d.j.w.n.Y.V.R   w S h # O.j.3.O...) ) ^ 1 ^ h. ./ w.@.! V t.!  .m 6 . O.-X<.<.o.3.j.h.b.j 2.Y.v.F.",
"l Q `.oXOXOX).F.M l ,Xq.q.<.s.s.o.9.v.m.n.2 u L a u < 3.O.! R &.^ C T 0 L t. ./ w.h.r.M 1 s i * , X Q ,Xd.7.3.r.z.v.t.d +.T.v.Q.",
"<.w 2 w.v.w.@.e   [._.a.s.a.4.4.w.r.c.F.>.2 F.+.N x a 3.O.O.( ! T _ C f C y.~ @.2.r.r.h.3 p w.~ P a z _.W.s.w.z.z.t.8.8 7.K.Q.K.",
"o.+.; ; ' F.| 4 Q >XF.s.4.Q 1.3.i.m.|.Y.M M W.' z x a ` r.m.7.E E S f g - @.2. .| h.j.w.W ' o.M Q w.w v.W.r.j.m.i.9./ 6 2.K.Q.K.",
"3.L.P ` 2X3XXXv 2.*Xr.w.O.:.n.e.x.~.K.+.2 v.<.' J J p x 3.q.( m ^ k y f = / d.! | | 2.d.' o.H J <.<.s Y Y.x.r.9.*.8.y 7 ~ b.h.w.",
"e.F.A V.<X<XL.h O.~.j.+.q.e.v.z.3.) L 4 >.G.W Q ;.W p w W o.H 0 S i 0 i * 9 r.3...o.n.| ! 3.{ q.` M P w h &.&.E R h v N. .d d t ",
"u.L.P -X@X-XV.< +.Y.m.9.r.3.N s S T m 3 v.@.c Q >.{ H w M w.l i k k g 1 9 , r O.O.R | x M k.:.{ ] M n N X 9 < @ i r.>X*XoX2.% 5 ",
"M.9., V.@XV.h . i ~.z.| i < n &. XOXR.9.o.' q G ` J P w ; ' Y f g y i ! U.!.5.( x 5 = % Y 3.I } H V N v a &.A h [.R.-XW.Q.].2.8 ",
"u.I X = ( n A S j C ! i v z.R.Y.9.z.m.z.~ W x M M J x p , t ! H s 1 x L.U.[.[.[.F.r.B $ Q { ` 5.W l N u A u.Q ..|.!._.n.2.2.K./ ",
"0.x $ 9.V.=.u.(.^./ $ z.>Xz.! X.*.X.m.n.o.q W W I N z r ; 2 x q 5 X n ).D.s.4.3.2.h.T.f v W ` :.L V ~ d j ..A r.XX`.f.{ 2.2.b.K.",
"h 5 j./.M.C.z.9.r.x.u #.i.+.8.t.*.r.r.0.w.H , [ Q P Q p t d.w.! 4 X w.).l.,.{ I L ) B.! v o.I s.;.L s = 9 e P [.`.G.f.;.2.2.v.K.",
"5 m.z.&.x.m.7.+. .h.| b N.#.7.t.r.r.3.n.u.&.% e P R M O W `.7.+./ > v.).6.` } [ ! X.8. .L e.{ { l ; t f A a Q XXF.H.f.<.<.o.2.w.",
") Y.b.d.z.x.X.| | 9.#.f >.m.z.m.x.m.M.n.n.P z.V.[ N & & W.].e.3.+.d w.s.5.` ` s H / / @.2 w I w   b | ! ..3.Y |.{.G.S.q.f.@.| r.",
"j M.0.9.m.Y.r.*.8.) ( 9 = I 7.7.i.C.M...z n.4XT.B.|   O.;Xl.6.4.q.a ! r.[ I M p v V Y >.w o.L.P * >.+.~ | >.V 7._.D.h.z.d. .r.m.",
"4 A 9.r.m.Q.x.3.X.9.n 9 ..P J a < X , & l.5X].N.p./ < W.I.6.[ [ O.u 5 7.| ! Y M M W W ' h.v.! W t | ! Y ~ o.| v z.K.r.2.9.r.p.M.",
"* & b I V v A [ n A 1 ..W.s.d.:.Y X : A.4X&X_.w.-.S h -X6.&.O.O...u . s B P V s V l / q.| H I ( v 8.+.T L V ~ | Y 7.7.@.8.8.*.#.",
"x v.F.q.` Q R i 9 X e L.4.4.6.4.! $ 1.4X$XH.2.8.=.&.A V.&.I 3.( Y e ! w.| ) S s < t v.@.' >.3.Q Q [ Y R ' ~ L h.2.= * x v v j < ",
"l.;XXX;X}.n.m.j.O.9 3.n.3.1.,.,.I 3 D.2XG.<.>.^ ) ) i &.u.&.&.| Q * m.V./ $.x.i.x.T +.t.3.3.l.{ H [ M L | [ H 2.v.# 8 L B t f Y ",
"}.P.l.l.4.Q O.e.O.n e.<.1.1.,.1.H ; d.2Xg.:.2.S D S i h 6.&.( 3.l t c.#.C ^ =.=.=.=.C 7.V.3.V.A l 2.Y | @.! L 2.L 2 L @.| !  .! ",
"$XU.I.6.3.} o.:.[ a s.l.,.,.,.} N t v.&X2.<.8.S D D h @ n N c r   n m.! ^ ^ _ _ _ $.t.m u.M.6.9 H | L :.@.o.[ H 8 ' 2.! +.#. .! ",
"P.U.6.I P 3.q.O.! 2 7.S.6.,.,.} P q ).`.a.2.N.E F S u R 3.&.A 9 @ m z.S D D ^ D D _ 8.n r 3.c . M 2.| W ~ M > % q w.@.| | ' )  .",
"D.g.:.W { &.| [ W & H S.;.;.<.;.A u [.[.e.e.p.*. .~ x q.a.W L @.W Y 7.C T ^ =.Z k $.=.S * 9 z P , , x H R c P n d h.[ / L d L Y ",
"s.I 4.3.3.o...I J   p 2.<.2.;.q.h n @Xl.6.u.X.X.D | H <.U G c M ' H t.Y /  .%.^ _ ^ ) y s [ L.I.@ H G.!.P.I.M.4.l ' 2.H V B L L ",
"{ d.O.q.O.3.} z * O % ] d.d.a.>.0 0 P.!.V.&.E S / L L g.K G G H L l Y  .C ^  .^ / j m y 9.[.@X5.r {.{.k.3.O.e.&.w l @.V V V x H ",
"q q.[ q.R p 9 9 w w w p ' K.x.! 9 < L.L.e.3.&.&. .< { <.K c c K c l 2 ! m ^  . .D / S # v.-X-XP G }.} I [ { 6.} l + t H l q q p ",
"% + % > 9 r ` &.<.2.2.] l >.#.y % < d.!.j.r.$./ y > a.{ K G G G H B % ; x m b ! ! T j t V e.O.% e.l.K ` 6.l.&.J w @ & % > 2 > > ",
"2.p e o.&.5.6.D.g.S.A.'.2.r * $ 1 % q 4.q.| Y y * l ,.G G U } I H M * v | ~ H / 2.r.r.d.q.v & e I.6.` { &.4.&.r @ @ a Y @.@.[ 2 ",
"V ! | F.5.&.A.A.6.g.g.f.N.2.1 - t H 3.6.Q x 4 - > x ` z G U ] P H x M oX|.[.Q.Q.OX_.j.Y.x.j.4 P U.6.{ } 5.5.` r a 3.q.:.:.' [ p ",
"V x ! j.{ 5.A.6.6.6.<.g.h.w.C 8 | *XP.j.U.w. .T > w ] G U 1.} H W 4 ! d.>.v.r.k.F.s.r.d.r.z.2 P I.5.l.` 5.` 9 r V.5.H H ' { l l "
};
