/* XPM */
static char *result[] = {
/* columns rows colors chars-per-pixel */
"64 64 201 2 ",
"   c #3C341C",
".  c #353226",
"X  c #3C3724",
"o  c #39362E",
"O  c #3B392C",
"+  c #3E3B32",
"@  c #403C2D",
"#  c #423D34",
"$  c #433F3D",
"%  c #3F433B",
"&  c #49462D",
"*  c #4E4C2C",
"=  c #544E2C",
"-  c #5A562D",
";  c #444134",
":  c #494535",
">  c #4D4935",
",  c #45423B",
"<  c #4A453D",
"1  c #4B493C",
"2  c #504C3D",
"3  c #5B5333",
"4  c #5C5837",
"5  c #54513C",
"6  c #665B35",
"7  c #625B39",
"8  c #6B612E",
"9  c #7D6F23",
"0  c #79712D",
"q  c #6B6333",
"w  c #6C6637",
"e  c #7B6E33",
"r  c #776838",
"t  c #7D7136",
"y  c #4C3F43",
"u  c #454342",
"i  c #4A4643",
"p  c #4C4B44",
"a  c #4E4C49",
"s  c #514D44",
"d  c #554C47",
"f  c #534E4A",
"g  c #4F5148",
"h  c #535146",
"j  c #5B5544",
"k  c #54524C",
"l  c #5A554C",
"z  c #565A4D",
"x  c #5B584D",
"c  c #4F4F50",
"v  c #555351",
"b  c #595653",
"n  c #5C5A53",
"m  c #555A58",
"M  c #5D5C59",
"N  c #605A46",
"B  c #625B55",
"V  c #615E5A",
"C  c #5E6159",
"Z  c #676456",
"A  c #64615C",
"S  c #6A655D",
"D  c #736859",
"F  c #7A6E5C",
"G  c #7D7354",
"H  c #5E6261",
"J  c #656563",
"K  c #6A6562",
"L  c #6B6A64",
"P  c #686867",
"I  c #6E6D6C",
"U  c #736C64",
"Y  c #766D66",
"T  c #7C7363",
"R  c #72726C",
"E  c #736F71",
"W  c #787777",
"Q  c #84792F",
"!  c #8F7E29",
"~  c #827734",
"^  c #827838",
"/  c #877B48",
"(  c #817565",
")  c #887B66",
"_  c #81766A",
"`  c #867B6C",
"'  c #897B6D",
"]  c #867E73",
"[  c #99892B",
"{  c #96853B",
"}  c #AA952C",
"|  c #A48E3B",
" . c #A89936",
".. c #B49F31",
"X. c #B9A32C",
"o. c #B9A636",
"O. c #BFA931",
"+. c #DFBE0F",
"@. c #C2A41D",
"#. c #D8BD1E",
"$. c #E0BF10",
"%. c #CFAF27",
"&. c #CEB229",
"*. c #DCBD25",
"=. c #D5BA2E",
"-. c #D9BA28",
";. c #CDB637",
":. c #D3BB34",
">. c #E1BE23",
",. c #DFC21E",
"<. c #E3C313",
"1. c #E4C41D",
"2. c #E5C81E",
"3. c #E9C91E",
"4. c #DFC224",
"5. c #DEC229",
"6. c #DEC232",
"7. c #DFC738",
"8. c #E4C525",
"9. c #E8C725",
"0. c #E5C825",
"q. c #E9C926",
"w. c #E4C52B",
"e. c #E8C72A",
"r. c #E6C92B",
"t. c #E9C92B",
"y. c #EAD02C",
"u. c #E5C632",
"i. c #EBC733",
"p. c #E6C933",
"a. c #E9CB35",
"s. c #E4C53B",
"d. c #E6CA3A",
"f. c #EACC3A",
"g. c #F1CE3E",
"h. c #ECD234",
"j. c #ECD13C",
"k. c #F1D339",
"l. c #938747",
"z. c #9B8B4A",
"x. c #9D914D",
"c. c #968A5C",
"v. c #A9944B",
"b. c #AB9A49",
"n. c #B4A14C",
"m. c #BAA653",
"M. c #8B816B",
"N. c #99896A",
"B. c #8D8374",
"V. c #85827B",
"C. c #968977",
"Z. c #9E9073",
"A. c #A08E62",
"S. c #A9986A",
"D. c #A49274",
"F. c #A89878",
"G. c #B09E75",
"H. c #BDAA6B",
"J. c #B6A474",
"K. c #BAA877",
"L. c #C2AC44",
"P. c #CBBA4B",
"I. c #D4BD47",
"U. c #C7A76B",
"Y. c #C9B47A",
"T. c #D0BD76",
"R. c #DAC445",
"E. c #DAC449",
"W. c #E6CB43",
"Q. c #EACC43",
"!. c #E4CB4B",
"~. c #E9CB49",
"^. c #EDD144",
"/. c #EDD24C",
"(. c #F1D442",
"). c #F1D54E",
"_. c #F4D94D",
"`. c #EDD254",
"'. c #F4DB54",
"]. c #F6DB55",
"[. c #F4D95B",
"{. c #F9DC5E",
"}. c #FBE15B",
"|. c #D9C577",
" X c #EED564",
".X c #EFD76B",
"XX c #F5DB63",
"oX c #F9DC65",
"OX c #F4D96A",
"+X c #E3CE7B",
"@X c #ECD573",
"#X c #EBD478",
"$X c #F1D872",
"%X c #FDE177",
"&X c #7E7E84",
"*X c #828888",
"=X c #9A8C82",
"-X c #A79A84",
";X c #AD9B90",
":X c #B5A58B",
">X c #DAC781",
/* pixels */
"w.u.p.w.h p.r.p.p.d.d.p.d.p.p.7.r.r.r.r.0.q.r.q.e.3.0.t.0.t.t.t.t.r.t.r.k e.u.w.w.w.u.i.w.i.e./ e.r.p.w.w.u.w.w.w.e.t.e.e.w.w.u.",
"V V J V n b M b b b A b b V M H J R I R L K A V V b l A M S A A K V b k l k n A n n B V S V B b P A I K Y K Y A K Y S U U K K K ",
"f.f.a.d.k d.d.d.d.d.d.d.d.d.Q.j.d.d.d.j.d.d.p.f.f.j.f.d.Q.f.f.f.f.d.f.a.f f.d.f.f.f.d.d.i.d.f.g.i.i.a.d.f.f.f.Q.Q.a.f.a.f.f.d.d.",
"!.f.f.a.k d.f.f.d.d.d.d.d.f.f.a.j.j.j.f.j.f.j.f.f.j.Q.f.f.f.f.f.f.s.f.f.k f.f.f.f.f.f.d.f.d.f.).f.Q.f.f.s.f.f.f.Q.a.f.a.f.f.f.a.",
"f.f.f.f.V f.a.a.f.d.a.f.f.f.a.j.h.j.j.j.p.U.j.h.j.(.j.j.j.j.d.a.t.f.a.f.k f.j.W.f.f.d.d.f.a.f.(.a.d.s.a.p.f.f.f.d.g.f.a.g.i.!.d.",
"i.d.a.a.x a.a.a.p.a.a.a.a.a.a.t.a.f.f.a.p.a.a.a.a.(.p.f.f.d.f.a.a.a.a.a.K i.d.a.a.f.f.a.f.a.i.h.a.a.f.i.a.a.d.d.a.a.a.t.i.a.a.a.",
"a.f.f.f.b a.d.d.f.p.f.d.p.a.h.a.a.h.a.f.a.a.p.a.a.(.a.p.a.d.a.d.f.f.a.a.l a.f.a.a.i.p.i.a.a.a.f.f.i.a.a.d.a.f.d.f.a.k.i.a.a.a.a.",
"f.f.f.f.b f.f.f.f.f.f.d.f.f.a.h.j.j.j.h.f.f.f.h.h.^.f.j.f.j.j.j.f.a.f.f.K a.f.f.a.d.d.a.f.d.d.(.f.a.a.f.d.d.f.W.f.a.a.a.f.f.a.d.",
"z k k v k c b , i a a p f v < J z p k k x h n k z M n V C C B b B V Z n C l k h s k k n b k R *XI &X&XW *X&XR M V.*Xn L J n C z ",
"d.d.d.f.b p.p.p.u.u.p.p.p.p.p.u.f.f.d.a.d.p.p.p.d.!.a.a.p.p.d.d.a.a.a.a.B a.a.a.i.u.u.i.p.p.a.k.i.i.f.i.i.f.f.s.a.t.a.a.a.a.a.d.",
"f.f.f.f.v a.a.a.p.a.p.r.a.a.h.p.j.d.j.d.f.p.f.f.f.!.f.k.j.f.a.f.f.a.a.f.n f.d.d.d.a.d.a.d.f.a.j.d.i.f.f.f.W.f.f.f.a.a.i.d.a.a.f.",
"d.f.f.W.M f.f.p.f.a.a.a.a.a.f.f.a.j.j.a.f.h.f.a.a.!.a.a.f.j.f.h.p.a.a.a.d a.i.p.p.d.i.p.a.p.a.h.a.d.d.d.s.i.d.d.d.a.k.i.a.s.a.d.",
"f.t.a.a.k w.w.w.w.w.w.w.t.t.p.a.a.h.a.h.a.p.t.a.a.R.a.a.a.a.a.a.a.a.a.u.V a.p.r.p.p.p.w.w.a.t.s.t.e.t.e.t.r.t.p.t.t.t.t.a.a.a.a.",
"p.a.a.a.x u.p.u.u.u.u.s.p.p.r.a.f.a.d.a.a.a.p.a.a.E.a.h.p.a.a.p.a.a.p.a.f i.i.a.i.p.i.i.i.a.p.W.a.a.d.a.a.a.p.a.a.a.a.a.a.a.p.p.",
"a.d.d.a.b p.u.p.p.p.p.p.u.a.a.h.d.f.f.f.j.f.f.a.f.R.a.h.a.d.f.a.a.a.a.a.l d.d.a.d.a.a.i.p.i.u.Q.a.u.i.i.p.a.f.a.a.t.i.a.a.f.a.a.",
"k f < f s # a 1 f p < z g h p , s k 1 2 a < p l h h l n l x j x h j x ; i k d s s : , < 2 a < y k x a a i , l s z A Z L A k h k ",
"p.a.p.p.v a.p.s.s.s.p.u.p.p.a.a.d.p.f.p.p.a.p.p.a.W.a.a.a.a.p.a.a.d.p.a.f a.u.i.i.s.i.s.a.a.a.t.a.r.p.u.u.u.u.u.i.u.p.r.u.i.u.u.",
"p.d.a.a.f d.a.d.p.d.p.p.a.p.a.p.f.j.a.a.f.a.a.p.a.R.a.a.a.a.a.f.a.a.d.a.< i.a.d.a.d.a.a.a.a.i.e.p.i.p.p.p.p.i.u.a.w.t.p.a.a.r.a.",
"a.d.a.s.k a.a.d.a.p.p.d.a.p.a.a.h.a.f.f.p.i.a.p.a.E.a.a.i.a.f.a.a.a.i.d.i a.i.i.a.a.a.a.p.a.i.h.i.p.p.a.p.p.p.i.a.i.i.a.a.p.p.!.",
"8.w.w.w.a r.a.u.r.p.d.f.~.).`.f.j.^.^.^.). X'._.'..X%X%X%XoXoX{.oXoXoXoXs XX[.).~.~.~.Q.s.s.W./.f.p.u.5.w.8.w.w.8.9.q.9.9.e.w.u.",
"u.w.w.u.p p.p.p.p.p.p.p.p.p.r.t.t.w.p.w.r.i.r.u.w.Q.t.t.w.p.w.w.t.w.e.u.s w.u.w.i.u.w.w.e.w.>.t.u.p.r.r.u.u.w.w.w.t.w.w.w.w.u.u.",
"u.i.w.w.m p.p.p.a.r.d.r.p.p.r.q.t.t.a.p.a.t.a.t.a.Q.r.t.a.r.i.u.e.e.t.e.d i.e.u.r.w.w.w.w.w.w.g.p.p.p.u.p.w.u.u.i.t.w.i.u.w.w.w.",
"O , # # + + + . o o . O # X   & 4 7 7 w q q r e e t | | { { { ^ r t r 6 u q 8 6 3 6 3 = 3 4 j > j j < < , , # # # $ # # $ # O O ",
"i.w.w.u.c r.w.u.t.p.p.u.p.p.u.2.r.w.t.w.e.r.r.t.9.a.9.9.9.9.9.0.q.9.r.9.d 9.e.i.>.u.w.w.w.w.e.e.e.w.w.w.w.8.w.w.e.9.8.w.9.w.w.w.",
"u.w.u.w.k p.r.r.p.p.u.p.p.p.a.q.t.0.t.r.r.e.t.w.e.a.q.9.w.9.w.9.e.e.9.w.x r.w.w.8.w.w.w.w.w.u.a.w.w.u.w.w.>.w.w.e.9.9.w.e.8.e.w.",
"w.w.w.u.b r.p.u.p.p.u.p.d.u.p.2.t.t.q.r.q.t.9.q.9.f.t.9.9.9.w.r.t.r.w.w.h w.e.w.w.w.w.i.w.u.w.r.i.w.w.w.w.w.e.u.>.e.w.9.w.w.u.w.",
"T.Y.T.Y.p N.D.C.B.M.' V.V.] W Y.H.K.G.S.N.N.M.B.( U T F ` B.` ( _ ( T D v F ) N.N.A.S.K.K.H.U.|.+X+X@X@X#X$X@X$X$X.X|.+X+X>X|.>X",
"a.r.u.w.f w.w.w.r.p.r.p.u.r.r.0.w.r.w.8.w.w.w.r.r.t.w.r.w.r.9.9.w.w.w.9.f 9.w.w.e.>.9.e.8.9.8.e.w.e.w.i.w.w.w.w.w.9.t.r.e.w.e.u.",
"a.r.r.p.f t.w.i.r.r.r.u.p.a.p.0.t.t.r.w.t.t.r.t.t.a.w.t.r.w.w.w.e.w.e.e.s w.w.w.w.w.>.e.8.8.t.a.e.a.w.w.w.w.w.w.w.9.t.t.e.i.u.p.",
"O.O.O.X.< =.*.>.5.w.w.w.r.6.r.&.-.#.>.8.8.8.5.w.r.f.8.9.0.8.8.1.>.8.8.8., 8.8.>.>.>.>.=.-.-.&.o.X.X...} } [ [ [ ! 9 } } X...O.O.",
"w.w.w.0.v w.8.w.w.w.w.r.a.7.0.2.e.w.r.w.w.w.w.8.r.q.9.t.q.t.9.w.9.8.e.8.i 8.w.w.w.e.w.>.w.8.w.w.8.w.e.w.w.w.r.w.w.r.r.r.t.w.w.r.",
"w.w.w.w.< w.w.w.u.5.6.r.6.r.r.0.9.r.0.q.9.9.9.9.9.t.0.w.9.9.8.e.w.8.>.9.l w.8.w.e.w.>.w.9.>.8.r.9.w.9.9.w.w.p.p.w.t.r.p.r.p.w.w.",
"p.w.p.r.p w.w.w.5.r.r.u.u.u.r.9.t.r.0.0.e.r.r.9.q.t.t.t.t.0.w.9.e.e.e.w.s 9.w.w.w.w.>.>.i.8.e.i.w.w.e.w.w.u.u.i.w.p.w.r.r.r.w.w.",
"A M C A V m M A C n C C A M L Z B n B A A P I W L L l S L L L P K V x h u v M n l n M v V A V B K K J A I A V V K S S Z A x x K ",
"w.w.w.5.x w.8.8.w.w.6.r.0.5.w.0.r.r.r.w.w.w.8.5.9.0.9.8.w.9.8.w.w.u.w.w.f w.w.w.w.w.w.w.8.8.8.L.8.>.8.w.w.w.w.w.r.w.8.8.8.5.8.w.",
"w.w.w.w.x 8.8.w.w.u.r.r.u.r.r.0.q.r.r.r.w.9.r.9.t.9.0.0.w.w.r.w.w.w.w.w.d w.w.w.u.>.8.9.w.w.e.L.9.w.e.w.w.5.u.r.r.r.8.8.8.8.w.w.",
"w.r.r.5.a w.8.w.5.w.w.r.w.w.w.0.0.r.0.0.9.r.q.0.t.q.e.9.w.w.w.u.w.w.w.9.f e.e.q.9.9.e.w.9.9.q.n.8.9.w.w.5.w.w.5.5.r.0.8.8.w.w.u.",
"w.8.8.8.u 8.8.>.8.4.8.4.8.8.1.r.r.0.0.0.8.w.8.9.2.8.8.9.0.0.8.9.8.1.2.1.a 9.>.8.1.1.1.1.1.9.2.v.8.8.8.8.8.8.8.8.8.1.8.8.8.8.8.4.",
"*.8.8.8.v 8.8.5.w.*.4.8.w.5.0.0.0.0.w.9.8.w.8.9.0.8.q.0.8.8.8.8.8.9.8.9.f 8.9.>.8.8.w.9.8.8.8.b.8.w.8.5.4.4.8.>.8.8.9.8.8.6.8.4.",
"w.8.9.8.a 8.w.8.w.w.w.u.w.8.w.q.r.r.r.r.r.0.r.9.9.q.0.0.r.9.r.r.8.9.9.9.; 8.9.8.8.8.w.w.w.w.w.n.w.8.8.8.w.8.4.8.8.9.0.8.w.w.8.8.",
"d h a + < , # < i % u : c z p k v C M M k b b n x z s h k k 5 h f p k f $ p , p , 1 < i i k , a k M f v v v V b f M l k h g p p ",
">.8.8.>.k 8.8.8.w.w.6.w.r.5.w.r.0.9.u.9.8.8.r.r.8.8.8.8.8.8.8.5.w.9.0.8.p 8.9.8.8.w.8.4.>.8.8./ 8.8.9.8.8.>.>.>.8.1.8.8.8.4.8.w.",
"8.8.8.w.s w.8.8.r.w.5.u.w.r.w.r.0.r.r.r.r.w.r.r.r.w.0.9.9.w.8.r.r.r.r.w.p 8.8.r.w.w.8.8.8.8.9./ 8.8.8.>.>.8.w.>.>.8.8.%.w.9.s.w.",
"8.8.8.w.h 5.8.8.5.u.u.p.7.5.w.y.0.8.9.0.9.r.p.r.t.r.9.8.8.0.r.r.5.r.r.r.u 9.r.9.w.w.8.8.9.9.9.v.w.w.8.8.w.8.>.w.8.0.8.8.w.0.8.w.",
"<.0.8.1.x 8.1.1.8.d.0.u.r.0.0.6.2.1.2.8.1.8.,.<.1.1.8.9.0.0.0.0.r.0.r.r.u 4.8.0.8.8.8.1.*.$.>.7 $.$.8.1.>.1.+.$.<.+.<.1.2.1.1.1.",
"0.0.5.w.M w.9.w.r.5.5.r.r.5.r.7.r.0.0.8.8.8.8.0.8.9.9.8.9.8.8.0.8.r.r.0.i 8.w.w.8.8.8.8.u.8.8.r w.>.8.>.>.>.>.$.1.2.3.8.8.8.8.8.",
"8.0.w.r.M w.w.w.0.r.r.6.5.r.0.a.r.r.r.r.0.w.0.0.9.2.0.0.9.w.r.r.0.r.r.r.a w.w.r.u.8.8.8.8.w.9./ 8.8.8.>.8.8.8.>.>.2.0.8.8.w.8.0.",
"p , j k 1 a a , , ; % ; , : i h x x l l B j x J z g 1 p p p 1 ; p h p O + O , @ , # + + # + # o b < i i $ p b v k i j p i b 1 p ",
"4.8.8.4.J 8.w.5.8.4.8.8.*.*.8.R.4.r.4.5.r.0.0.4.0.2.0.0.0.5.0.8.8.8.8.8.< 8.8.8.,.8.8.4.8.1.8.G >.8.8.>.8.5.8.8.8.0.1.8.1.1.8.4.",
"8.0.0.0.B 9.8.u.8.8.8.8.8.8.4.R.r.5.y.4.0.0.5.0.0.<.2.8.0.0.0.0.8.8.1.9.p 8.8.8.8.8.8.8.8.8.0./ 9.8.8.9.0.4.8.0.0.4.2.2.8.1.1.2.",
"5.r.8.8.n r.8.0.w.8.8.w.5.w.8.E.r.0.0.5.5.5.0.0.9.2.2.0.q.0.0.q.8.2.1.0.f 8.8.8.1.8.8.0.8.r.0.l.8.0.8.w.0.r.8.r.0.0.0.1.0.2.8.8.",
"j./.(./.m j.f.d.s.!.w.w.0.r.r.P.r.r.y.h.y.h.j.(._.[. X[.OX$X#X#X$X XXX[.z '._././.'.'.].'.}.{.b.2.0.0.0.0.0.0.q.y.a.h.y.p.k.h.h.",
"r.1.<.1.k 8.8.1.8.w.*.8.8.w.4.P.r.r.0.0.0.5.0.5.0.2.2.8.8.8.0.4.9.8.8.r.v 8.8.8.8.8.8.8.8.4.8.b.8.8.8.5.1.,.8.,.,.1.2.1.,.,.,.0.",
"2.2.,.5.b 1.8.8.8.w.w.8.w.8.8.P.r.r.r.r.a.r.0.0.>.2.2.5.0.8.0.4.8.0.8.0.a 9.9.w.8.0.8.8.0.2.0.b.0.0.0.8.8.8.4.2.1.2.2.8.2.2.2.2.",
"w q 8 q < - 4 * * & # O @ O O ; 5 5 4 7 w w r 0 t t {  . . . ..... .}  .a 0 Q Q Q ^ ~ 0 t t t . & & & > > > h = - = * 4 - - q q ",
"8.1.,.0.g 5.8.4.5.5.8.5.8.5.8.n.0.0.0.0.0.0.5.r.w.9.q.0.5.0.2.q.r.0.0.5.g 1.1.1.1.1.8.0.8.4.4.l.8.1.5.8.8.8.8.1.1.1.<.2.2.1.2.2.",
"1.1.8.w.C 8.8.6.w.8.w.*.u.w.w.n.q.0.0.0.5.r.r.r.r.r.8.0.8.w.0.0.5.r.w.8.1 2.9.1.8.8.8.9.w.5.8.z.8.8.9.8.w.$.8.8.4.1.<.2.1.1.1.8.",
"8.8.5.9.C 4.w.8.8.5.w.5.*.=.w.m.0.0.y.0.0.r.y.4.0.r.0.8.u.W.r.4.8.8.8.0.a 8.8.8.0.8.0.0.w.0.9.z.1.$.8.>.8.8.>.8.8.1.1.1.1.8.8.$.",
"-XC.C.C.P F.F.F.Z.D.D.F.D.F.Z.B.S.J.K.S.S.K.J.:XG.F.B.B.B.B.C.' T D ` ` L F F F Z T T D F Y S E C.' ' ( ` =XB.' B.-X;X;X-X-X;X;X",
",.8.5.4.H *.4.w.>.8.>.u.8.5.w.x.0.r.y.0.0.0.5.0.0.8.0.s.1.5.0.0.0.8.4.0.z 8.2.,.2.8.0.8.5.8.0.N 8.>.8.8.>.>.#.8.8.8.8.,.1.8.,.8.",
"8.w.8.4.P 5.8.8.5.5.r.5.5.w.w.c.r.0.r.r.0.0.2.0.0.w.0.8.8.8.8.r.6.r.w.8.a 0.0.0.8.8.8.r.8.w.e.j 8.$.9.w.>.>.8.8.1.8.1.1.1.8.8.1.",
"4.5.*.*.m :.&.&.:.:.:.:.;.;.;.c.6.u.6.6.w.4.1.4.4.5.8.8.w.1.4.5.7.u.0.8.p 5.1.4.8.9.w.5.5.9.e.2 >.-.>.>.>.>.-.>.*.#.*.#.*.*.@.,.",
"w.u.w.w.b r.r.r.t.t.a.r.p.u.u.I.r.t.r.r.r.w.r.9.q.2.0.1.8.9.0.9.9.0.9.9.; 9.r.w.w.w.w.w.r.r.e.z.u.u.i.>.w.w.i.>.w.8.8.9.w.w.w.8.",
"u.w.r.u.k p.w.p.r.a.p.p.p.d.u.R.t.r.t.r.w.9.t.0.q.3.9.9.9.9.w.9.9.w.r.w.b w.w.r.w.w.w.w.w.r.e.l.w.w.w.u.w.w.>.e.e.e.e.e.w.w.w.w."
};
